font.ufo
<glyph name="exclam" format="1">
  <advance width="282"/>
  <unicode hex="0021"/>
  <outline>
    <contour>
      <point x="46" y="699" type="line"/>
      <point x="46" y="518" type="line"/>
      <point x="82" y="247" type="line"/>
      <point x="202" y="247" type="line"/>
      <point x="238" y="518" type="line"/>
      <point x="238" y="699" type="line"/>
    </contour>
    <contour>
      <point x="44" y="83" type="curve" smooth="yes"/>
      <point x="44" y="29"/>
      <point x="83" y="-8"/>
      <point x="137" y="-8" type="curve" smooth="yes"/>
      <point x="194" y="-8"/>
      <point x="232" y="29"/>
      <point x="232" y="83" type="curve" smooth="yes"/>
      <point x="232" y="136"/>
      <point x="194" y="174"/>
      <point x="137" y="174" type="curve" smooth="yes"/>
      <point x="83" y="174"/>
      <point x="44" y="136"/>
    </contour>
  </outline>
</glyph>
<glyph name="numbersign" format="1">
  <advance width="740"/>
  <unicode hex="0023"/>
  <outline>
    <contour>
      <point x="421.87447" y="281" type="line"/>
      <point x="302.47361" y="281" type="line"/>
      <point x="318.42225" y="411.0" type="line"/>
      <point x="438.00856" y="411.0" type="line"/>
    </contour>
    <contour>
      <point x="387.0" y="0" type="line"/>
      <point x="532" y="0" type="line"/>
      <point x="550.2796" y="149" type="line"/>
      <point x="682" y="149" type="line"/>
      <point x="699.0" y="281" type="line"/>
      <point x="566.47361" y="281" type="line"/>
      <point x="582.42225" y="411.0" type="line"/>
      <point x="715.0" y="411.0" type="line"/>
      <point x="731.0" y="544" type="line"/>
      <point x="598.73894" y="544" type="line"/>
      <point x="618" y="701.0" type="line"/>
      <point x="474.0" y="701.0" type="line"/>
      <point x="454.51498" y="544" type="line"/>
      <point x="334.73894" y="544" type="line"/>
      <point x="354.0" y="701.0" type="line"/>
      <point x="210.0" y="701.0" type="line"/>
      <point x="190.51498" y="544" type="line"/>
      <point x="58.0" y="544" type="line"/>
      <point x="42" y="411.0" type="line"/>
      <point x="174.00856" y="411.0" type="line"/>
      <point x="157.87447" y="281" type="line"/>
      <point x="25.0" y="281" type="line"/>
      <point x="9" y="149" type="line"/>
      <point x="141.49215" y="149" type="line"/>
      <point x="123.0" y="0" type="line"/>
      <point x="268" y="0" type="line"/>
      <point x="286.2796" y="149" type="line"/>
      <point x="405.49215" y="149" type="line"/>
    </contour>
  </outline>
</glyph>
<glyph name="dollar" format="1">
  <advance width="655"/>
  <unicode hex="0024"/>
  <note>
    dollar
  </note>
  <outline>
    <contour>
      <point x="330" y="547" type="curve" smooth="yes"/>
      <point x="389" y="547"/>
      <point x="491" y="510"/>
      <point x="563" y="469" type="curve"/>
      <point x="640" y="629" type="line"/>
      <point x="576" y="670"/>
      <point x="489" y="699"/>
      <point x="400" y="707" type="curve"/>
      <point x="400" y="858" type="line"/>
      <point x="249" y="858" type="line"/>
      <point x="249" y="700" type="line"/>
      <point x="130" y="673"/>
      <point x="57" y="597"/>
      <point x="57" y="489" type="curve" smooth="yes"/>
      <point x="57" y="242"/>
      <point x="423" y="309"/>
      <point x="423" y="203" type="curve" smooth="yes"/>
      <point x="423" y="171"/>
      <point x="395" y="156"/>
      <point x="351" y="156" type="curve" smooth="yes"/>
      <point x="279" y="156"/>
      <point x="162" y="202"/>
      <point x="90" y="263" type="curve"/>
      <point x="12" y="105" type="line"/>
      <point x="76" y="55"/>
      <point x="162" y="19"/>
      <point x="249" y="3" type="curve"/>
      <point x="249" y="-160" type="line"/>
      <point x="400" y="-160" type="line"/>
      <point x="400" y="-4" type="line"/>
      <point x="534" y="10"/>
      <point x="638" y="81"/>
      <point x="638" y="214" type="curve" smooth="yes"/>
      <point x="638" y="467"/>
      <point x="272" y="406"/>
      <point x="272" y="509" type="curve" smooth="yes"/>
      <point x="272" y="535"/>
      <point x="295" y="547"/>
    </contour>
  </outline>
</glyph>
<glyph name="ampersand" format="1">
  <advance width="697"/>
  <unicode hex="0026"/>
  <outline>
    <contour>
      <point x="588.0" y="-35.0" type="curve"/>
      <point x="690" y="63.0" type="line"/>
      <point x="653.930030952" y="96.6186119279"/>
      <point x="620.816946089" y="127.675499309"/>
      <point x="590.46192" y="156.4464" type="curve"/>
      <point x="614.147667189" y="191.10692325"/>
      <point x="634.258870313" y="230.524498958"/>
      <point x="650.0" y="274.0" type="curve"/>
      <point x="523" y="365.0" type="line"/>
      <point x="513.41658584" y="326.666343361"/>
      <point x="499.701878427" y="291.351708716"/>
      <point x="482.86359" y="260.39988" type="curve"/>
      <point x="446.845406497" y="296.130581715"/>
      <point x="416.769405265" y="327.289500948"/>
      <point x="391.90339" y="354.8895" type="curve"/>
      <point x="473.389931199" y="396.716939431"/>
      <point x="553.0" y="448.380650024"/>
      <point x="553.0" y="547.0" type="curve" smooth="yes"/>
      <point x="553" y="642"/>
      <point x="465" y="710"/>
      <point x="341" y="710" type="curve" smooth="yes"/>
      <point x="213" y="710"/>
      <point x="133" y="642"/>
      <point x="133" y="535" type="curve" smooth="yes"/>
      <point x="133.0" y="485.569944305"/>
      <point x="147.386329431" y="440.518336697"/>
      <point x="187.22768" y="382.59873" type="curve"/>
      <point x="116.013990648" y="342.427281677"/>
      <point x="54.0" y="289.978333764"/>
      <point x="54.0" y="198.0" type="curve" smooth="yes"/>
      <point x="54" y="77"/>
      <point x="159" y="-9"/>
      <point x="302" y="-9" type="curve" smooth="yes"/>
      <point x="371.630569118" y="-9.0"/>
      <point x="437.273953897" y="13.8738469949"/>
      <point x="494.02741" y="55.40151" type="curve"/>
      <point x="523.12458125" y="27.2700198479"/>
      <point x="554.401465743" y="-2.78983492745"/>
    </contour>
    <contour>
      <point x="289.0" y="536.0" type="curve" smooth="yes"/>
      <point x="288.995" y="571.995"/>
      <point x="309" y="597"/>
      <point x="343" y="597" type="curve" smooth="yes"/>
      <point x="375" y="597"/>
      <point x="396" y="577"/>
      <point x="396" y="545" type="curve" smooth="yes"/>
      <point x="396.0" y="503.789330583"/>
      <point x="363.164611248" y="475.539998832"/>
      <point x="317.84223" y="449.75377" type="curve"/>
      <point x="297.453526552" y="483.090067141"/>
      <point x="289.0" y="510.234179757"/>
    </contour>
    <contour>
      <point x="310.0" y="131.0" type="curve" smooth="yes"/>
      <point x="257" y="131"/>
      <point x="219" y="163"/>
      <point x="219" y="213" type="curve" smooth="yes"/>
      <point x="219.0" y="242.733779194"/>
      <point x="237.307930237" y="265.780230576"/>
      <point x="265.35113" y="286.23191" type="curve"/>
      <point x="299.055425274" y="248.901995597"/>
      <point x="340.475627931" y="206.246545609"/>
      <point x="390.99461" y="156.10881" type="curve"/>
      <point x="365.455830367" y="139.912694657"/>
      <point x="338.046225707" y="131.0"/>
    </contour>
  </outline>
</glyph>
<glyph name="parenleft" format="1">
  <advance width="359"/>
  <unicode hex="0028"/>
  <outline>
    <contour>
      <point x="183" y="742" type="line"/>
      <point x="99" y="624"/>
      <point x="53" y="471"/>
      <point x="53" y="309" type="curve" smooth="yes"/>
      <point x="53" y="147"/>
      <point x="99" y="-6"/>
      <point x="183" y="-124" type="curve"/>
      <point x="365" y="-124" type="line"/>
      <point x="292" y="-6"/>
      <point x="243" y="147"/>
      <point x="243" y="309" type="curve" smooth="yes"/>
      <point x="243" y="471"/>
      <point x="292" y="624"/>
      <point x="365" y="742" type="curve"/>
    </contour>
  </outline>
</glyph>
<glyph name="parenright" format="1">
  <advance width="337"/>
  <unicode hex="0029"/>
  <outline>
    <contour>
      <point x="40" y="742" type="line"/>
      <point x="113" y="624"/>
      <point x="162" y="471"/>
      <point x="162" y="309" type="curve" smooth="yes"/>
      <point x="162" y="147"/>
      <point x="113" y="-6"/>
      <point x="40" y="-124" type="curve"/>
      <point x="222" y="-124" type="line"/>
      <point x="306" y="-6"/>
      <point x="352" y="147"/>
      <point x="352" y="309" type="curve" smooth="yes"/>
      <point x="352" y="471"/>
      <point x="306" y="624"/>
      <point x="222" y="742" type="curve"/>
    </contour>
  </outline>
</glyph>
<glyph name="asterisk" format="1">
  <advance width="394"/>
  <unicode hex="002A"/>
  <outline>
    <contour>
      <point x="372" y="501" type="line"/>
      <point x="291" y="547" type="line"/>
      <point x="372" y="591" type="line"/>
      <point x="323" y="674" type="line"/>
      <point x="245" y="626" type="line"/>
      <point x="247" y="719" type="line"/>
      <point x="147" y="719" type="line"/>
      <point x="148" y="626" type="line"/>
      <point x="70" y="675" type="line"/>
      <point x="21" y="591" type="line"/>
      <point x="101" y="547" type="line"/>
      <point x="21" y="501" type="line"/>
      <point x="70" y="419" type="line"/>
      <point x="149" y="467" type="line"/>
      <point x="147" y="375" type="line"/>
      <point x="247" y="375" type="line"/>
      <point x="244" y="466" type="line"/>
      <point x="323" y="418" type="line"/>
    </contour>
  </outline>
</glyph>
<glyph name="plus" format="1">
  <advance width="515"/>
  <unicode hex="002B"/>
  <outline>
    <contour>
      <point x="484.0" y="265" type="line"/>
      <point x="484.0" y="391.0" type="line"/>
      <point x="321" y="391.0" type="line"/>
      <point x="321" y="555" type="line"/>
      <point x="195.0" y="555" type="line"/>
      <point x="195.0" y="391.0" type="line"/>
      <point x="31.0" y="391.0" type="line"/>
      <point x="31.0" y="265" type="line"/>
      <point x="195.0" y="265" type="line"/>
      <point x="195.0" y="101.0" type="line"/>
      <point x="321" y="101.0" type="line"/>
      <point x="321" y="265" type="line"/>
    </contour>
  </outline>
</glyph>
<glyph name="comma" format="1">
  <advance width="253"/>
  <unicode hex="002C"/>
  <outline>
    <contour>
      <point x="221" y="81" type="curve" smooth="yes"/>
      <point x="221" y="145"/>
      <point x="172" y="177"/>
      <point x="123" y="177" type="curve" smooth="yes"/>
      <point x="78" y="177"/>
      <point x="31" y="146"/>
      <point x="31" y="90" type="curve" smooth="yes"/>
      <point x="31" y="31"/>
      <point x="81" y="37"/>
      <point x="81" y="-15" type="curve" smooth="yes"/>
      <point x="81" y="-43"/>
      <point x="67" y="-80"/>
      <point x="-4" y="-135" type="curve"/>
      <point x="34" y="-181" type="line"/>
      <point x="174" y="-84"/>
      <point x="221" y="18"/>
    </contour>
  </outline>
</glyph>
<glyph name="hyphen" format="1">
  <advance width="378"/>
  <unicode hex="002D"/>
  <outline>
    <contour>
      <point x="53" y="368" type="line"/>
      <point x="53" y="247" type="line"/>
      <point x="325" y="247" type="line"/>
      <point x="325" y="368" type="line"/>
    </contour>
  </outline>
</glyph>
<glyph name="slash" format="1">
  <advance width="364"/>
  <unicode hex="002F"/>
  <outline>
    <contour>
      <point x="283" y="810" type="line"/>
      <point x="-44" y="-108" type="line"/>
      <point x="125" y="-108" type="line"/>
      <point x="452" y="810" type="line"/>
    </contour>
  </outline>
</glyph>
<glyph name="zero" format="1">
  <advance width="708"/>
  <unicode hex="0030"/>
  <note>
    zero
  </note>
  <outline>
    <contour>
      <point x="38" y="351" type="curve" smooth="yes"/>
      <point x="38" y="121"/>
      <point x="150" y="-6"/>
      <point x="355" y="-6" type="curve" smooth="yes"/>
      <point x="557" y="-6"/>
      <point x="671" y="121"/>
      <point x="671" y="351" type="curve" smooth="yes"/>
      <point x="671" y="580"/>
      <point x="557" y="707"/>
      <point x="355" y="707" type="curve" smooth="yes"/>
      <point x="150" y="707"/>
      <point x="38" y="580"/>
    </contour>
    <contour>
      <point x="457" y="351" type="curve" smooth="yes"/>
      <point x="457" y="201"/>
      <point x="428" y="145"/>
      <point x="355" y="145" type="curve" smooth="yes"/>
      <point x="280" y="145"/>
      <point x="251" y="201"/>
      <point x="251" y="351" type="curve" smooth="yes"/>
      <point x="251" y="501"/>
      <point x="280" y="556"/>
      <point x="355" y="556" type="curve" smooth="yes"/>
      <point x="428" y="556"/>
      <point x="457" y="501"/>
    </contour>
  </outline>
</glyph>
<glyph name="one" format="1">
  <advance width="617"/>
  <unicode hex="0031"/>
  <note>
    one
  </note>
  <outline>
    <contour>
      <point x="423" y="0" type="line"/>
      <point x="423" y="701" type="line"/>
      <point x="87" y="701" type="line"/>
      <point x="87" y="535" type="line"/>
      <point x="215" y="535" type="line"/>
      <point x="215" y="0" type="line"/>
    </contour>
  </outline>
</glyph>
<glyph name="two" format="1">
  <advance width="617"/>
  <unicode hex="0032"/>
  <note>
    two
  </note>
  <outline>
    <contour>
      <point x="19" y="603" type="curve"/>
      <point x="97" y="453" type="line"/>
      <point x="163" y="508"/>
      <point x="234" y="542"/>
      <point x="289" y="542" type="curve" smooth="yes"/>
      <point x="330" y="542"/>
      <point x="353" y="525"/>
      <point x="353" y="493" type="curve" smooth="yes"/>
      <point x="353" y="466"/>
      <point x="326" y="426"/>
      <point x="292" y="391" type="curve" smooth="yes"/>
      <point x="43" y="133" type="line"/>
      <point x="43" y="0" type="line"/>
      <point x="586" y="0" type="line"/>
      <point x="586" y="162" type="line"/>
      <point x="308" y="162" type="line"/>
      <point x="434" y="288" type="line" smooth="yes"/>
      <point x="512" y="367"/>
      <point x="571" y="445"/>
      <point x="571" y="524" type="curve" smooth="yes"/>
      <point x="571" y="636"/>
      <point x="464" y="711"/>
      <point x="321" y="711" type="curve" smooth="yes"/>
      <point x="215" y="711"/>
      <point x="114" y="670"/>
    </contour>
  </outline>
</glyph>
<glyph name="three" format="1">
  <advance width="617"/>
  <unicode hex="0033"/>
  <note>
    three
  </note>
  <outline>
    <contour>
      <point x="368" y="421" type="line"/>
      <point x="544" y="583" type="line"/>
      <point x="544" y="700" type="line"/>
      <point x="43" y="700" type="line"/>
      <point x="43" y="546" type="line"/>
      <point x="297" y="546" type="line"/>
      <point x="149" y="403" type="line"/>
      <point x="149" y="294" type="line"/>
      <point x="274" y="294" type="line" smooth="yes"/>
      <point x="340" y="294"/>
      <point x="375" y="269"/>
      <point x="375" y="220" type="curve" smooth="yes"/>
      <point x="375" y="172"/>
      <point x="340" y="146"/>
      <point x="274" y="146" type="curve" smooth="yes"/>
      <point x="208" y="146"/>
      <point x="145" y="177"/>
      <point x="89" y="238" type="curve"/>
      <point x="6" y="80" type="line"/>
      <point x="76" y="27"/>
      <point x="185" y="-9"/>
      <point x="291" y="-9" type="curve" smooth="yes"/>
      <point x="466" y="-9"/>
      <point x="578" y="86"/>
      <point x="578" y="222" type="curve" smooth="yes"/>
      <point x="578" y="328"/>
      <point x="505" y="397"/>
      <point x="402" y="415" type="curve" smooth="yes"/>
    </contour>
  </outline>
</glyph>
<glyph name="four" format="1">
  <advance width="650"/>
  <unicode hex="0034"/>
  <note>
    four
  </note>
  <outline>
    <contour>
      <point x="437" y="701" type="line"/>
      <point x="238" y="701" type="line"/>
      <point x="26" y="281" type="line"/>
      <point x="26" y="143" type="line"/>
      <point x="357" y="143" type="line"/>
      <point x="357" y="0" type="line"/>
      <point x="550" y="0" type="line"/>
      <point x="550" y="143" type="line"/>
      <point x="642" y="143" type="line"/>
      <point x="642" y="296" type="line"/>
      <point x="550" y="296" type="line"/>
      <point x="550" y="437" type="line"/>
      <point x="357" y="437" type="line"/>
      <point x="357" y="296" type="line"/>
      <point x="238" y="296" type="line"/>
    </contour>
  </outline>
</glyph>
<glyph name="five" format="1">
  <advance width="617"/>
  <unicode hex="0035"/>
  <note>
    five
  </note>
  <outline>
    <contour>
      <point x="73" y="702" type="line"/>
      <point x="73" y="292" type="line"/>
      <point x="115" y="293"/>
      <point x="236" y="294"/>
      <point x="270" y="294" type="curve" smooth="yes"/>
      <point x="331" y="294"/>
      <point x="363" y="269"/>
      <point x="363" y="223" type="curve" smooth="yes"/>
      <point x="363" y="174"/>
      <point x="331" y="147"/>
      <point x="270" y="147" type="curve" smooth="yes"/>
      <point x="206" y="147"/>
      <point x="146" y="178"/>
      <point x="93" y="240" type="curve"/>
      <point x="10" y="82" type="line"/>
      <point x="87" y="27"/>
      <point x="198" y="-9"/>
      <point x="295" y="-9" type="curve" smooth="yes"/>
      <point x="472" y="-9"/>
      <point x="587" y="88"/>
      <point x="587" y="237" type="curve" smooth="yes"/>
      <point x="587" y="364"/>
      <point x="479" y="449"/>
      <point x="311" y="449" type="curve" smooth="yes"/>
      <point x="264" y="449" type="line"/>
      <point x="264" y="540" type="line"/>
      <point x="555" y="540" type="line"/>
      <point x="555" y="702" type="line"/>
    </contour>
  </outline>
</glyph>
<glyph name="six" format="1">
  <advance width="641"/>
  <unicode hex="0036"/>
  <note>
    six
  </note>
  <outline>
    <contour>
      <point x="38" y="342" type="curve" smooth="yes"/>
      <point x="38" y="127"/>
      <point x="155" y="-9"/>
      <point x="349" y="-9" type="curve" smooth="yes"/>
      <point x="510" y="-9"/>
      <point x="618" y="86"/>
      <point x="618" y="236" type="curve" smooth="yes"/>
      <point x="618" y="372"/>
      <point x="529" y="465"/>
      <point x="391" y="465" type="curve" smooth="yes"/>
      <point x="319" y="465"/>
      <point x="268" y="439"/>
      <point x="237" y="402" type="curve"/>
      <point x="236" y="497"/>
      <point x="285" y="550"/>
      <point x="385" y="550" type="curve" smooth="yes"/>
      <point x="439" y="550"/>
      <point x="489" y="534"/>
      <point x="528" y="504" type="curve"/>
      <point x="607" y="650" type="line"/>
      <point x="547" y="686"/>
      <point x="455" y="710"/>
      <point x="372" y="710" type="curve" smooth="yes"/>
      <point x="169" y="710"/>
      <point x="38" y="565"/>
    </contour>
    <contour>
      <point x="425" y="237" type="curve" smooth="yes"/>
      <point x="425" y="184"/>
      <point x="395" y="157"/>
      <point x="341" y="157" type="curve" smooth="yes"/>
      <point x="284" y="157"/>
      <point x="256" y="189"/>
      <point x="256" y="235" type="curve" smooth="yes"/>
      <point x="256" y="283"/>
      <point x="287" y="313"/>
      <point x="343" y="313" type="curve" smooth="yes"/>
      <point x="396" y="313"/>
      <point x="425" y="286"/>
    </contour>
  </outline>
</glyph>
<glyph name="seven" format="1">
  <advance width="607"/>
  <unicode hex="0037"/>
  <note>
    seven
  </note>
  <outline>
    <contour>
      <point x="595" y="701" type="line"/>
      <point x="31" y="701" type="line"/>
      <point x="31" y="441" type="line"/>
      <point x="214" y="441" type="line"/>
      <point x="214" y="539" type="line"/>
      <point x="366" y="539" type="line"/>
      <point x="126" y="0" type="line"/>
      <point x="346" y="0" type="line"/>
      <point x="595" y="560" type="line"/>
    </contour>
  </outline>
</glyph>
<glyph name="eight" format="1">
  <advance width="650"/>
  <unicode hex="0038"/>
  <note>
    eight
  </note>
  <outline>
    <contour>
      <point x="66" y="523" type="curve" smooth="yes"/>
      <point x="66" y="467"/>
      <point x="102" y="410"/>
      <point x="157" y="375" type="curve"/>
      <point x="79" y="342"/>
      <point x="29" y="272"/>
      <point x="29" y="195" type="curve" smooth="yes"/>
      <point x="29" y="71"/>
      <point x="145" y="-9"/>
      <point x="325" y="-9" type="curve" smooth="yes"/>
      <point x="505" y="-9"/>
      <point x="621" y="72"/>
      <point x="621" y="198" type="curve" smooth="yes"/>
      <point x="621" y="274"/>
      <point x="575" y="342"/>
      <point x="503" y="375" type="curve"/>
      <point x="552" y="406"/>
      <point x="584" y="461"/>
      <point x="584" y="517" type="curve" smooth="yes"/>
      <point x="584" y="634"/>
      <point x="482" y="710"/>
      <point x="324" y="710" type="curve" smooth="yes"/>
      <point x="168" y="710"/>
      <point x="66" y="637"/>
    </contour>
    <contour>
      <point x="409" y="506" type="curve" smooth="yes"/>
      <point x="409" y="464"/>
      <point x="380" y="441"/>
      <point x="325" y="441" type="curve" smooth="yes"/>
      <point x="270" y="441"/>
      <point x="241" y="464"/>
      <point x="241" y="506" type="curve" smooth="yes"/>
      <point x="241" y="550"/>
      <point x="270" y="573"/>
      <point x="325" y="573" type="curve" smooth="yes"/>
      <point x="380" y="573"/>
      <point x="409" y="550"/>
    </contour>
    <contour>
      <point x="425" y="216" type="curve" smooth="yes"/>
      <point x="425" y="167"/>
      <point x="390" y="141"/>
      <point x="325" y="141" type="curve" smooth="yes"/>
      <point x="260" y="141"/>
      <point x="225" y="167"/>
      <point x="225" y="216" type="curve" smooth="yes"/>
      <point x="225" y="266"/>
      <point x="260" y="293"/>
      <point x="325" y="293" type="curve" smooth="yes"/>
      <point x="390" y="293"/>
      <point x="425" y="266"/>
    </contour>
  </outline>
</glyph>
<glyph name="nine" format="1">
  <advance width="617"/>
  <unicode hex="0039"/>
  <note>
    nine
  </note>
  <outline>
    <contour>
      <point x="206" y="466" type="curve" smooth="yes"/>
      <point x="206" y="522"/>
      <point x="236" y="552"/>
      <point x="289" y="552" type="curve" smooth="yes"/>
      <point x="347" y="552"/>
      <point x="375" y="516"/>
      <point x="374" y="468" type="curve" smooth="yes"/>
      <point x="375" y="417"/>
      <point x="344" y="383"/>
      <point x="287" y="383" type="curve" smooth="yes"/>
      <point x="234" y="383"/>
      <point x="206" y="413"/>
    </contour>
    <contour>
      <point x="584" y="361" type="curve" smooth="yes"/>
      <point x="584" y="576"/>
      <point x="470" y="710"/>
      <point x="282" y="710" type="curve" smooth="yes"/>
      <point x="125" y="710"/>
      <point x="20" y="616"/>
      <point x="20" y="467" type="curve" smooth="yes"/>
      <point x="20" y="329"/>
      <point x="107" y="237"/>
      <point x="241" y="237" type="curve" smooth="yes"/>
      <point x="313" y="237"/>
      <point x="363" y="264"/>
      <point x="394" y="304" type="curve"/>
      <point x="395" y="203"/>
      <point x="346" y="145"/>
      <point x="247" y="145" type="curve" smooth="yes"/>
      <point x="194" y="145"/>
      <point x="145" y="160"/>
      <point x="107" y="190" type="curve"/>
      <point x="31" y="51" type="line"/>
      <point x="90" y="14"/>
      <point x="179" y="-9"/>
      <point x="259" y="-9" type="curve" smooth="yes"/>
      <point x="457" y="-9"/>
      <point x="584" y="137"/>
    </contour>
  </outline>
</glyph>
<glyph name="less" format="1">
  <advance width="515"/>
  <unicode hex="003C"/>
  <outline>
    <contour>
      <point x="31" y="404" type="line"/>
      <point x="31" y="243" type="line"/>
      <point x="484" y="58" type="line"/>
      <point x="484" y="199" type="line"/>
      <point x="161" y="324" type="line"/>
      <point x="484" y="448" type="line"/>
      <point x="484" y="589" type="line"/>
    </contour>
  </outline>
</glyph>
<glyph name="equal" format="1">
  <advance width="515"/>
  <unicode hex="003D"/>
  <outline>
    <contour>
      <point x="31" y="500" type="line"/>
      <point x="31" y="374" type="line"/>
      <point x="484" y="374" type="line"/>
      <point x="484" y="500" type="line"/>
    </contour>
    <contour>
      <point x="31" y="282" type="line"/>
      <point x="31" y="156" type="line"/>
      <point x="484" y="156" type="line"/>
      <point x="484" y="282" type="line"/>
    </contour>
  </outline>
</glyph>
<glyph name="greater" format="1">
  <advance width="515"/>
  <unicode hex="003E"/>
  <outline>
    <contour>
      <point x="484" y="252" type="line"/>
      <point x="484" y="413" type="line"/>
      <point x="31" y="598" type="line"/>
      <point x="31" y="457" type="line"/>
      <point x="354" y="332" type="line"/>
      <point x="31" y="208" type="line"/>
      <point x="31" y="67" type="line"/>
    </contour>
  </outline>
</glyph>
<glyph name="question" format="1">
  <advance width="486"/>
  <unicode hex="003F"/>
  <outline>
    <contour>
      <point x="157" y="467" type="line"/>
      <point x="157" y="526"/>
      <point x="179" y="553"/>
      <point x="222" y="553" type="curve" smooth="yes"/>
      <point x="258" y="553"/>
      <point x="278" y="536"/>
      <point x="278" y="498" type="curve" smooth="yes"/>
      <point x="278" y="407"/>
      <point x="163" y="397"/>
      <point x="163" y="243" type="curve"/>
      <point x="313" y="243" type="line"/>
      <point x="313" y="358"/>
      <point x="464" y="380"/>
      <point x="464" y="529" type="curve" smooth="yes"/>
      <point x="464" y="642"/>
      <point x="380" y="707"/>
      <point x="241" y="707" type="curve" smooth="yes"/>
      <point x="92" y="707"/>
      <point x="3" y="618"/>
      <point x="2" y="468" type="curve"/>
    </contour>
    <contour>
      <point x="141" y="83" type="curve" smooth="yes"/>
      <point x="141" y="29"/>
      <point x="180" y="-8"/>
      <point x="234" y="-8" type="curve" smooth="yes"/>
      <point x="291" y="-8"/>
      <point x="329" y="29"/>
      <point x="329" y="83" type="curve" smooth="yes"/>
      <point x="329" y="136"/>
      <point x="291" y="174"/>
      <point x="234" y="174" type="curve" smooth="yes"/>
      <point x="180" y="174"/>
      <point x="141" y="136"/>
    </contour>
  </outline>
</glyph>
<glyph name="at" format="1">
  <advance width="888"/>
  <unicode hex="0040"/>
  <outline>
    <contour>
      <point x="19" y="268" type="curve" smooth="yes"/>
      <point x="19" y="30"/>
      <point x="200" y="-147"/>
      <point x="438" y="-147" type="curve" smooth="yes"/>
      <point x="516" y="-147"/>
      <point x="615" y="-118"/>
      <point x="673" y="-72" type="curve"/>
      <point x="624" y="11" type="line"/>
      <point x="568" y="-32"/>
      <point x="495" y="-51"/>
      <point x="438" y="-51" type="curve" smooth="yes"/>
      <point x="259" y="-51"/>
      <point x="122" y="85"/>
      <point x="122" y="268" type="curve" smooth="yes"/>
      <point x="122" y="453"/>
      <point x="269" y="604"/>
      <point x="450" y="604" type="curve" smooth="yes"/>
      <point x="651" y="604"/>
      <point x="766" y="458"/>
      <point x="766" y="272" type="curve" smooth="yes"/>
      <point x="766" y="180"/>
      <point x="728" y="116"/>
      <point x="690" y="116" type="curve" smooth="yes"/>
      <point x="670" y="116"/>
      <point x="656" y="127"/>
      <point x="656" y="162" type="curve" smooth="yes"/>
      <point x="656" y="492" type="line"/>
      <point x="527" y="492" type="line"/>
      <point x="527" y="446" type="line"/>
      <point x="525" y="451"/>
      <point x="478" y="504"/>
      <point x="403" y="504" type="curve" smooth="yes"/>
      <point x="282" y="504"/>
      <point x="205" y="397"/>
      <point x="205" y="271" type="curve" smooth="yes"/>
      <point x="205" y="132"/>
      <point x="309" y="41"/>
      <point x="417" y="41" type="curve" smooth="yes"/>
      <point x="468" y="41"/>
      <point x="520" y="62"/>
      <point x="558" y="116" type="curve"/>
      <point x="560" y="106" type="line" smooth="yes"/>
      <point x="574" y="54"/>
      <point x="617" y="31"/>
      <point x="677" y="31" type="curve" smooth="yes"/>
      <point x="788" y="31"/>
      <point x="869" y="127"/>
      <point x="869" y="275" type="curve" smooth="yes"/>
      <point x="869" y="519"/>
      <point x="689" y="699"/>
      <point x="450" y="699" type="curve" smooth="yes"/>
      <point x="211" y="699"/>
      <point x="19" y="510"/>
    </contour>
    <contour>
      <point x="519" y="275" type="curve" smooth="yes"/>
      <point x="519" y="211"/>
      <point x="487" y="157"/>
      <point x="431" y="157" type="curve" smooth="yes"/>
      <point x="379" y="157"/>
      <point x="347" y="213"/>
      <point x="347" y="276" type="curve" smooth="yes"/>
      <point x="347" y="335"/>
      <point x="380" y="385"/>
      <point x="430" y="385" type="curve" smooth="yes"/>
      <point x="486" y="385"/>
      <point x="519" y="336"/>
    </contour>
  </outline>
</glyph>
<glyph name="A" format="1">
  <advance width="786"/>
  <unicode hex="0041"/>
  <outline>
    <contour>
      <point x="800" y="10" type="move" name="ogonek"/>
    </contour>
    <contour>
      <point x="394" y="701" type="move" name="abvm"/>
    </contour>
    <contour>
      <point x="392.0" y="493.0" type="line"/>
      <point x="476.07505" y="264" type="line"/>
      <point x="305.60243" y="264" type="line"/>
    </contour>
    <contour>
      <point x="573" y="0" type="line"/>
      <point x="793.995" y="0" type="line"/>
      <point x="505.0" y="701.0" type="line"/>
      <point x="291" y="701.0" type="line"/>
      <point x="-7.0" y="0" type="line"/>
      <point x="206.0" y="0" type="line"/>
      <point x="248.25558" y="112.0" type="line"/>
      <point x="531.88032" y="112.0" type="line"/>
    </contour>
  </outline>
</glyph>
<glyph name="B" format="1">
  <advance width="720"/>
  <unicode hex="0042"/>
  <outline>
    <contour>
      <point x="59" y="701" type="line"/>
      <point x="59" y="0" type="line"/>
      <point x="418" y="0" type="line" smooth="yes"/>
      <point x="587" y="0"/>
      <point x="695" y="76"/>
      <point x="695" y="196" type="curve" smooth="yes"/>
      <point x="695" y="285"/>
      <point x="639" y="355"/>
      <point x="553" y="373" type="curve"/>
      <point x="626" y="394"/>
      <point x="672" y="453"/>
      <point x="672" y="524" type="curve" smooth="yes"/>
      <point x="672" y="632"/>
      <point x="567" y="701"/>
      <point x="403" y="701" type="curve" smooth="yes"/>
    </contour>
    <contour>
      <point x="459" y="487" type="curve" smooth="yes"/>
      <point x="459" y="450"/>
      <point x="432" y="426"/>
      <point x="392" y="426" type="curve" smooth="yes"/>
      <point x="266" y="426" type="line"/>
      <point x="266" y="545" type="line"/>
      <point x="392" y="545" type="line" smooth="yes"/>
      <point x="432" y="545"/>
      <point x="459" y="523"/>
    </contour>
    <contour>
      <point x="478" y="222" type="curve" smooth="yes"/>
      <point x="478" y="181"/>
      <point x="445" y="155"/>
      <point x="392" y="155" type="curve" smooth="yes"/>
      <point x="266" y="155" type="line"/>
      <point x="266" y="284" type="line"/>
      <point x="392" y="284" type="line" smooth="yes"/>
      <point x="445" y="284"/>
      <point x="478" y="260"/>
    </contour>
  </outline>
</glyph>
<glyph name="C" format="1">
  <advance width="690"/>
  <unicode hex="0043"/>
  <outline>
    <contour>
      <point x="371" y="0" type="move" name="blwm"/>
    </contour>
    <contour>
      <point x="389" y="701" type="move" name="abvm"/>
    </contour>
    <contour>
      <point x="19" y="352" type="curve" smooth="yes"/>
      <point x="19" y="145"/>
      <point x="176" y="-9"/>
      <point x="389" y="-9" type="curve" smooth="yes"/>
      <point x="495" y="-9"/>
      <point x="610" y="44"/>
      <point x="686" y="126" type="curve"/>
      <point x="566" y="254" type="line"/>
      <point x="518" y="205"/>
      <point x="453" y="173"/>
      <point x="399" y="173" type="curve" smooth="yes"/>
      <point x="304" y="173"/>
      <point x="232" y="251"/>
      <point x="232" y="354" type="curve" smooth="yes"/>
      <point x="232" y="457"/>
      <point x="304" y="534"/>
      <point x="399" y="534" type="curve" smooth="yes"/>
      <point x="457" y="534"/>
      <point x="522" y="497"/>
      <point x="566" y="441" type="curve"/>
      <point x="686" y="583" type="line"/>
      <point x="615" y="659"/>
      <point x="502" y="707"/>
      <point x="396" y="707" type="curve" smooth="yes"/>
      <point x="179" y="707"/>
      <point x="19" y="556"/>
    </contour>
  </outline>
</glyph>
<glyph name="D" format="1">
  <advance width="762"/>
  <unicode hex="0044"/>
  <outline>
    <contour>
      <point x="375" y="351" type="move" name="center"/>
    </contour>
    <contour>
      <point x="355" y="701" type="move" name="abvm"/>
    </contour>
    <contour>
      <point x="59" y="701" type="line"/>
      <point x="59" y="0" type="line"/>
      <point x="359" y="0" type="line" smooth="yes"/>
      <point x="591" y="0"/>
      <point x="744" y="140"/>
      <point x="744" y="351" type="curve" smooth="yes"/>
      <point x="744" y="562"/>
      <point x="593" y="701"/>
      <point x="367" y="701" type="curve" smooth="yes"/>
    </contour>
    <contour>
      <point x="531" y="349" type="curve" smooth="yes"/>
      <point x="531" y="237"/>
      <point x="467" y="163"/>
      <point x="372" y="163" type="curve" smooth="yes"/>
      <point x="267" y="163" type="line"/>
      <point x="267" y="537" type="line"/>
      <point x="362" y="537" type="line" smooth="yes"/>
      <point x="462" y="537"/>
      <point x="531" y="462"/>
    </contour>
  </outline>
</glyph>
<glyph name="E" format="1">
  <advance width="683"/>
  <unicode hex="0045"/>
  <outline>
    <contour>
      <point x="347" y="0" type="move" name="blwm"/>
    </contour>
    <contour>
      <point x="635" y="10" type="move" name="ogonek"/>
    </contour>
    <contour>
      <point x="347" y="701" type="move" name="abvm"/>
    </contour>
    <contour>
      <point x="59" y="701" type="line"/>
      <point x="59" y="0" type="line"/>
      <point x="642" y="0" type="line"/>
      <point x="642" y="160" type="line"/>
      <point x="267" y="160" type="line"/>
      <point x="267" y="271" type="line"/>
      <point x="598" y="271" type="line"/>
      <point x="598" y="431" type="line"/>
      <point x="267" y="431" type="line"/>
      <point x="267" y="541" type="line"/>
      <point x="632" y="541" type="line"/>
      <point x="632" y="701" type="line"/>
    </contour>
  </outline>
</glyph>
<glyph name="F" format="1">
  <advance width="619"/>
  <unicode hex="0046"/>
  <outline>
    <contour>
      <point x="59" y="701" type="line"/>
      <point x="59" y="0" type="line"/>
      <point x="267" y="0" type="line"/>
      <point x="267" y="241" type="line"/>
      <point x="580" y="241" type="line"/>
      <point x="580" y="401" type="line"/>
      <point x="267" y="401" type="line"/>
      <point x="267" y="541" type="line"/>
      <point x="603" y="541" type="line"/>
      <point x="603" y="701" type="line"/>
    </contour>
  </outline>
</glyph>
<glyph name="G" format="1">
  <advance width="740"/>
  <unicode hex="0047"/>
  <outline>
    <contour>
      <point x="394" y="0" type="move" name="blwm"/>
    </contour>
    <contour>
      <point x="394" y="701" type="move" name="abvm"/>
    </contour>
    <contour>
      <point x="696" y="81" type="curve"/>
      <point x="696.0" y="363.0" type="line"/>
      <point x="517" y="363.0" type="line"/>
      <point x="517" y="192.27772" type="line"/>
      <point x="479.234566435" y="175.222552785"/>
      <point x="440.414908936" y="165.0"/>
      <point x="411.0" y="165.0" type="curve" smooth="yes"/>
      <point x="309" y="165"/>
      <point x="232" y="243"/>
      <point x="232" y="350" type="curve" smooth="yes"/>
      <point x="232" y="455"/>
      <point x="308" y="534"/>
      <point x="409" y="534" type="curve" smooth="yes"/>
      <point x="470" y="534"/>
      <point x="540" y="504"/>
      <point x="588" y="458" type="curve"/>
      <point x="706.0" y="601" type="line"/>
      <point x="632" y="666"/>
      <point x="517" y="707"/>
      <point x="410" y="707" type="curve" smooth="yes"/>
      <point x="184" y="707"/>
      <point x="19" y="555"/>
      <point x="19" y="350" type="curve" smooth="yes"/>
      <point x="19" y="144"/>
      <point x="179" y="-9"/>
      <point x="396" y="-9" type="curve" smooth="yes"/>
      <point x="496" y="-9"/>
      <point x="620" y="29"/>
    </contour>
  </outline>
</glyph>
<glyph name="H" format="1">
  <advance width="783"/>
  <unicode hex="0048"/>
  <outline>
    <contour>
      <point x="392" y="351" type="move" name="center"/>
    </contour>
    <contour>
      <point x="401" y="701" type="move" name="abvm"/>
    </contour>
    <contour>
      <point x="516" y="701" type="line"/>
      <point x="516" y="422" type="line"/>
      <point x="267" y="422" type="line"/>
      <point x="267" y="701" type="line"/>
      <point x="59" y="701" type="line"/>
      <point x="59" y="0" type="line"/>
      <point x="267" y="0" type="line"/>
      <point x="267" y="261" type="line"/>
      <point x="516" y="261" type="line"/>
      <point x="516" y="0" type="line"/>
      <point x="724" y="0" type="line"/>
      <point x="724" y="701" type="line"/>
    </contour>
  </outline>
</glyph>
<glyph name="I" format="1">
  <advance width="326"/>
  <unicode hex="0049"/>
  <outline>
    <contour>
      <point x="289" y="10" type="move" name="ogonek"/>
    </contour>
    <contour>
      <point x="163" y="701" type="move" name="abvm"/>
    </contour>
    <contour>
      <point x="59" y="701" type="line"/>
      <point x="59" y="0" type="line"/>
      <point x="267" y="0" type="line"/>
      <point x="267" y="701" type="line"/>
    </contour>
  </outline>
</glyph>
<glyph name="J" format="1">
  <advance width="554"/>
  <unicode hex="004A"/>
  <outline>
    <contour>
      <point x="280" y="701" type="move" name="abvm"/>
    </contour>
    <contour>
      <point x="59" y="701" type="line"/>
      <point x="59" y="535" type="line"/>
      <point x="298" y="535" type="line"/>
      <point x="298" y="237" type="line" smooth="yes"/>
      <point x="298" y="190"/>
      <point x="273" y="166"/>
      <point x="235" y="166" type="curve" smooth="yes"/>
      <point x="197" y="166"/>
      <point x="141" y="191"/>
      <point x="88" y="245" type="curve"/>
      <point x="-6" y="108" type="line"/>
      <point x="61" y="34"/>
      <point x="146" y="-9"/>
      <point x="252" y="-9" type="curve" smooth="yes"/>
      <point x="408" y="-9"/>
      <point x="507" y="79"/>
      <point x="507" y="232" type="curve" smooth="yes"/>
      <point x="507" y="701" type="line"/>
    </contour>
  </outline>
</glyph>
<glyph name="K" format="1">
  <advance width="761"/>
  <unicode hex="004B"/>
  <outline>
    <contour>
      <point x="369" y="0" type="move" name="blwm"/>
    </contour>
    <contour>
      <point x="369" y="701" type="move" name="abvm"/>
    </contour>
    <contour>
      <point x="267" y="168" type="line"/>
      <point x="345.81309" y="256.43658" type="line"/>
      <point x="509.0" y="0" type="line"/>
      <point x="757.995" y="0" type="line"/>
      <point x="487.60951" y="415.54709" type="line"/>
      <point x="742.0" y="701.0" type="line"/>
      <point x="502.0" y="701.0" type="line"/>
      <point x="267" y="431.0" type="line"/>
      <point x="267" y="701.0" type="line"/>
      <point x="59.0" y="701.0" type="line"/>
      <point x="59.0" y="0" type="line"/>
      <point x="267" y="0" type="line"/>
    </contour>
  </outline>
</glyph>
<glyph name="L" format="1">
  <advance width="574"/>
  <unicode hex="004C"/>
  <outline>
    <contour>
      <point x="292" y="0" type="move" name="blwm"/>
    </contour>
    <contour>
      <point x="158" y="701" type="move" name="abvm"/>
    </contour>
    <contour>
      <point x="59" y="701" type="line"/>
      <point x="59" y="0" type="line"/>
      <point x="561" y="0" type="line"/>
      <point x="561" y="174" type="line"/>
      <point x="267" y="174" type="line"/>
      <point x="267" y="701" type="line"/>
    </contour>
  </outline>
</glyph>
<glyph name="M" format="1">
  <advance width="902"/>
  <unicode hex="004D"/>
  <outline>
    <contour>
      <point x="620" y="701" type="line"/>
      <point x="451" y="313" type="line"/>
      <point x="282" y="701" type="line"/>
      <point x="59" y="701" type="line"/>
      <point x="59" y="0" type="line"/>
      <point x="242" y="0" type="line"/>
      <point x="242" y="415" type="line"/>
      <point x="383" y="69" type="line"/>
      <point x="519" y="69" type="line"/>
      <point x="661" y="415" type="line"/>
      <point x="661" y="0" type="line"/>
      <point x="843" y="0" type="line"/>
      <point x="843" y="701" type="line"/>
    </contour>
  </outline>
</glyph>
<glyph name="N" format="1">
  <advance width="783"/>
  <unicode hex="004E"/>
  <outline>
    <contour>
      <point x="392" y="0" type="move" name="blwm"/>
    </contour>
    <contour>
      <point x="392" y="701" type="move" name="abvm"/>
    </contour>
    <contour>
      <point x="534" y="701" type="line"/>
      <point x="534" y="309" type="line"/>
      <point x="237" y="701" type="line"/>
      <point x="59" y="701" type="line"/>
      <point x="59" y="0" type="line"/>
      <point x="250" y="0" type="line"/>
      <point x="250" y="390" type="line"/>
      <point x="547" y="0" type="line"/>
      <point x="725" y="0" type="line"/>
      <point x="725" y="701" type="line"/>
    </contour>
  </outline>
</glyph>
<glyph name="O" format="1">
  <advance width="802"/>
  <unicode hex="004F"/>
  <outline>
    <contour>
      <point x="392" y="701" type="move" name="abvm"/>
    </contour>
    <contour>
      <point x="19" y="351" type="curve" smooth="yes"/>
      <point x="19" y="144"/>
      <point x="181" y="-9"/>
      <point x="401" y="-9" type="curve" smooth="yes"/>
      <point x="621" y="-9"/>
      <point x="783" y="145"/>
      <point x="783" y="351" type="curve" smooth="yes"/>
      <point x="783" y="556"/>
      <point x="621" y="707"/>
      <point x="401" y="707" type="curve" smooth="yes"/>
      <point x="181" y="707"/>
      <point x="19" y="557"/>
    </contour>
    <contour>
      <point x="569" y="350" type="curve" smooth="yes"/>
      <point x="569" y="244"/>
      <point x="495" y="165"/>
      <point x="403" y="165" type="curve" smooth="yes"/>
      <point x="311" y="165"/>
      <point x="232" y="244"/>
      <point x="232" y="350" type="curve" smooth="yes"/>
      <point x="232" y="456"/>
      <point x="310" y="533"/>
      <point x="403" y="533" type="curve" smooth="yes"/>
      <point x="495" y="533"/>
      <point x="569" y="456"/>
    </contour>
  </outline>
</glyph>
<glyph name="P" format="1">
  <advance width="683"/>
  <unicode hex="0050"/>
  <outline>
    <contour>
      <point x="59" y="701" type="line"/>
      <point x="59" y="0" type="line"/>
      <point x="267" y="0" type="line"/>
      <point x="267" y="189" type="line"/>
      <point x="378" y="189" type="line" smooth="yes"/>
      <point x="558" y="189"/>
      <point x="662" y="285"/>
      <point x="662" y="452" type="curve" smooth="yes"/>
      <point x="662" y="611"/>
      <point x="558" y="701"/>
      <point x="378" y="701" type="curve" smooth="yes"/>
    </contour>
    <contour>
      <point x="465" y="446" type="curve" smooth="yes"/>
      <point x="465" y="383"/>
      <point x="429" y="349"/>
      <point x="367" y="349" type="curve" smooth="yes"/>
      <point x="267" y="349" type="line"/>
      <point x="267" y="541" type="line"/>
      <point x="367" y="541" type="line" smooth="yes"/>
      <point x="429" y="541"/>
      <point x="465" y="507"/>
    </contour>
  </outline>
</glyph>
<glyph name="Q" format="1">
  <advance width="803"/>
  <unicode hex="0051"/>
  <outline>
    <contour>
      <point x="606.0" y="-172.0" type="curve" smooth="yes"/>
      <point x="677" y="-172"/>
      <point x="761" y="-141"/>
      <point x="815" y="-94" type="curve"/>
      <point x="744.0" y="31.0" type="line"/>
      <point x="703" y="0"/>
      <point x="659" y="-19"/>
      <point x="629" y="-19" type="curve" smooth="yes"/>
      <point x="602.123320996" y="-19.0"/>
      <point x="577.884903038" y="-3.698085936"/>
      <point x="558.96774" y="20.42938" type="curve"/>
      <point x="694.270457541" y="74.5695699252"/>
      <point x="783.0" y="198.544241111"/>
      <point x="783.0" y="351.0" type="curve" smooth="yes"/>
      <point x="783" y="556"/>
      <point x="621" y="707"/>
      <point x="401" y="707" type="curve" smooth="yes"/>
      <point x="181" y="707"/>
      <point x="19" y="557"/>
      <point x="19" y="351" type="curve" smooth="yes"/>
      <point x="19.0" y="151.111355012"/>
      <point x="170.060379566" y="1.57616987932"/>
      <point x="378.53569" y="-8.45615" type="curve"/>
      <point x="418.683471411" y="-107.800951476"/>
      <point x="504.197080296" y="-172.0"/>
    </contour>
    <contour>
      <point x="569" y="350" type="curve" smooth="yes"/>
      <point x="569" y="244"/>
      <point x="495" y="165"/>
      <point x="403" y="165" type="curve" smooth="yes"/>
      <point x="311" y="165"/>
      <point x="232" y="244"/>
      <point x="232" y="350" type="curve" smooth="yes"/>
      <point x="232" y="456"/>
      <point x="310" y="533"/>
      <point x="403" y="533" type="curve" smooth="yes"/>
      <point x="495" y="533"/>
      <point x="569" y="456"/>
    </contour>
  </outline>
</glyph>
<glyph name="R" format="1">
  <advance width="725"/>
  <unicode hex="0052"/>
  <outline>
    <contour>
      <point x="359" y="0" type="move" name="blwm"/>
    </contour>
    <contour>
      <point x="369" y="701" type="move" name="abvm"/>
    </contour>
    <contour>
      <point x="484" y="446" type="curve" smooth="yes"/>
      <point x="484" y="383"/>
      <point x="449" y="349"/>
      <point x="387" y="349" type="curve" smooth="yes"/>
      <point x="267" y="349" type="line"/>
      <point x="267" y="541" type="line"/>
      <point x="387" y="541" type="line" smooth="yes"/>
      <point x="449" y="541"/>
      <point x="484" y="507"/>
    </contour>
    <contour>
      <point x="267" y="0" type="line"/>
      <point x="267" y="189.0" type="line"/>
      <point x="376.93182" y="189.0" type="line"/>
      <point x="470.0" y="0" type="line"/>
      <point x="705.0" y="0" type="line"/>
      <point x="563.64184" y="228.94819" type="line"/>
      <point x="640.308718612" y="271.889470265"/>
      <point x="682.0" y="348.240656528"/>
      <point x="682.0" y="452.0" type="curve" smooth="yes"/>
      <point x="682" y="611"/>
      <point x="574" y="701"/>
      <point x="386" y="701" type="curve" smooth="yes"/>
      <point x="59.0" y="701.0" type="line"/>
      <point x="59.0" y="0" type="line"/>
    </contour>
  </outline>
</glyph>
<glyph name="S" format="1">
  <advance width="655"/>
  <unicode hex="0053"/>
  <outline>
    <contour>
      <point x="339" y="0" type="move" name="blwm"/>
    </contour>
    <contour>
      <point x="351" y="701" type="move" name="abvm"/>
    </contour>
    <contour>
      <point x="57" y="489" type="curve" smooth="yes"/>
      <point x="57" y="242"/>
      <point x="423" y="309"/>
      <point x="423" y="203" type="curve" smooth="yes"/>
      <point x="423" y="171"/>
      <point x="395" y="156"/>
      <point x="351" y="156" type="curve" smooth="yes"/>
      <point x="280" y="156"/>
      <point x="163" y="202"/>
      <point x="91" y="263" type="curve"/>
      <point x="12" y="105" type="line"/>
      <point x="101" y="36"/>
      <point x="230" y="-6"/>
      <point x="349" y="-6" type="curve" smooth="yes"/>
      <point x="507" y="-6"/>
      <point x="638" y="65"/>
      <point x="638" y="214" type="curve" smooth="yes"/>
      <point x="638" y="467"/>
      <point x="272" y="406"/>
      <point x="272" y="509" type="curve" smooth="yes"/>
      <point x="272" y="535"/>
      <point x="295" y="547"/>
      <point x="330" y="547" type="curve" smooth="yes"/>
      <point x="389" y="547"/>
      <point x="491" y="510"/>
      <point x="563" y="469" type="curve"/>
      <point x="640" y="629" type="line"/>
      <point x="564" y="678"/>
      <point x="454" y="710"/>
      <point x="348" y="710" type="curve" smooth="yes"/>
      <point x="172" y="710"/>
      <point x="57" y="624"/>
    </contour>
  </outline>
</glyph>
<glyph name="T" format="1">
  <advance width="628"/>
  <unicode hex="0054"/>
  <outline>
    <contour>
      <point x="302" y="0" type="move" name="blwm"/>
    </contour>
    <contour>
      <point x="302" y="351" type="move" name="center"/>
    </contour>
    <contour>
      <point x="329" y="701" type="move" name="abvm"/>
    </contour>
    <contour>
      <point x="6" y="701" type="line"/>
      <point x="6" y="535" type="line"/>
      <point x="210" y="535" type="line"/>
      <point x="210" y="0" type="line"/>
      <point x="418" y="0" type="line"/>
      <point x="418" y="535" type="line"/>
      <point x="622" y="535" type="line"/>
      <point x="622" y="701" type="line"/>
    </contour>
  </outline>
</glyph>
<glyph name="U" format="1">
  <advance width="755"/>
  <unicode hex="0055"/>
  <outline>
    <contour>
      <point x="574" y="10" type="move" name="ogonek"/>
    </contour>
    <contour>
      <point x="378" y="701" type="move" name="abvm"/>
    </contour>
    <contour>
      <point x="499" y="701" type="line"/>
      <point x="499" y="296" type="line" smooth="yes"/>
      <point x="499" y="214"/>
      <point x="450" y="165"/>
      <point x="381" y="165" type="curve" smooth="yes"/>
      <point x="311" y="165"/>
      <point x="256" y="215"/>
      <point x="256" y="296" type="curve" smooth="yes"/>
      <point x="256" y="701" type="line"/>
      <point x="48" y="701" type="line"/>
      <point x="48" y="296" type="line" smooth="yes"/>
      <point x="48" y="110"/>
      <point x="179" y="-9"/>
      <point x="380" y="-9" type="curve" smooth="yes"/>
      <point x="580" y="-9"/>
      <point x="708" y="110"/>
      <point x="708" y="296" type="curve" smooth="yes"/>
      <point x="708" y="701" type="line"/>
    </contour>
  </outline>
</glyph>
<glyph name="V" format="1">
  <advance width="748"/>
  <unicode hex="0056"/>
  <outline>
    <contour>
      <point x="538" y="701" type="line"/>
      <point x="379" y="216" type="line"/>
      <point x="219" y="701" type="line"/>
      <point x="-4" y="701" type="line"/>
      <point x="265" y="0" type="line"/>
      <point x="480" y="0" type="line"/>
      <point x="751" y="701" type="line"/>
    </contour>
  </outline>
</glyph>
<glyph name="W" format="1">
  <advance width="1103"/>
  <unicode hex="0057"/>
  <outline>
    <contour>
      <point x="553" y="701" type="move" name="abvm"/>
    </contour>
    <contour>
      <point x="896" y="701" type="line"/>
      <point x="778" y="216" type="line"/>
      <point x="659" y="701" type="line"/>
      <point x="456" y="701" type="line"/>
      <point x="338" y="216" type="line"/>
      <point x="219" y="701" type="line"/>
      <point x="-4" y="701" type="line"/>
      <point x="225" y="0" type="line"/>
      <point x="439" y="0" type="line"/>
      <point x="553" y="447" type="line"/>
      <point x="665" y="0" type="line"/>
      <point x="879" y="0" type="line"/>
      <point x="1109" y="701" type="line"/>
    </contour>
  </outline>
</glyph>
<glyph name="X" format="1">
  <advance width="756"/>
  <unicode hex="0058"/>
  <outline>
    <contour>
      <point x="490" y="701" type="line"/>
      <point x="374" y="518" type="line"/>
      <point x="257" y="701" type="line"/>
      <point x="15" y="701" type="line"/>
      <point x="247" y="357" type="line"/>
      <point x="0" y="0" type="line"/>
      <point x="243" y="0" type="line"/>
      <point x="374" y="200" type="line"/>
      <point x="507" y="0" type="line"/>
      <point x="756" y="0" type="line"/>
      <point x="506" y="366" type="line"/>
      <point x="735" y="701" type="line"/>
    </contour>
  </outline>
</glyph>
<glyph name="Y" format="1">
  <advance width="702"/>
  <unicode hex="0059"/>
  <outline>
    <contour>
      <point x="351" y="701" type="move" name="abvm"/>
    </contour>
    <contour>
      <point x="457.0" y="0" type="line"/>
      <point x="457.0" y="221.4" type="line"/>
      <point x="710.0" y="701.0" type="line"/>
      <point x="502.0" y="701.0" type="line"/>
      <point x="353.0" y="415.0" type="line"/>
      <point x="200.0" y="701.0" type="line"/>
      <point x="-7.0" y="701.0" type="line"/>
      <point x="249.0" y="218.51009" type="line"/>
      <point x="249.0" y="0" type="line"/>
    </contour>
  </outline>
</glyph>
<glyph name="Z" format="1">
  <advance width="679"/>
  <unicode hex="005A"/>
  <outline>
    <contour>
      <point x="358" y="701" type="move" name="abvm"/>
    </contour>
    <contour>
      <point x="36" y="701" type="line"/>
      <point x="36" y="539" type="line"/>
      <point x="372" y="539" type="line"/>
      <point x="24" y="131" type="line"/>
      <point x="24" y="0" type="line"/>
      <point x="656" y="0" type="line"/>
      <point x="656" y="162" type="line"/>
      <point x="302" y="162" type="line"/>
      <point x="650" y="569" type="line"/>
      <point x="650" y="701" type="line"/>
    </contour>
  </outline>
</glyph>
<glyph name="bracketleft" format="1">
  <advance width="370"/>
  <unicode hex="005B"/>
  <outline>
    <contour>
      <point x="59" y="742" type="line"/>
      <point x="59" y="-124" type="line"/>
      <point x="357" y="-124" type="line"/>
      <point x="357" y="19" type="line"/>
      <point x="238" y="19" type="line"/>
      <point x="238" y="599" type="line"/>
      <point x="357" y="599" type="line"/>
      <point x="357" y="742" type="line"/>
    </contour>
  </outline>
</glyph>
<glyph name="backslash" format="1">
  <advance width="364"/>
  <unicode hex="005C"/>
  <outline>
    <contour>
      <point x="-88" y="810" type="line"/>
      <point x="239" y="-108" type="line"/>
      <point x="408" y="-108" type="line"/>
      <point x="81" y="810" type="line"/>
    </contour>
  </outline>
</glyph>
<glyph name="bracketright" format="1">
  <advance width="455"/>
  <unicode hex="005D"/>
  <outline>
    <contour>
      <point x="98" y="742" type="line"/>
      <point x="98" y="599" type="line"/>
      <point x="217" y="599" type="line"/>
      <point x="217" y="19" type="line"/>
      <point x="98" y="19" type="line"/>
      <point x="98" y="-124" type="line"/>
      <point x="396" y="-124" type="line"/>
      <point x="396" y="742" type="line"/>
    </contour>
  </outline>
</glyph>
<glyph name="asciicircum" format="1">
  <advance width="593"/>
  <unicode hex="005E"/>
  <outline>
    <contour>
      <point x="377" y="524" type="line"/>
      <point x="216" y="524" type="line"/>
      <point x="31" y="141" type="line"/>
      <point x="172" y="141" type="line"/>
      <point x="297" y="414" type="line"/>
      <point x="421" y="141" type="line"/>
      <point x="562" y="141" type="line"/>
    </contour>
  </outline>
</glyph>
<glyph name="underscore" format="1">
  <advance width="592"/>
  <unicode hex="005F"/>
  <outline>
    <contour>
      <point x="0" y="-99" type="line"/>
      <point x="0" y="-204" type="line"/>
      <point x="592" y="-204" type="line"/>
      <point x="592" y="-99" type="line"/>
    </contour>
  </outline>
</glyph>
<glyph name="grave" format="1">
  <advance width="350"/>
  <unicode hex="0060"/>
  <outline>
    <contour>
      <point x="213" y="544" type="move" name="_abvm"/>
    </contour>
    <contour>
      <point x="33" y="717" type="line"/>
      <point x="167" y="595" type="line"/>
      <point x="315" y="595" type="line"/>
      <point x="208" y="775" type="line"/>
    </contour>
  </outline>
</glyph>
<glyph name="a" format="1">
  <advance width="607"/>
  <unicode hex="0061"/>
  <outline>
    <contour>
      <point x="584" y="10" type="move" name="ogonek"/>
    </contour>
    <contour>
      <point x="304" y="544" type="move" name="abvm"/>
    </contour>
    <contour>
      <point x="271" y="123" type="curve" smooth="yes"/>
      <point x="232" y="123"/>
      <point x="209" y="143"/>
      <point x="209" y="177" type="curve" smooth="yes"/>
      <point x="209" y="211"/>
      <point x="230" y="228"/>
      <point x="270" y="228" type="curve" smooth="yes"/>
      <point x="362.0" y="228.0" type="line"/>
      <point x="362.0" y="179.0" type="line"/>
      <point x="348" y="145"/>
      <point x="311" y="123"/>
    </contour>
    <contour>
      <point x="362.0" y="0" type="line"/>
      <point x="561" y="0" type="line"/>
      <point x="561" y="353.0" type="line" smooth="yes"/>
      <point x="560" y="479"/>
      <point x="470" y="552"/>
      <point x="316" y="552" type="curve" smooth="yes"/>
      <point x="231" y="552"/>
      <point x="144" y="532"/>
      <point x="55" y="496" type="curve"/>
      <point x="104.0" y="362.0" type="line"/>
      <point x="164" y="388"/>
      <point x="225" y="401"/>
      <point x="268" y="401" type="curve" smooth="yes"/>
      <point x="330" y="401"/>
      <point x="362" y="374"/>
      <point x="362" y="329" type="curve"/>
      <point x="362.0" y="327" type="line"/>
      <point x="230.0" y="327" type="line" smooth="yes"/>
      <point x="93" y="325"/>
      <point x="20" y="267"/>
      <point x="20" y="162" type="curve" smooth="yes"/>
      <point x="20" y="60"/>
      <point x="88" y="-9"/>
      <point x="204" y="-9" type="curve" smooth="yes"/>
      <point x="274.776798292" y="-9.0"/>
      <point x="328.178101695" y="15.3256928446"/>
      <point x="362.0" y="59.59946" type="curve"/>
    </contour>
  </outline>
</glyph>
<glyph name="b" format="1">
  <advance width="688"/>
  <unicode hex="0062"/>
  <outline>
    <contour>
      <point x="422.0" y="-7.0" type="curve" smooth="yes"/>
      <point x="571" y="-7"/>
      <point x="668" y="102"/>
      <point x="668" y="269" type="curve" smooth="yes"/>
      <point x="668" y="439"/>
      <point x="568" y="551"/>
      <point x="417" y="551" type="curve" smooth="yes"/>
      <point x="355.31557276" y="551.0"/>
      <point x="304.438156826" y="526.233932424"/>
      <point x="268" y="481.91585" type="curve"/>
      <point x="268" y="742.0" type="line"/>
      <point x="66" y="742.0" type="line"/>
      <point x="66" y="0" type="line"/>
      <point x="268" y="0" type="line"/>
      <point x="268" y="62.73145" type="line"/>
      <point x="305.403794882" y="17.9807669762"/>
      <point x="358.034964192" y="-7.0"/>
    </contour>
    <contour>
      <point x="465" y="274" type="curve" smooth="yes"/>
      <point x="465" y="202"/>
      <point x="425" y="153"/>
      <point x="366" y="153" type="curve" smooth="yes"/>
      <point x="307" y="153"/>
      <point x="268" y="202"/>
      <point x="268" y="274" type="curve" smooth="yes"/>
      <point x="268" y="346"/>
      <point x="307" y="395"/>
      <point x="366" y="395" type="curve" smooth="yes"/>
      <point x="425" y="395"/>
      <point x="465" y="346"/>
    </contour>
  </outline>
</glyph>
<glyph name="c" format="1">
  <advance width="562"/>
  <unicode hex="0063"/>
  <outline>
    <contour>
      <point x="290" y="0" type="move" name="blwm"/>
    </contour>
    <contour>
      <point x="296" y="544" type="move" name="abvm"/>
    </contour>
    <contour>
      <point x="19" y="270" type="curve" smooth="yes"/>
      <point x="19" y="103"/>
      <point x="131" y="-7"/>
      <point x="302" y="-7" type="curve" smooth="yes"/>
      <point x="422" y="-7"/>
      <point x="514" y="44"/>
      <point x="556" y="134" type="curve"/>
      <point x="398" y="213" type="line"/>
      <point x="381" y="172"/>
      <point x="352" y="153"/>
      <point x="313" y="153" type="curve" smooth="yes"/>
      <point x="258" y="153"/>
      <point x="223" y="200"/>
      <point x="223" y="271" type="curve" smooth="yes"/>
      <point x="223" y="340"/>
      <point x="258" y="387"/>
      <point x="313" y="387" type="curve" smooth="yes"/>
      <point x="351" y="387"/>
      <point x="381" y="367"/>
      <point x="400" y="333" type="curve"/>
      <point x="554" y="409" type="line"/>
      <point x="509" y="499"/>
      <point x="418" y="551"/>
      <point x="304" y="551" type="curve" smooth="yes"/>
      <point x="132" y="551"/>
      <point x="19" y="439"/>
    </contour>
  </outline>
</glyph>
<glyph name="d" format="1">
  <advance width="688"/>
  <unicode hex="0064"/>
  <outline>
    <contour>
      <point x="-16" y="0" type="move" name="center"/>
    </contour>
    <contour>
      <point x="420" y="270" type="curve" smooth="yes"/>
      <point x="420" y="197"/>
      <point x="381" y="148"/>
      <point x="322" y="148" type="curve" smooth="yes"/>
      <point x="262" y="148"/>
      <point x="223" y="197"/>
      <point x="223" y="270" type="curve" smooth="yes"/>
      <point x="223" y="342"/>
      <point x="263" y="391"/>
      <point x="322" y="391" type="curve" smooth="yes"/>
      <point x="381" y="391"/>
      <point x="420" y="342"/>
    </contour>
    <contour>
      <point x="420.0" y="0" type="line"/>
      <point x="622" y="0" type="line"/>
      <point x="622" y="742.0" type="line"/>
      <point x="420.0" y="742.0" type="line"/>
      <point x="420.0" y="480.66368" type="line"/>
      <point x="382.566423348" y="525.795716052"/>
      <point x="329.767477163" y="551.0"/>
      <point x="266.0" y="551.0" type="curve" smooth="yes"/>
      <point x="116" y="551"/>
      <point x="19" y="442"/>
      <point x="19" y="275" type="curve" smooth="yes"/>
      <point x="19" y="104"/>
      <point x="119" y="-7"/>
      <point x="271" y="-7" type="curve" smooth="yes"/>
      <point x="332.744911188" y="-7.0"/>
      <point x="383.661607301" y="17.8146595464"/>
      <point x="420.0" y="62.21486" type="curve"/>
    </contour>
  </outline>
</glyph>
<glyph name="e" format="1">
  <advance width="609"/>
  <unicode hex="0065"/>
  <outline>
    <contour>
      <point x="306" y="0" type="move" name="blwm"/>
    </contour>
    <contour>
      <point x="547" y="10" type="move" name="ogonek"/>
    </contour>
    <contour>
      <point x="302" y="544" type="move" name="abvm"/>
    </contour>
    <contour>
      <point x="308.0" y="414.0" type="curve" smooth="yes"/>
      <point x="357" y="414"/>
      <point x="391" y="376"/>
      <point x="390" y="322" type="curve"/>
      <point x="218.55589" y="322" type="line"/>
      <point x="228.562373644" y="376.659990957"/>
      <point x="259.43750047" y="414.0"/>
    </contour>
    <contour>
      <point x="554" y="91" type="curve"/>
      <point x="448.0" y="194.0" type="line"/>
      <point x="413" y="161"/>
      <point x="371" y="142"/>
      <point x="329" y="142" type="curve" smooth="yes"/>
      <point x="276.983316616" y="142.0"/>
      <point x="238.606130901" y="170.983932549"/>
      <point x="222.86549" y="223.0" type="curve"/>
      <point x="588" y="223.0" type="line"/>
      <point x="601" y="423"/>
      <point x="496" y="551"/>
      <point x="306" y="551" type="curve" smooth="yes"/>
      <point x="134" y="551"/>
      <point x="19" y="440"/>
      <point x="19" y="270" type="curve" smooth="yes"/>
      <point x="19" y="103"/>
      <point x="129" y="-7"/>
      <point x="311" y="-7" type="curve" smooth="yes"/>
      <point x="415" y="-7"/>
      <point x="497" y="28"/>
    </contour>
  </outline>
</glyph>
<glyph name="f" format="1">
  <advance width="409"/>
  <unicode hex="0066"/>
  <outline>
    <contour>
      <point x="412.0" y="387.0" type="line"/>
      <point x="412.0" y="516" type="line"/>
      <point x="299" y="516" type="line"/>
      <point x="299" y="542" type="line"/>
      <point x="299" y="575"/>
      <point x="322" y="594"/>
      <point x="355" y="594" type="curve"/>
      <point x="373" y="594"/>
      <point x="396" y="586"/>
      <point x="414" y="573" type="curve"/>
      <point x="482.0" y="712.0" type="line"/>
      <point x="439" y="737"/>
      <point x="374" y="751"/>
      <point x="316" y="751" type="curve"/>
      <point x="187" y="752"/>
      <point x="98" y="682"/>
      <point x="98" y="566" type="curve" smooth="yes"/>
      <point x="98.0" y="516" type="line"/>
      <point x="24.0" y="516" type="line"/>
      <point x="24.0" y="387.0" type="line"/>
      <point x="98.0" y="387.0" type="line"/>
      <point x="98.0" y="0" type="line"/>
      <point x="299" y="0" type="line"/>
      <point x="299" y="387.0" type="line"/>
    </contour>
  </outline>
</glyph>
<glyph name="g" format="1">
  <advance width="651"/>
  <unicode hex="0067"/>
  <outline>
    <contour>
      <point x="326" y="544" type="move" name="abvm"/>
    </contour>
    <contour>
      <point x="301.0" y="176.0" type="curve" smooth="yes"/>
      <point x="245" y="176"/>
      <point x="208" y="221"/>
      <point x="208" y="288" type="curve" smooth="yes"/>
      <point x="208" y="356"/>
      <point x="245" y="402"/>
      <point x="301" y="402" type="curve" smooth="yes"/>
      <point x="350.736339455" y="402.0"/>
      <point x="385.753121117" y="365.201105518"/>
      <point x="392.0" y="307.08625" type="curve"/>
      <point x="392.0" y="269.46723" type="line"/>
      <point x="385.753121117" y="212.798894482"/>
      <point x="350.736339455" y="176.0"/>
    </contour>
    <contour>
      <point x="293" y="-203" type="curve" smooth="yes"/>
      <point x="471" y="-203"/>
      <point x="593" y="-106"/>
      <point x="593" y="47" type="curve" smooth="yes"/>
      <point x="593" y="544" type="line"/>
      <point x="392.0" y="544" type="line"/>
      <point x="392.0" y="485.74194" type="line"/>
      <point x="356.641252757" y="527.580350369"/>
      <point x="306.081324795" y="551.0"/>
      <point x="243.0" y="551.0" type="curve" smooth="yes"/>
      <point x="112" y="551"/>
      <point x="19" y="449"/>
      <point x="19" y="294" type="curve" smooth="yes"/>
      <point x="19" y="135"/>
      <point x="115" y="31"/>
      <point x="247" y="31" type="curve" smooth="yes"/>
      <point x="308.565736683" y="31.0"/>
      <point x="357.571767079" y="53.8766078818"/>
      <point x="392.0" y="94.97982" type="curve"/>
      <point x="392.0" y="41" type="line" smooth="yes"/>
      <point x="392" y="-12"/>
      <point x="350" y="-46"/>
      <point x="276" y="-46" type="curve" smooth="yes"/>
      <point x="221" y="-46"/>
      <point x="158" y="-28"/>
      <point x="109" y="4" type="curve"/>
      <point x="43" y="-132" type="line"/>
      <point x="102" y="-171"/>
      <point x="193" y="-203"/>
    </contour>
  </outline>
</glyph>
<glyph name="h" format="1">
  <advance width="683"/>
  <unicode hex="0068"/>
  <outline>
    <contour>
      <point x="667" y="0" type="move" name="blwm"/>
    </contour>
    <contour>
      <point x="338" y="272" type="move" name="center"/>
    </contour>
    <contour>
      <point x="162" y="742" type="move" name="abvm"/>
    </contour>
    <contour>
      <point x="304" y="544" type="move" name="topright"/>
    </contour>
    <contour>
      <point x="268" y="269" type="line"/>
      <point x="268" y="331"/>
      <point x="302" y="374"/>
      <point x="357" y="375" type="curve" smooth="yes"/>
      <point x="405" y="375"/>
      <point x="435" y="341"/>
      <point x="435" y="287" type="curve" smooth="yes"/>
      <point x="435.0" y="0" type="line"/>
      <point x="637" y="0" type="line"/>
      <point x="637" y="345" type="line" smooth="yes"/>
      <point x="637" y="471"/>
      <point x="558" y="552"/>
      <point x="441" y="552" type="curve" smooth="yes"/>
      <point x="364.738498503" y="552.0"/>
      <point x="305.519456039" y="519.774259284"/>
      <point x="268" y="460.29969" type="curve"/>
      <point x="268" y="742.0" type="line"/>
      <point x="66" y="742.0" type="line"/>
      <point x="66" y="0" type="line"/>
      <point x="268" y="0" type="line"/>
    </contour>
  </outline>
</glyph>
<glyph name="i" format="1">
  <advance width="324"/>
  <unicode hex="0069"/>
  <outline>
    <contour>
      <point x="163" y="544" type="move" name="_abvm"/>
    </contour>
    <contour>
      <point x="282" y="10" type="move" name="ogonek"/>
    </contour>
    <contour>
      <point x="163" y="544" type="move" name="abvm"/>
    </contour>
    <contour>
      <point x="59" y="699" type="curve" smooth="yes"/>
      <point x="59" y="638"/>
      <point x="102" y="595"/>
      <point x="163" y="595" type="curve" smooth="yes"/>
      <point x="224" y="595"/>
      <point x="267" y="638"/>
      <point x="267" y="699" type="curve" smooth="yes"/>
      <point x="267" y="760"/>
      <point x="224" y="803"/>
      <point x="163" y="803" type="curve" smooth="yes"/>
      <point x="102" y="803"/>
      <point x="59" y="760"/>
    </contour>
    <contour>
      <point x="61" y="544" type="line"/>
      <point x="61" y="0" type="line"/>
      <point x="263" y="0" type="line"/>
      <point x="263" y="544" type="line"/>
    </contour>
  </outline>
</glyph>
<glyph name="j" format="1">
  <advance width="335"/>
  <unicode hex="006A"/>
  <outline>
    <contour>
      <point x="54" y="699" type="curve" smooth="yes"/>
      <point x="54" y="638"/>
      <point x="101" y="595"/>
      <point x="166" y="595" type="curve" smooth="yes"/>
      <point x="232" y="595"/>
      <point x="278" y="638"/>
      <point x="278" y="699" type="curve" smooth="yes"/>
      <point x="278" y="760"/>
      <point x="232" y="803"/>
      <point x="166" y="803" type="curve" smooth="yes"/>
      <point x="101" y="803"/>
      <point x="54" y="760"/>
    </contour>
    <contour>
      <point x="65" y="544" type="line"/>
      <point x="65" y="7" type="line"/>
      <point x="65" y="-28"/>
      <point x="46" y="-45"/>
      <point x="17" y="-45" type="curve"/>
      <point x="-2" y="-45"/>
      <point x="-21" y="-39"/>
      <point x="-41" y="-28" type="curve"/>
      <point x="-88" y="-168" type="line"/>
      <point x="-48" y="-190"/>
      <point x="3" y="-202"/>
      <point x="59" y="-202" type="curve"/>
      <point x="181" y="-203"/>
      <point x="267" y="-134"/>
      <point x="267" y="-17" type="curve"/>
      <point x="267" y="544" type="line"/>
    </contour>
  </outline>
</glyph>
<glyph name="k" format="1">
  <advance width="648"/>
  <unicode hex="006B"/>
  <outline>
    <contour>
      <point x="139" y="0" type="move" name="blwm"/>
    </contour>
    <contour>
      <point x="168" y="742" type="move" name="abvm"/>
    </contour>
    <contour>
      <point x="305" y="544" type="move" name="topright"/>
    </contour>
    <contour>
      <point x="407.0" y="0" type="line"/>
      <point x="647" y="0" type="line"/>
      <point x="447.01575" y="334.24598" type="line"/>
      <point x="646" y="544" type="line"/>
      <point x="417.0" y="544" type="line"/>
      <point x="268" y="380.9434" type="line"/>
      <point x="268" y="742.0" type="line"/>
      <point x="66" y="742.0" type="line"/>
      <point x="66" y="0" type="line"/>
      <point x="268" y="0" type="line"/>
      <point x="268" y="145.54124" type="line"/>
      <point x="308.73316" y="188.47902" type="line"/>
    </contour>
  </outline>
</glyph>
<glyph name="l" format="1">
  <advance width="335"/>
  <unicode hex="006C"/>
  <outline>
    <contour>
      <point x="168" y="0" type="move" name="blwm"/>
    </contour>
    <contour>
      <point x="168" y="742" type="move" name="abvm"/>
    </contour>
    <contour>
      <point x="305" y="544" type="move" name="topright"/>
    </contour>
    <contour>
      <point x="66" y="742" type="line"/>
      <point x="66" y="0" type="line"/>
      <point x="268" y="0" type="line"/>
      <point x="268" y="742" type="line"/>
    </contour>
  </outline>
</glyph>
<glyph name="m" format="1">
  <advance width="1034"/>
  <unicode hex="006D"/>
  <outline>
    <contour>
      <point x="263" y="269" type="line"/>
      <point x="263" y="331"/>
      <point x="296" y="374"/>
      <point x="349" y="375" type="curve" smooth="yes"/>
      <point x="394" y="375"/>
      <point x="424" y="341"/>
      <point x="424" y="287" type="curve" smooth="yes"/>
      <point x="424.0" y="0" type="line"/>
      <point x="626" y="0" type="line"/>
      <point x="626" y="287.11492" type="line"/>
      <point x="631.882498715" y="339.271366645"/>
      <point x="663.362442294" y="374.101178156"/>
      <point x="711.0" y="375.0" type="curve" smooth="yes"/>
      <point x="756" y="375"/>
      <point x="786" y="341"/>
      <point x="786" y="287" type="curve" smooth="yes"/>
      <point x="786.0" y="0" type="line"/>
      <point x="988.0" y="0" type="line"/>
      <point x="988.0" y="345" type="line" smooth="yes"/>
      <point x="988" y="471"/>
      <point x="909" y="552"/>
      <point x="795" y="552" type="curve" smooth="yes"/>
      <point x="709.559417979" y="552.0"/>
      <point x="645.74874131" y="510.342404509"/>
      <point x="610.41268" y="434.37481" type="curve"/>
      <point x="582.033192612" y="507.997823561"/>
      <point x="517.023239364" y="552.0"/>
      <point x="433.0" y="552.0" type="curve" smooth="yes"/>
      <point x="358.249522776" y="552.0"/>
      <point x="300.054997686" y="520.114462557"/>
      <point x="263" y="461.26294" type="curve"/>
      <point x="263" y="544" type="line"/>
      <point x="61.0" y="544" type="line"/>
      <point x="61.0" y="0" type="line"/>
      <point x="263" y="0" type="line"/>
    </contour>
  </outline>
</glyph>
<glyph name="n" format="1">
  <advance width="678"/>
  <unicode hex="006E"/>
  <outline>
    <contour>
      <point x="345" y="0" type="move" name="blwm"/>
    </contour>
    <contour>
      <point x="357" y="544" type="move" name="abvm"/>
    </contour>
    <contour>
      <point x="263" y="269" type="line"/>
      <point x="263" y="331"/>
      <point x="297" y="374"/>
      <point x="352" y="375" type="curve" smooth="yes"/>
      <point x="400" y="375"/>
      <point x="430" y="341"/>
      <point x="430" y="287" type="curve" smooth="yes"/>
      <point x="430.0" y="0" type="line"/>
      <point x="632" y="0" type="line"/>
      <point x="632" y="345" type="line" smooth="yes"/>
      <point x="632" y="471"/>
      <point x="553" y="552"/>
      <point x="436" y="552" type="curve" smooth="yes"/>
      <point x="359.738498503" y="552.0"/>
      <point x="300.519456039" y="519.774259284"/>
      <point x="263" y="460.29969" type="curve"/>
      <point x="263" y="544" type="line"/>
      <point x="61.0" y="544" type="line"/>
      <point x="61.0" y="0" type="line"/>
      <point x="263" y="0" type="line"/>
    </contour>
  </outline>
</glyph>
<glyph name="o" format="1">
  <advance width="643"/>
  <unicode hex="006F"/>
  <outline>
    <contour>
      <point x="322" y="544" type="move" name="abvm"/>
    </contour>
    <contour>
      <point x="19" y="272" type="curve" smooth="yes"/>
      <point x="19" y="104"/>
      <point x="138" y="-7"/>
      <point x="321" y="-7" type="curve" smooth="yes"/>
      <point x="504" y="-7"/>
      <point x="624" y="104"/>
      <point x="624" y="272" type="curve" smooth="yes"/>
      <point x="624" y="441"/>
      <point x="504" y="551"/>
      <point x="321" y="551" type="curve" smooth="yes"/>
      <point x="138" y="551"/>
      <point x="19" y="441"/>
    </contour>
    <contour>
      <point x="421" y="270" type="curve" smooth="yes"/>
      <point x="421" y="197"/>
      <point x="381" y="149"/>
      <point x="322" y="149" type="curve" smooth="yes"/>
      <point x="262" y="149"/>
      <point x="223" y="197"/>
      <point x="223" y="270" type="curve" smooth="yes"/>
      <point x="223" y="342"/>
      <point x="262" y="391"/>
      <point x="322" y="391" type="curve" smooth="yes"/>
      <point x="381" y="391"/>
      <point x="421" y="342"/>
    </contour>
  </outline>
</glyph>
<glyph name="r" format="1">
  <advance width="444"/>
  <unicode hex="0072"/>
  <outline>
    <contour>
      <point x="157" y="0" type="move" name="blwm"/>
    </contour>
    <contour>
      <point x="236" y="544" type="move" name="abvm"/>
    </contour>
    <contour>
      <point x="263" y="260" type="line"/>
      <point x="263" y="339"/>
      <point x="330" y="383"/>
      <point x="434" y="370" type="curve"/>
      <point x="434.0" y="552" type="line"/>
      <point x="359.648125236" y="552.0"/>
      <point x="300.609827427" y="518.247626302"/>
      <point x="263" y="457.8848" type="curve"/>
      <point x="263" y="544" type="line"/>
      <point x="61.0" y="544" type="line"/>
      <point x="61.0" y="0" type="line"/>
      <point x="263" y="0" type="line"/>
    </contour>
  </outline>
</glyph>
<glyph name="s" format="1">
  <advance width="535"/>
  <unicode hex="0073"/>
  <outline>
    <contour>
      <point x="266" y="0" type="move" name="blwm"/>
    </contour>
    <contour>
      <point x="279" y="544" type="move" name="abvm"/>
    </contour>
    <contour>
      <point x="40" y="371" type="curve" smooth="yes"/>
      <point x="40" y="185"/>
      <point x="318" y="215"/>
      <point x="318" y="153" type="curve" smooth="yes"/>
      <point x="318" y="136"/>
      <point x="300" y="128"/>
      <point x="273" y="128" type="curve" smooth="yes"/>
      <point x="213" y="128"/>
      <point x="144" y="151"/>
      <point x="76" y="195" type="curve"/>
      <point x="14" y="68" type="line"/>
      <point x="85" y="17"/>
      <point x="174" y="-9"/>
      <point x="270" y="-9" type="curve" smooth="yes"/>
      <point x="412" y="-9"/>
      <point x="509" y="59"/>
      <point x="509" y="171" type="curve" smooth="yes"/>
      <point x="509" y="357"/>
      <point x="225" y="330"/>
      <point x="225" y="391" type="curve" smooth="yes"/>
      <point x="225" y="408"/>
      <point x="241" y="417"/>
      <point x="266" y="417" type="curve" smooth="yes"/>
      <point x="309" y="417"/>
      <point x="370" y="398"/>
      <point x="444" y="360" type="curve"/>
      <point x="512" y="487" type="line"/>
      <point x="437" y="530"/>
      <point x="355" y="553"/>
      <point x="272" y="553" type="curve" smooth="yes"/>
      <point x="135" y="553"/>
      <point x="40" y="485"/>
    </contour>
  </outline>
</glyph>
<glyph name="u" format="1">
  <advance width="668"/>
  <unicode hex="0075"/>
  <outline>
    <contour>
      <point x="619" y="10" type="move" name="ogonek"/>
    </contour>
    <contour>
      <point x="329" y="544" type="move" name="abvm"/>
    </contour>
    <contour>
      <point x="405.0" y="0" type="line"/>
      <point x="607" y="0" type="line"/>
      <point x="607" y="544" type="line"/>
      <point x="405.0" y="544" type="line"/>
      <point x="405.0" y="275" type="line"/>
      <point x="405" y="213"/>
      <point x="373" y="170"/>
      <point x="321" y="169" type="curve" smooth="yes"/>
      <point x="277" y="169"/>
      <point x="248" y="203"/>
      <point x="248" y="256" type="curve" smooth="yes"/>
      <point x="248.0" y="544" type="line"/>
      <point x="46.0" y="544" type="line"/>
      <point x="46.0" y="199.0" type="line" smooth="yes"/>
      <point x="46" y="72"/>
      <point x="124" y="-9"/>
      <point x="238" y="-9" type="curve" smooth="yes"/>
      <point x="311.243104337" y="-9.0"/>
      <point x="368.4128708" y="22.8434052208"/>
      <point x="405.0" y="81.37811" type="curve"/>
    </contour>
  </outline>
</glyph>
<glyph name="v" format="1">
  <advance width="594"/>
  <unicode hex="0076"/>
  <outline>
    <contour>
      <point x="401" y="544" type="line"/>
      <point x="300" y="184" type="line"/>
      <point x="200" y="544" type="line"/>
      <point x="-7" y="544" type="line"/>
      <point x="194" y="0" type="line"/>
      <point x="400" y="0" type="line"/>
      <point x="603" y="544" type="line"/>
    </contour>
  </outline>
</glyph>
<glyph name="w" format="1">
  <advance width="959"/>
  <unicode hex="0077"/>
  <outline>
    <contour>
      <point x="480" y="544" type="move" name="abvm"/>
    </contour>
    <contour>
      <point x="773" y="544" type="line"/>
      <point x="676" y="197" type="line"/>
      <point x="579" y="544" type="line"/>
      <point x="390" y="544" type="line"/>
      <point x="295" y="197" type="line"/>
      <point x="198" y="544" type="line"/>
      <point x="-7" y="544" type="line"/>
      <point x="190" y="0" type="line"/>
      <point x="389" y="0" type="line"/>
      <point x="481" y="312" type="line"/>
      <point x="571" y="0" type="line"/>
      <point x="770" y="0" type="line"/>
      <point x="969" y="544" type="line"/>
    </contour>
  </outline>
</glyph>
<glyph name="x" format="1">
  <advance width="633"/>
  <unicode hex="0078"/>
  <outline>
    <contour>
      <point x="10" y="544" type="line"/>
      <point x="181" y="278" type="line"/>
      <point x="-1" y="0" type="line"/>
      <point x="221" y="0" type="line"/>
      <point x="317" y="154" type="line"/>
      <point x="401" y="0" type="line"/>
      <point x="633" y="0" type="line"/>
      <point x="451" y="279" type="line"/>
      <point x="621" y="544" type="line"/>
      <point x="401" y="544" type="line"/>
      <point x="317" y="403" type="line"/>
      <point x="242" y="544" type="line"/>
    </contour>
  </outline>
</glyph>
<glyph name="y" format="1">
  <advance width="605"/>
  <unicode hex="0079"/>
  <outline>
    <contour>
      <point x="303" y="544" type="move" name="abvm"/>
    </contour>
    <contour>
      <point x="412" y="544" type="line"/>
      <point x="311" y="211" type="line"/>
      <point x="192" y="544" type="line"/>
      <point x="-16" y="544" type="line"/>
      <point x="210" y="15" type="line"/>
      <point x="200" y="-4" type="line" smooth="yes"/>
      <point x="187" y="-28"/>
      <point x="168" y="-39"/>
      <point x="140" y="-39" type="curve" smooth="yes"/>
      <point x="114" y="-39"/>
      <point x="92" y="-30"/>
      <point x="68" y="-8" type="curve"/>
      <point x="-16" y="-143" type="line"/>
      <point x="38" y="-184"/>
      <point x="92" y="-203"/>
      <point x="159" y="-203" type="curve" smooth="yes"/>
      <point x="268" y="-203"/>
      <point x="341" y="-153"/>
      <point x="385" y="-46" type="curve" smooth="yes"/>
      <point x="613" y="544" type="line"/>
    </contour>
  </outline>
</glyph>
<glyph name="z" format="1">
  <advance width="561"/>
  <unicode hex="007A"/>
  <outline>
    <contour>
      <point x="281" y="544" type="move" name="abvm"/>
    </contour>
    <contour>
      <point x="39" y="544" type="line"/>
      <point x="39" y="392" type="line"/>
      <point x="273" y="392" type="line"/>
      <point x="29" y="119" type="line"/>
      <point x="29" y="0" type="line"/>
      <point x="537" y="0" type="line"/>
      <point x="537" y="151" type="line"/>
      <point x="283" y="151" type="line"/>
      <point x="527" y="424" type="line"/>
      <point x="527" y="544" type="line"/>
    </contour>
  </outline>
</glyph>
<glyph name="braceleft" format="1">
  <advance width="371"/>
  <unicode hex="007B"/>
  <outline>
    <contour>
      <point x="357.0" y="-126.0" type="line"/>
      <point x="357.0" y="17" type="line"/>
      <point x="290" y="17"/>
      <point x="273" y="33"/>
      <point x="273" y="79" type="curve" smooth="yes"/>
      <point x="273" y="183.0" type="line" smooth="yes"/>
      <point x="273.0" y="257.913081862"/>
      <point x="250.136419194" y="294.027359933"/>
      <point x="181.91819" y="309.20169" type="curve"/>
      <point x="250.136419194" y="324.944539437"/>
      <point x="273.0" y="360.919285714"/>
      <point x="273.0" y="435.0" type="curve" smooth="yes"/>
      <point x="273" y="539" type="line" smooth="yes"/>
      <point x="273" y="584"/>
      <point x="290" y="601"/>
      <point x="357" y="601" type="curve"/>
      <point x="357.0" y="744.0" type="line"/>
      <point x="278" y="744.0" type="line" smooth="yes"/>
      <point x="140" y="744"/>
      <point x="94" y="707"/>
      <point x="94" y="598" type="curve" smooth="yes"/>
      <point x="94.0" y="422.0" type="line" smooth="yes"/>
      <point x="94" y="393"/>
      <point x="84" y="382"/>
      <point x="60" y="382" type="curve" smooth="yes"/>
      <point x="18" y="382.0" type="line"/>
      <point x="18" y="235.0" type="line"/>
      <point x="60.0" y="235.0" type="line" smooth="yes"/>
      <point x="84" y="235"/>
      <point x="94" y="226"/>
      <point x="94" y="195" type="curve" smooth="yes"/>
      <point x="94.0" y="19" type="line" smooth="yes"/>
      <point x="94" y="-89"/>
      <point x="140" y="-126"/>
      <point x="278" y="-126" type="curve" smooth="yes"/>
    </contour>
  </outline>
</glyph>
<glyph name="bar" format="1">
  <advance width="314"/>
  <unicode hex="007C"/>
  <outline>
    <contour>
      <point x="82" y="799" type="line"/>
      <point x="82" y="-106" type="line"/>
      <point x="232" y="-106" type="line"/>
      <point x="232" y="799" type="line"/>
    </contour>
  </outline>
</glyph>
<glyph name="braceright" format="1">
  <advance width="389"/>
  <unicode hex="007D"/>
  <outline>
    <contour>
      <point x="63.0" y="-126.0" type="line"/>
      <point x="142" y="-126.0" type="line" smooth="yes"/>
      <point x="280" y="-126"/>
      <point x="326" y="-89"/>
      <point x="326" y="19" type="curve" smooth="yes"/>
      <point x="326" y="195.0" type="line" smooth="yes"/>
      <point x="326" y="226"/>
      <point x="336" y="235"/>
      <point x="360" y="235" type="curve" smooth="yes"/>
      <point x="402.0" y="235.0" type="line"/>
      <point x="402.0" y="382.0" type="line"/>
      <point x="360.0" y="382.0" type="line"/>
      <point x="336" y="382"/>
      <point x="326" y="393"/>
      <point x="326" y="422" type="curve" smooth="yes"/>
      <point x="326" y="598" type="line" smooth="yes"/>
      <point x="326" y="707"/>
      <point x="280" y="744"/>
      <point x="142" y="744" type="curve" smooth="yes"/>
      <point x="63.0" y="744.0" type="line"/>
      <point x="63.0" y="601" type="line"/>
      <point x="130" y="601"/>
      <point x="147" y="584"/>
      <point x="147" y="539" type="curve" smooth="yes"/>
      <point x="147" y="435.0" type="line" smooth="yes"/>
      <point x="147.0" y="360.919285714"/>
      <point x="169.863580806" y="324.944539437"/>
      <point x="238.08181" y="309.20169" type="curve"/>
      <point x="169.863580806" y="294.027359933"/>
      <point x="147.0" y="257.913081862"/>
      <point x="147.0" y="183.0" type="curve" smooth="yes"/>
      <point x="147" y="79" type="line" smooth="yes"/>
      <point x="147" y="33"/>
      <point x="130" y="17"/>
      <point x="63" y="17" type="curve"/>
    </contour>
  </outline>
</glyph>
<glyph name="asciitilde" format="1">
  <advance width="515"/>
  <unicode hex="007E"/>
  <outline>
    <contour>
      <point x="51" y="235" type="curve"/>
      <point x="185" y="235" type="line"/>
      <point x="185" y="264"/>
      <point x="195" y="278"/>
      <point x="214" y="278" type="curve"/>
      <point x="243" y="278"/>
      <point x="275" y="231"/>
      <point x="344" y="231" type="curve"/>
      <point x="426" y="231"/>
      <point x="464" y="291"/>
      <point x="464" y="418" type="curve"/>
      <point x="331" y="418" type="line"/>
      <point x="331" y="389"/>
      <point x="322" y="375"/>
      <point x="302" y="375" type="curve"/>
      <point x="273" y="375"/>
      <point x="240" y="422"/>
      <point x="172" y="422" type="curve"/>
      <point x="90" y="422"/>
      <point x="51" y="362"/>
    </contour>
  </outline>
</glyph>
<glyph name="exclamdown" format="1">
  <advance width="282"/>
  <unicode hex="00A1"/>
  <outline>
    <contour>
      <point x="238" y="460" type="curve" smooth="yes"/>
      <point x="238" y="514"/>
      <point x="199" y="551"/>
      <point x="145" y="551" type="curve" smooth="yes"/>
      <point x="88" y="551"/>
      <point x="50" y="514"/>
      <point x="50" y="460" type="curve" smooth="yes"/>
      <point x="50" y="407"/>
      <point x="88" y="369"/>
      <point x="145" y="369" type="curve" smooth="yes"/>
      <point x="199" y="369"/>
      <point x="238" y="407"/>
    </contour>
    <contour>
      <point x="236" y="-156" type="line"/>
      <point x="236" y="25" type="line"/>
      <point x="200" y="296" type="line"/>
      <point x="80" y="296" type="line"/>
      <point x="44" y="25" type="line"/>
      <point x="44" y="-156" type="line"/>
    </contour>
  </outline>
</glyph>
<glyph name="cent" format="1">
  <advance width="560"/>
  <unicode hex="00A2"/>
  <note>
    cent
  </note>
  <outline>
    <contour>
      <point x="399" y="213" type="line"/>
      <point x="382" y="172"/>
      <point x="352" y="153"/>
      <point x="313" y="153" type="curve" smooth="yes"/>
      <point x="259" y="153"/>
      <point x="223" y="200"/>
      <point x="223" y="271" type="curve" smooth="yes"/>
      <point x="223" y="340"/>
      <point x="259" y="387"/>
      <point x="313" y="387" type="curve" smooth="yes"/>
      <point x="351" y="387"/>
      <point x="381" y="367"/>
      <point x="400" y="333" type="curve"/>
      <point x="555" y="409" type="line"/>
      <point x="521" y="475"/>
      <point x="462" y="521"/>
      <point x="388" y="540" type="curve"/>
      <point x="388" y="708" type="line"/>
      <point x="236" y="708" type="line"/>
      <point x="236" y="544" type="line"/>
      <point x="103" y="519"/>
      <point x="19" y="416"/>
      <point x="19" y="270" type="curve" smooth="yes"/>
      <point x="19" y="125"/>
      <point x="103" y="24"/>
      <point x="236" y="-1" type="curve"/>
      <point x="236" y="-160" type="line"/>
      <point x="388" y="-160" type="line"/>
      <point x="388" y="3" type="line"/>
      <point x="466" y="22"/>
      <point x="525" y="67"/>
      <point x="556" y="134" type="curve"/>
    </contour>
  </outline>
</glyph>
<glyph name="currency" format="1">
  <advance width="697"/>
  <unicode hex="00A4"/>
  <note>
    currency
  </note>
  <outline>
    <contour>
      <point x="579" y="435" type="curve"/>
      <point x="678" y="534" type="line"/>
      <point x="565" y="647" type="line"/>
      <point x="467" y="549" type="line"/>
      <point x="432" y="568"/>
      <point x="391" y="578"/>
      <point x="348" y="578" type="curve" smooth="yes"/>
      <point x="305" y="578"/>
      <point x="265" y="568"/>
      <point x="229" y="549" type="curve"/>
      <point x="132" y="647" type="line"/>
      <point x="19" y="534" type="line"/>
      <point x="118" y="436" type="line"/>
      <point x="101" y="401"/>
      <point x="91" y="363"/>
      <point x="91" y="322" type="curve" smooth="yes"/>
      <point x="91" y="279"/>
      <point x="102" y="238"/>
      <point x="121" y="203" type="curve"/>
      <point x="19" y="101" type="line"/>
      <point x="132" y="-12" type="line"/>
      <point x="236" y="92" type="line"/>
      <point x="270" y="76"/>
      <point x="308" y="66"/>
      <point x="348" y="66" type="curve" smooth="yes"/>
      <point x="388" y="66"/>
      <point x="427" y="76"/>
      <point x="461" y="92" type="curve"/>
      <point x="565" y="-12" type="line"/>
      <point x="678" y="101" type="line"/>
      <point x="575" y="203" type="line"/>
      <point x="594" y="239"/>
      <point x="605" y="279"/>
      <point x="605" y="322" type="curve" smooth="yes"/>
      <point x="605" y="363"/>
      <point x="596" y="401"/>
    </contour>
    <contour>
      <point x="248" y="322" type="curve" smooth="yes"/>
      <point x="248" y="377"/>
      <point x="293" y="422"/>
      <point x="348" y="422" type="curve" smooth="yes"/>
      <point x="403" y="422"/>
      <point x="449" y="377"/>
      <point x="449" y="322" type="curve" smooth="yes"/>
      <point x="449" y="268"/>
      <point x="403" y="224"/>
      <point x="348" y="224" type="curve" smooth="yes"/>
      <point x="293" y="224"/>
      <point x="248" y="268"/>
    </contour>
  </outline>
</glyph>
<glyph name="brokenbar" format="1">
  <advance width="314"/>
  <unicode hex="00A6"/>
  <outline>
    <contour>
      <point x="82" y="799" type="line"/>
      <point x="82" y="459" type="line"/>
      <point x="232" y="459" type="line"/>
      <point x="232" y="799" type="line"/>
    </contour>
    <contour>
      <point x="82" y="235" type="line"/>
      <point x="82" y="-106" type="line"/>
      <point x="232" y="-106" type="line"/>
      <point x="232" y="235" type="line"/>
    </contour>
  </outline>
</glyph>
<glyph name="section" format="1">
  <advance width="569"/>
  <unicode hex="00A7"/>
  <outline>
    <contour>
      <point x="358" y="297" type="curve" smooth="yes"/>
      <point x="358" y="280"/>
      <point x="338" y="268"/>
      <point x="296" y="268" type="curve" smooth="yes"/>
      <point x="247" y="268"/>
      <point x="208" y="284"/>
      <point x="208" y="309" type="curve" smooth="yes"/>
      <point x="208" y="328"/>
      <point x="227" y="339"/>
      <point x="267" y="339" type="curve" smooth="yes"/>
      <point x="316" y="339"/>
      <point x="358" y="322"/>
    </contour>
    <contour>
      <point x="66" y="526" type="curve" smooth="yes"/>
      <point x="66" y="488"/>
      <point x="77" y="460"/>
      <point x="124" y="432" type="curve"/>
      <point x="62" y="404"/>
      <point x="26" y="358"/>
      <point x="26" y="296" type="curve" smooth="yes"/>
      <point x="26" y="119"/>
      <point x="318" y="134"/>
      <point x="318" y="72" type="curve" smooth="yes"/>
      <point x="318" y="57"/>
      <point x="301" y="46"/>
      <point x="266" y="46" type="curve" smooth="yes"/>
      <point x="211" y="46"/>
      <point x="141" y="69"/>
      <point x="70" y="114" type="curve"/>
      <point x="14" y="-11" type="line"/>
      <point x="88" y="-63"/>
      <point x="181" y="-89"/>
      <point x="271" y="-89" type="curve" smooth="yes"/>
      <point x="416" y="-89"/>
      <point x="506" y="-20"/>
      <point x="506" y="78" type="curve" smooth="yes"/>
      <point x="506" y="126"/>
      <point x="488" y="147"/>
      <point x="452" y="172" type="curve"/>
      <point x="510" y="200"/>
      <point x="546" y="248"/>
      <point x="546" y="308" type="curve" smooth="yes"/>
      <point x="546" y="485"/>
      <point x="249" y="470"/>
      <point x="249" y="535" type="curve" smooth="yes"/>
      <point x="249" y="550"/>
      <point x="265" y="561"/>
      <point x="296" y="561" type="curve" smooth="yes"/>
      <point x="335" y="561"/>
      <point x="397" y="542"/>
      <point x="474" y="504" type="curve"/>
      <point x="534" y="629" type="line"/>
      <point x="455" y="672"/>
      <point x="372" y="694"/>
      <point x="294" y="694" type="curve" smooth="yes"/>
      <point x="154" y="694"/>
      <point x="66" y="624"/>
    </contour>
  </outline>
</glyph>
<glyph name="dieresis" format="1">
  <advance width="358"/>
  <unicode hex="00A8"/>
  <outline>
    <contour>
      <point x="175" y="544" type="move" name="_abvm"/>
    </contour>
    <contour>
      <point x="-11.567" y="696.277" type="curve" smooth="yes"/>
      <point x="-11.567" y="646.074"/>
      <point x="23.822" y="610.685"/>
      <point x="74.025" y="610.685" type="curve" smooth="yes"/>
      <point x="124.228" y="610.685"/>
      <point x="159.617" y="646.074"/>
      <point x="159.617" y="696.277" type="curve" smooth="yes"/>
      <point x="159.617" y="746.48"/>
      <point x="124.228" y="781.869"/>
      <point x="74.025" y="781.869" type="curve" smooth="yes"/>
      <point x="23.822" y="781.869"/>
      <point x="-11.567" y="746.48"/>
    </contour>
    <contour>
      <point x="190.433" y="696.277" type="curve" smooth="yes"/>
      <point x="190.433" y="646.074"/>
      <point x="225.822" y="610.685"/>
      <point x="276.025" y="610.685" type="curve" smooth="yes"/>
      <point x="326.228" y="610.685"/>
      <point x="361.617" y="646.074"/>
      <point x="361.617" y="696.277" type="curve" smooth="yes"/>
      <point x="361.617" y="746.48"/>
      <point x="326.228" y="781.869"/>
      <point x="276.025" y="781.869" type="curve" smooth="yes"/>
      <point x="225.822" y="781.869"/>
      <point x="190.433" y="746.48"/>
    </contour>
  </outline>
</glyph>
<glyph name="copyright" format="1">
  <advance width="715"/>
  <unicode hex="00A9"/>
  <outline>
    <contour>
      <point x="19" y="348" type="curve" smooth="yes"/>
      <point x="19" y="163"/>
      <point x="166" y="9"/>
      <point x="356" y="9" type="curve" smooth="yes"/>
      <point x="547" y="9"/>
      <point x="696" y="165"/>
      <point x="696" y="350" type="curve" smooth="yes"/>
      <point x="696" y="536"/>
      <point x="548" y="689"/>
      <point x="358" y="689" type="curve" smooth="yes"/>
      <point x="167" y="689"/>
      <point x="19" y="533"/>
    </contour>
    <contour>
      <point x="605" y="350" type="curve" smooth="yes"/>
      <point x="605" y="214"/>
      <point x="497" y="100"/>
      <point x="356" y="100" type="curve" smooth="yes"/>
      <point x="217" y="100"/>
      <point x="110" y="212"/>
      <point x="110" y="348" type="curve" smooth="yes"/>
      <point x="110" y="484"/>
      <point x="218" y="598"/>
      <point x="358" y="598" type="curve" smooth="yes"/>
      <point x="497" y="598"/>
      <point x="605" y="486"/>
    </contour>
    <contour>
      <point x="192" y="349" type="curve" smooth="yes"/>
      <point x="192" y="254"/>
      <point x="264" y="184"/>
      <point x="361" y="184" type="curve" smooth="yes"/>
      <point x="410" y="184"/>
      <point x="462" y="208"/>
      <point x="497" y="246" type="curve"/>
      <point x="443" y="304" type="line"/>
      <point x="421" y="282"/>
      <point x="391" y="268"/>
      <point x="367" y="268" type="curve" smooth="yes"/>
      <point x="322" y="268"/>
      <point x="289" y="303"/>
      <point x="289" y="351" type="curve" smooth="yes"/>
      <point x="289" y="398"/>
      <point x="322" y="433"/>
      <point x="367" y="433" type="curve" smooth="yes"/>
      <point x="393" y="433"/>
      <point x="422" y="416"/>
      <point x="443" y="390" type="curve"/>
      <point x="497" y="455" type="line"/>
      <point x="465" y="490"/>
      <point x="413" y="512"/>
      <point x="365" y="512" type="curve" smooth="yes"/>
      <point x="265" y="512"/>
      <point x="192" y="443"/>
    </contour>
  </outline>
</glyph>
<glyph name="ordfeminine" format="1">
  <advance width="397"/>
  <unicode hex="00AA"/>
  <outline>
    <contour>
      <point x="179" y="536" type="curve"/>
      <point x="157" y="536"/>
      <point x="145" y="547"/>
      <point x="145" y="566" type="curve"/>
      <point x="145" y="583"/>
      <point x="157" y="593"/>
      <point x="178" y="593" type="curve"/>
      <point x="231.0" y="593" type="line"/>
      <point x="231.0" y="563" type="line"/>
      <point x="219" y="545"/>
      <point x="200" y="536"/>
    </contour>
    <contour>
      <point x="231.0" y="458.0" type="line"/>
      <point x="365.0" y="458.0" type="line"/>
      <point x="365.0" y="670" type="line"/>
      <point x="366" y="747"/>
      <point x="307" y="790"/>
      <point x="207" y="790" type="curve"/>
      <point x="157" y="790"/>
      <point x="96" y="778"/>
      <point x="38" y="759" type="curve"/>
      <point x="69" y="671" type="line"/>
      <point x="109" y="684"/>
      <point x="148" y="692"/>
      <point x="175" y="692" type="curve"/>
      <point x="211.154678662" y="692.0"/>
      <point x="230.122436794" y="678.632395144"/>
      <point x="230.97026" y="654" type="curve"/>
      <point x="150" y="654" type="line"/>
      <point x="63" y="653"/>
      <point x="16" y="619"/>
      <point x="16" y="555" type="curve"/>
      <point x="16" y="493"/>
      <point x="59" y="452"/>
      <point x="131" y="452" type="curve"/>
      <point x="176.620204348" y="452.0"/>
      <point x="210.100057601" y="467.609022835"/>
      <point x="231.0" y="494.8767" type="curve"/>
    </contour>
  </outline>
</glyph>
<glyph name="logicalnot" format="1">
  <advance width="586"/>
  <unicode hex="00AC"/>
  <outline>
    <contour>
      <point x="529" y="132" type="line"/>
      <point x="529" y="439.0" type="line"/>
      <point x="31.0" y="439.0" type="line"/>
      <point x="31.0" y="312" type="line"/>
      <point x="385.0" y="312" type="line"/>
      <point x="385.0" y="132" type="line"/>
    </contour>
  </outline>
</glyph>
<glyph name="registered" format="1">
  <advance width="715"/>
  <unicode hex="00AE"/>
  <outline>
    <contour>
      <point x="19" y="348" type="curve" smooth="yes"/>
      <point x="19" y="163"/>
      <point x="166" y="9"/>
      <point x="356" y="9" type="curve" smooth="yes"/>
      <point x="547" y="9"/>
      <point x="696" y="165"/>
      <point x="696" y="350" type="curve" smooth="yes"/>
      <point x="696" y="536"/>
      <point x="548" y="689"/>
      <point x="358" y="689" type="curve" smooth="yes"/>
      <point x="167" y="689"/>
      <point x="19" y="533"/>
    </contour>
    <contour>
      <point x="605" y="350" type="curve" smooth="yes"/>
      <point x="605" y="214"/>
      <point x="497" y="100"/>
      <point x="356" y="100" type="curve" smooth="yes"/>
      <point x="217" y="100"/>
      <point x="110" y="212"/>
      <point x="110" y="348" type="curve" smooth="yes"/>
      <point x="110" y="484"/>
      <point x="218" y="598"/>
      <point x="358" y="598" type="curve" smooth="yes"/>
      <point x="497" y="598"/>
      <point x="605" y="486"/>
    </contour>
    <contour>
      <point x="412" y="403" type="curve" smooth="yes"/>
      <point x="412" y="375"/>
      <point x="396" y="359"/>
      <point x="368" y="359" type="curve" smooth="yes"/>
      <point x="319" y="359" type="line"/>
      <point x="319" y="447" type="line"/>
      <point x="368" y="447" type="line" smooth="yes"/>
      <point x="396" y="447"/>
      <point x="412" y="431"/>
    </contour>
    <contour>
      <point x="319" y="206.0" type="line"/>
      <point x="319" y="290" type="line"/>
      <point x="365.35897" y="290" type="line"/>
      <point x="407.0" y="206.0" type="line"/>
      <point x="510.0" y="206.0" type="line"/>
      <point x="446.58557" y="307.63682" type="line"/>
      <point x="480.490904004" y="326.579210527"/>
      <point x="499.0" y="360.427103515"/>
      <point x="499.0" y="407.0" type="curve" smooth="yes"/>
      <point x="499" y="476"/>
      <point x="451" y="516"/>
      <point x="368" y="516" type="curve" smooth="yes"/>
      <point x="228.0" y="516" type="line"/>
      <point x="228.0" y="206.0" type="line"/>
    </contour>
  </outline>
</glyph>
<glyph name="macron" format="1">
  <advance width="350"/>
  <unicode hex="00AF"/>
  <outline>
    <contour>
      <point x="175" y="544" type="move" name="_abvm"/>
    </contour>
    <contour>
      <point x="30" y="761" type="line"/>
      <point x="30" y="628" type="line"/>
      <point x="321" y="628" type="line"/>
      <point x="321" y="761" type="line"/>
    </contour>
  </outline>
</glyph>
<glyph name="degree" format="1">
  <advance width="389"/>
  <unicode hex="00B0"/>
  <outline>
    <contour>
      <point x="85" y="701" type="curve" smooth="yes"/>
      <point x="85" y="635"/>
      <point x="139" y="582"/>
      <point x="205" y="582" type="curve" smooth="yes"/>
      <point x="271" y="582"/>
      <point x="325" y="635"/>
      <point x="325" y="701" type="curve" smooth="yes"/>
      <point x="325" y="767"/>
      <point x="271" y="821"/>
      <point x="205" y="821" type="curve" smooth="yes"/>
      <point x="139" y="821"/>
      <point x="85" y="767"/>
    </contour>
    <contour>
      <point x="249" y="701" type="curve" smooth="yes"/>
      <point x="249" y="677"/>
      <point x="229" y="658"/>
      <point x="205" y="658" type="curve" smooth="yes"/>
      <point x="181" y="658"/>
      <point x="161" y="677"/>
      <point x="161" y="701" type="curve" smooth="yes"/>
      <point x="161" y="725"/>
      <point x="181" y="745"/>
      <point x="205" y="745" type="curve" smooth="yes"/>
      <point x="229" y="745"/>
      <point x="249" y="725"/>
    </contour>
  </outline>
</glyph>
<glyph name="twosuperior" format="1">
  <advance width="392"/>
  <unicode hex="00B2"/>
  <outline>
    <contour>
      <point x="13" y="641" type="curve"/>
      <point x="66" y="543" type="line"/>
      <point x="107" y="576"/>
      <point x="151" y="597"/>
      <point x="184" y="597" type="curve"/>
      <point x="205" y="597"/>
      <point x="216" y="589"/>
      <point x="216" y="574" type="curve"/>
      <point x="216" y="559"/>
      <point x="201" y="537"/>
      <point x="183" y="518" type="curve" smooth="yes"/>
      <point x="30" y="366" type="line"/>
      <point x="30" y="281" type="line"/>
      <point x="371" y="281" type="line"/>
      <point x="371" y="386" type="line"/>
      <point x="210" y="386" type="line"/>
      <point x="279" y="452" type="line" smooth="yes"/>
      <point x="328" y="499"/>
      <point x="364" y="545"/>
      <point x="364" y="593" type="curve"/>
      <point x="364" y="661"/>
      <point x="297" y="706"/>
      <point x="207" y="706" type="curve"/>
      <point x="139" y="706"/>
      <point x="75" y="682"/>
    </contour>
  </outline>
</glyph>
<glyph name="acute" format="1">
  <advance width="350"/>
  <unicode hex="00B4"/>
  <outline>
    <contour>
      <point x="131" y="544" type="move" name="_abvm"/>
    </contour>
    <contour>
      <point x="34" y="595" type="line"/>
      <point x="182" y="595" type="line"/>
      <point x="316" y="717" type="line"/>
      <point x="141" y="775" type="line"/>
    </contour>
  </outline>
</glyph>
<glyph name="mu" format="1">
  <advance width="688"/>
  <unicode hex="00B5"/>
  <outline>
    <contour>
      <point x="425.0" y="0" type="line"/>
      <point x="627" y="0" type="line"/>
      <point x="627" y="544" type="line"/>
      <point x="425.0" y="544" type="line"/>
      <point x="425.0" y="275" type="line"/>
      <point x="425" y="213"/>
      <point x="393" y="170"/>
      <point x="341" y="169" type="curve" smooth="yes"/>
      <point x="297" y="169"/>
      <point x="268" y="203"/>
      <point x="268" y="256" type="curve" smooth="yes"/>
      <point x="268" y="544" type="line"/>
      <point x="66" y="544" type="line"/>
      <point x="66" y="-194.0" type="line"/>
      <point x="268" y="-194.0" type="line"/>
      <point x="268" y="-8.79406" type="line"/>
      <point x="336.45651852" y="-6.01554089273"/>
      <point x="390.095016024" y="25.5334610439"/>
      <point x="425.0" y="81.37811" type="curve"/>
    </contour>
  </outline>
</glyph>
<glyph name="paragraph" format="1">
  <advance width="668"/>
  <unicode hex="00B6"/>
  <outline>
    <contour>
      <point x="244" y="742" type="line" smooth="yes"/>
      <point x="61" y="742"/>
      <point x="-8" y="633"/>
      <point x="-8" y="520" type="curve" smooth="yes"/>
      <point x="-8" y="437"/>
      <point x="35" y="307"/>
      <point x="202" y="307" type="curve" smooth="yes"/>
      <point x="226" y="307" type="line"/>
      <point x="226" y="-106" type="line"/>
      <point x="375" y="-106" type="line"/>
      <point x="375" y="630" type="line"/>
      <point x="459" y="630" type="line"/>
      <point x="459" y="-106" type="line"/>
      <point x="609" y="-106" type="line"/>
      <point x="609" y="742" type="line"/>
    </contour>
  </outline>
</glyph>
<glyph name="periodcentered" format="1">
  <advance width="254"/>
  <unicode hex="00B7"/>
  <outline>
    <contour>
      <point x="34" y="288" type="curve" smooth="yes"/>
      <point x="34" y="234"/>
      <point x="73" y="197"/>
      <point x="127" y="197" type="curve" smooth="yes"/>
      <point x="184" y="197"/>
      <point x="222" y="234"/>
      <point x="222" y="288" type="curve" smooth="yes"/>
      <point x="222" y="341"/>
      <point x="184" y="379"/>
      <point x="127" y="379" type="curve" smooth="yes"/>
      <point x="73" y="379"/>
      <point x="34" y="341"/>
    </contour>
  </outline>
</glyph>
<glyph name="cedilla" format="1">
  <advance width="350"/>
  <unicode hex="00B8"/>
  <outline>
    <contour>
      <point x="175.005" y="0" type="move" name="_blwm"/>
    </contour>
    <contour>
      <point x="259" y="16" type="line"/>
      <point x="148" y="16" type="line"/>
      <point x="99" y="-82" type="line"/>
      <point x="111" y="-80"/>
      <point x="126" y="-78"/>
      <point x="135" y="-78" type="curve" smooth="yes"/>
      <point x="163" y="-78"/>
      <point x="180" y="-92"/>
      <point x="180" y="-113" type="curve" smooth="yes"/>
      <point x="180" y="-133"/>
      <point x="164" y="-147"/>
      <point x="140" y="-147" type="curve" smooth="yes"/>
      <point x="124" y="-147"/>
      <point x="107" y="-139"/>
      <point x="95" y="-127" type="curve"/>
      <point x="59" y="-209" type="line"/>
      <point x="88" y="-229"/>
      <point x="127" y="-242"/>
      <point x="157" y="-242" type="curve" smooth="yes"/>
      <point x="238" y="-242"/>
      <point x="291" y="-199"/>
      <point x="291" y="-133" type="curve" smooth="yes"/>
      <point x="291" y="-95"/>
      <point x="265" y="-64"/>
      <point x="224" y="-51" type="curve"/>
    </contour>
  </outline>
</glyph>
<glyph name="onesuperior" format="1">
  <advance width="281"/>
  <unicode hex="00B9"/>
  <outline>
    <contour>
      <point x="225" y="701" type="line"/>
      <point x="7" y="701" type="line"/>
      <point x="7" y="593" type="line"/>
      <point x="84" y="593" type="line"/>
      <point x="84" y="281" type="line"/>
      <point x="225" y="281" type="line"/>
    </contour>
  </outline>
</glyph>
<glyph name="ordmasculine" format="1">
  <advance width="416"/>
  <unicode hex="00BA"/>
  <outline>
    <contour>
      <point x="16" y="621" type="curve" smooth="yes"/>
      <point x="16" y="520"/>
      <point x="92" y="454"/>
      <point x="208" y="454" type="curve" smooth="yes"/>
      <point x="325" y="454"/>
      <point x="401" y="520"/>
      <point x="401" y="621" type="curve" smooth="yes"/>
      <point x="401" y="724"/>
      <point x="325" y="789"/>
      <point x="208" y="789" type="curve" smooth="yes"/>
      <point x="92" y="789"/>
      <point x="16" y="724"/>
    </contour>
    <contour>
      <point x="262" y="620" type="curve" smooth="yes"/>
      <point x="262" y="581"/>
      <point x="241" y="555"/>
      <point x="208" y="555" type="curve" smooth="yes"/>
      <point x="175" y="555"/>
      <point x="154" y="581"/>
      <point x="154" y="620" type="curve" smooth="yes"/>
      <point x="154" y="659"/>
      <point x="175" y="685"/>
      <point x="208" y="685" type="curve" smooth="yes"/>
      <point x="241" y="685"/>
      <point x="262" y="659"/>
    </contour>
  </outline>
</glyph>
<glyph name="questiondown" format="1">
  <advance width="486"/>
  <unicode hex="00BF"/>
  <outline>
    <contour>
      <point x="345" y="460" type="curve" smooth="yes"/>
      <point x="345" y="514"/>
      <point x="306" y="551"/>
      <point x="252" y="551" type="curve" smooth="yes"/>
      <point x="195" y="551"/>
      <point x="157" y="514"/>
      <point x="157" y="460" type="curve" smooth="yes"/>
      <point x="157" y="407"/>
      <point x="195" y="369"/>
      <point x="252" y="369" type="curve" smooth="yes"/>
      <point x="306" y="369"/>
      <point x="345" y="407"/>
    </contour>
    <contour>
      <point x="329" y="76" type="line"/>
      <point x="329" y="17"/>
      <point x="307" y="-10"/>
      <point x="264" y="-10" type="curve" smooth="yes"/>
      <point x="228" y="-10"/>
      <point x="208" y="7"/>
      <point x="208" y="45" type="curve" smooth="yes"/>
      <point x="208" y="136"/>
      <point x="323" y="146"/>
      <point x="323" y="300" type="curve"/>
      <point x="173" y="300" type="line"/>
      <point x="173" y="185"/>
      <point x="22" y="163"/>
      <point x="22" y="14" type="curve" smooth="yes"/>
      <point x="22" y="-99"/>
      <point x="106" y="-164"/>
      <point x="245" y="-164" type="curve" smooth="yes"/>
      <point x="394" y="-164"/>
      <point x="483" y="-75"/>
      <point x="484" y="75" type="curve"/>
    </contour>
  </outline>
</glyph>
<glyph name="Aring" format="1">
  <advance width="786"/>
  <unicode hex="00C5"/>
  <outline>
    <contour>
      <point x="444" y="764" type="curve" smooth="yes"/>
      <point x="444" y="737"/>
      <point x="424" y="717"/>
      <point x="397" y="717" type="curve" smooth="yes"/>
      <point x="370" y="717"/>
      <point x="349" y="737"/>
      <point x="349" y="764" type="curve" smooth="yes"/>
      <point x="349" y="791"/>
      <point x="370" y="811"/>
      <point x="397" y="811" type="curve" smooth="yes"/>
      <point x="424" y="811"/>
      <point x="444" y="791"/>
    </contour>
    <contour>
      <point x="392.0" y="493.0" type="line"/>
      <point x="476.07505" y="264" type="line"/>
      <point x="305.60243" y="264" type="line"/>
    </contour>
    <contour>
      <point x="573" y="0" type="line"/>
      <point x="793.995" y="0" type="line"/>
      <point x="508.35346" y="692.86569" type="line"/>
      <point x="521.443822228" y="713.256692409"/>
      <point x="529.0" y="737.651254251"/>
      <point x="529.0" y="764.0" type="curve" smooth="yes"/>
      <point x="529" y="837"/>
      <point x="471" y="895"/>
      <point x="398" y="895" type="curve" smooth="yes"/>
      <point x="324" y="895"/>
      <point x="266" y="837"/>
      <point x="266" y="764" type="curve" smooth="yes"/>
      <point x="266.0" y="737.308969495"/>
      <point x="273.753770754" y="712.62322453"/>
      <point x="287.20837" y="692.08076" type="curve"/>
      <point x="-7.0" y="0" type="line"/>
      <point x="206.0" y="0" type="line"/>
      <point x="248.25558" y="112.0" type="line"/>
      <point x="531.88032" y="112.0" type="line"/>
    </contour>
  </outline>
</glyph>
<glyph name="AE" format="1">
  <advance width="1127"/>
  <unicode hex="00C6"/>
  <outline>
    <contour>
      <point x="791" y="0" type="move" name="blwm"/>
    </contour>
    <contour>
      <point x="1079" y="10" type="move" name="ogonek"/>
    </contour>
    <contour>
      <point x="651" y="701" type="move" name="abvm"/>
    </contour>
    <contour>
      <point x="485.0" y="542" type="line"/>
      <point x="503.0" y="542" type="line"/>
      <point x="503.0" y="283" type="line"/>
      <point x="352.63284" y="283" type="line"/>
    </contour>
    <contour>
      <point x="503.0" y="0" type="line"/>
      <point x="1086" y="0" type="line"/>
      <point x="1086" y="160" type="line"/>
      <point x="711.0" y="160" type="line"/>
      <point x="711.0" y="271" type="line"/>
      <point x="1042" y="271" type="line"/>
      <point x="1042" y="431.0" type="line"/>
      <point x="711.0" y="431.0" type="line"/>
      <point x="711.0" y="541" type="line"/>
      <point x="1076" y="541" type="line"/>
      <point x="1076" y="701.0" type="line"/>
      <point x="386.0" y="701.0" type="line"/>
      <point x="-7.0" y="0" type="line"/>
      <point x="208.0" y="0" type="line"/>
      <point x="275.97232" y="133" type="line"/>
      <point x="503.0" y="133" type="line"/>
    </contour>
  </outline>
</glyph>
<glyph name="Eth" format="1">
  <advance width="800"/>
  <unicode hex="00D0"/>
  <outline>
    <contour>
      <point x="397.0" y="0" type="line" smooth="yes"/>
      <point x="629" y="0"/>
      <point x="782" y="140"/>
      <point x="782" y="351" type="curve" smooth="yes"/>
      <point x="782" y="562"/>
      <point x="631" y="701"/>
      <point x="405" y="701" type="curve" smooth="yes"/>
      <point x="97.0" y="701.0" type="line"/>
      <point x="97.0" y="405.0" type="line"/>
      <point x="0" y="405.0" type="line"/>
      <point x="0" y="297" type="line"/>
      <point x="97.0" y="297" type="line"/>
      <point x="97.0" y="0" type="line"/>
    </contour>
    <contour>
      <point x="305" y="163" type="line"/>
      <point x="305" y="297" type="line"/>
      <point x="444.0" y="297" type="line"/>
      <point x="444.0" y="405.0" type="line"/>
      <point x="305" y="405.0" type="line"/>
      <point x="305" y="537" type="line"/>
      <point x="400.0" y="537" type="line" smooth="yes"/>
      <point x="500" y="537"/>
      <point x="569" y="462"/>
      <point x="569" y="349" type="curve" smooth="yes"/>
      <point x="569" y="237"/>
      <point x="505" y="163"/>
      <point x="410" y="163" type="curve" smooth="yes"/>
    </contour>
  </outline>
</glyph>
<glyph name="multiply" format="1">
  <advance width="515"/>
  <unicode hex="00D7"/>
  <outline>
    <contour>
      <point x="373.0" y="123.0" type="line"/>
      <point x="463.0" y="213.0" type="line"/>
      <point x="347.64063" y="328" type="line"/>
      <point x="463.0" y="443.0" type="line"/>
      <point x="373.0" y="533" type="line"/>
      <point x="257.68019" y="417.68019" type="line"/>
      <point x="142" y="533" type="line"/>
      <point x="53.0" y="443.0" type="line"/>
      <point x="168" y="328" type="line"/>
      <point x="53.0" y="213.0" type="line"/>
      <point x="142" y="123.0" type="line"/>
      <point x="257.68019" y="238.31981" type="line"/>
    </contour>
  </outline>
</glyph>
<glyph name="Oslash" format="1">
  <advance width="802"/>
  <unicode hex="00D8"/>
  <outline>
    <contour>
      <point x="385" y="701" type="move" name="abvm"/>
    </contour>
    <contour>
      <point x="232.0" y="350.0" type="curve" smooth="yes"/>
      <point x="232" y="456"/>
      <point x="310" y="533"/>
      <point x="403" y="533" type="curve" smooth="yes"/>
      <point x="404.72452" y="532.9722" type="line"/>
      <point x="289.95119" y="210.83232" type="line"/>
      <point x="254.707302755" y="244.101394026"/>
      <point x="232.0" y="293.17033515"/>
    </contour>
    <contour>
      <point x="403" y="165" type="curve" smooth="yes"/>
      <point x="398.245818951" y="165.0"/>
      <point x="393.526353059" y="165.210961337"/>
      <point x="388.85071" y="165.64232" type="curve"/>
      <point x="506.19556" y="494.9998" type="line"/>
      <point x="544.511674292" y="462.358206023"/>
      <point x="569.0" y="410.977491157"/>
      <point x="569.0" y="350.0" type="curve" smooth="yes"/>
      <point x="569" y="244"/>
      <point x="495" y="165"/>
    </contour>
    <contour>
      <point x="401.0" y="-9.0" type="curve" smooth="yes"/>
      <point x="621" y="-9"/>
      <point x="783" y="145"/>
      <point x="783" y="351" type="curve" smooth="yes"/>
      <point x="783.0" y="498.614812381"/>
      <point x="699.002343387" y="618.230405891"/>
      <point x="569.83651" y="673.62394" type="curve"/>
      <point x="617" y="806.0" type="line"/>
      <point x="502.0" y="806.0" type="line"/>
      <point x="465.14859" y="702.56737" type="line"/>
      <point x="444.41489706" y="705.490359709"/>
      <point x="422.997379447" y="707.0"/>
      <point x="401.0" y="707.0" type="curve" smooth="yes"/>
      <point x="181" y="707"/>
      <point x="19" y="557"/>
      <point x="19" y="351" type="curve" smooth="yes"/>
      <point x="19.0" y="204.782238092"/>
      <point x="99.8303739035" y="85.5079341511"/>
      <point x="224.83701" y="28.0732" type="curve"/>
      <point x="176.0" y="-109.0" type="line"/>
      <point x="291" y="-109.0" type="line"/>
      <point x="328.67345" y="-3.26009" type="line"/>
      <point x="351.938626942" y="-7.03969725334"/>
      <point x="376.09775282" y="-9.0"/>
    </contour>
  </outline>
</glyph>
<glyph name="Thorn" format="1">
  <advance width="694"/>
  <unicode hex="00DE"/>
  <outline>
    <contour>
      <point x="368.0" y="453.0" type="line" smooth="yes"/>
      <point x="425" y="453"/>
      <point x="460" y="418"/>
      <point x="460" y="361" type="curve" smooth="yes"/>
      <point x="460" y="301"/>
      <point x="425" y="265"/>
      <point x="368" y="265" type="curve" smooth="yes"/>
      <point x="267" y="265" type="line"/>
      <point x="267" y="453.0" type="line"/>
    </contour>
    <contour>
      <point x="377.0" y="107.0" type="line" smooth="yes"/>
      <point x="559" y="107"/>
      <point x="673" y="207"/>
      <point x="673" y="367" type="curve" smooth="yes"/>
      <point x="673" y="518"/>
      <point x="559" y="612"/>
      <point x="377" y="612" type="curve" smooth="yes"/>
      <point x="267" y="612" type="line"/>
      <point x="267" y="701.0" type="line"/>
      <point x="59.0" y="701.0" type="line"/>
      <point x="59.0" y="0" type="line"/>
      <point x="267" y="0" type="line"/>
      <point x="267" y="107.0" type="line"/>
    </contour>
  </outline>
</glyph>
<glyph name="germandbls" format="1">
  <advance width="666"/>
  <unicode hex="00DF"/>
  <outline>
    <contour>
      <point x="48" y="494" type="curve" smooth="yes"/>
      <point x="48" y="0" type="line"/>
      <point x="250" y="0" type="line"/>
      <point x="250" y="509" type="line" smooth="yes"/>
      <point x="250" y="570"/>
      <point x="277" y="601"/>
      <point x="329" y="601" type="curve" smooth="yes"/>
      <point x="377" y="601"/>
      <point x="402" y="573"/>
      <point x="402" y="518" type="curve" smooth="yes"/>
      <point x="402" y="463"/>
      <point x="372" y="435"/>
      <point x="312" y="435" type="curve"/>
      <point x="312" y="293" type="line"/>
      <point x="333" y="293" type="line" smooth="yes"/>
      <point x="407" y="293"/>
      <point x="445" y="269"/>
      <point x="445" y="219" type="curve" smooth="yes"/>
      <point x="445" y="169"/>
      <point x="410" y="142"/>
      <point x="339" y="142" type="curve" smooth="yes"/>
      <point x="308" y="142" type="line"/>
      <point x="308" y="0" type="line"/>
      <point x="356" y="0" type="line" smooth="yes"/>
      <point x="529" y="0"/>
      <point x="641" y="86"/>
      <point x="641" y="216" type="curve" smooth="yes"/>
      <point x="641" y="296"/>
      <point x="589" y="360"/>
      <point x="512" y="384" type="curve"/>
      <point x="564" y="419"/>
      <point x="598" y="483"/>
      <point x="598" y="548" type="curve" smooth="yes"/>
      <point x="598" y="671"/>
      <point x="491" y="751"/>
      <point x="327" y="751" type="curve" smooth="yes"/>
      <point x="157" y="751"/>
      <point x="48" y="651"/>
    </contour>
  </outline>
</glyph>
<glyph name="ae" format="1">
  <advance width="963"/>
  <unicode hex="00E6"/>
  <outline>
    <contour>
      <point x="482" y="544" type="move" name="abvm"/>
    </contour>
    <contour>
      <point x="657.0" y="415.0" type="curve" smooth="yes"/>
      <point x="707" y="415"/>
      <point x="741" y="376"/>
      <point x="740" y="322" type="curve"/>
      <point x="567.62616" y="322" type="line"/>
      <point x="577.834168658" y="376.960344929"/>
      <point x="609.218882805" y="415.0"/>
    </contour>
    <contour>
      <point x="272" y="120" type="curve" smooth="yes"/>
      <point x="233" y="120"/>
      <point x="209" y="142"/>
      <point x="209" y="177" type="curve" smooth="yes"/>
      <point x="209" y="211"/>
      <point x="232" y="229"/>
      <point x="272" y="229" type="curve" smooth="yes"/>
      <point x="365.0" y="229.0" type="line"/>
      <point x="365.0" y="174.63282" type="line"/>
      <point x="345" y="139"/>
      <point x="309" y="120"/>
    </contour>
    <contour>
      <point x="661.0" y="-7.0" type="curve" smooth="yes"/>
      <point x="765" y="-7"/>
      <point x="847" y="28"/>
      <point x="904" y="91" type="curve"/>
      <point x="799.0" y="194.0" type="line"/>
      <point x="764" y="161"/>
      <point x="722" y="142"/>
      <point x="679" y="142" type="curve" smooth="yes"/>
      <point x="624.901646929" y="142.0"/>
      <point x="585.735088781" y="172.460861644"/>
      <point x="570.73216" y="227.0" type="curve"/>
      <point x="942.0" y="227.0" type="line"/>
      <point x="952" y="423"/>
      <point x="842" y="551"/>
      <point x="656" y="551" type="curve" smooth="yes"/>
      <point x="591.523560533" y="551.0"/>
      <point x="537.217572758" y="533.631997879"/>
      <point x="495.1245" y="502.09991" type="curve"/>
      <point x="453.101975543" y="534.597293693"/>
      <point x="392.679571358" y="552.0"/>
      <point x="317.0" y="552.0" type="curve" smooth="yes"/>
      <point x="237" y="552"/>
      <point x="145" y="532"/>
      <point x="55" y="497" type="curve"/>
      <point x="101.0" y="362.0" type="line"/>
      <point x="162" y="387"/>
      <point x="225" y="401"/>
      <point x="270" y="401" type="curve" smooth="yes"/>
      <point x="332" y="401"/>
      <point x="365" y="374"/>
      <point x="365" y="329" type="curve"/>
      <point x="365.0" y="324" type="line"/>
      <point x="231.0" y="324" type="line" smooth="yes"/>
      <point x="94" y="322"/>
      <point x="20" y="266"/>
      <point x="20" y="161" type="curve" smooth="yes"/>
      <point x="20" y="59"/>
      <point x="95" y="-10"/>
      <point x="221" y="-10" type="curve" smooth="yes"/>
      <point x="324.353671373" y="-10.0"/>
      <point x="398.555138445" y="29.8924900949"/>
      <point x="439.57275" y="99.61459" type="curve"/>
      <point x="483.226741309" y="32.3125012229"/>
      <point x="558.175302039" y="-7.0"/>
    </contour>
  </outline>
</glyph>
<glyph name="eth" format="1">
  <advance width="612"/>
  <unicode hex="00F0"/>
  <outline>
    <contour>
      <point x="284" y="-9" type="curve" smooth="yes"/>
      <point x="471" y="-9"/>
      <point x="593" y="110"/>
      <point x="593" y="294" type="curve" smooth="yes"/>
      <point x="593.0" y="401.359762721"/>
      <point x="550.663476028" y="502.839452668"/>
      <point x="476.67123" y="586.15564" type="curve"/>
      <point x="573" y="619" type="line"/>
      <point x="543" y="711.0" type="line"/>
      <point x="395.73878" y="660.56808" type="line"/>
      <point x="347.018658286" y="697.33118358"/>
      <point x="290.598200959" y="728.056767974"/>
      <point x="228.0" y="751.0" type="curve"/>
      <point x="92.0" y="670" type="line"/>
      <point x="137.152411488" y="650.207162088"/>
      <point x="179.722444147" y="626.301646782"/>
      <point x="218.08325" y="599.72714" type="curve"/>
      <point x="105.0" y="561" type="line"/>
      <point x="136" y="470.0" type="line"/>
      <point x="305.18706" y="527.68621" type="line"/>
      <point x="347.032835066" y="485.948420443"/>
      <point x="378.093747084" y="441.419771474"/>
      <point x="394.0" y="398.0" type="curve"/>
      <point x="362" y="428"/>
      <point x="302" y="447"/>
      <point x="242" y="447" type="curve" smooth="yes"/>
      <point x="104" y="447"/>
      <point x="15" y="360"/>
      <point x="15" y="226" type="curve" smooth="yes"/>
      <point x="15" y="83"/>
      <point x="121" y="-9"/>
    </contour>
    <contour>
      <point x="376" y="235" type="curve" smooth="yes"/>
      <point x="376" y="187"/>
      <point x="343" y="157"/>
      <point x="292" y="157" type="curve" smooth="yes"/>
      <point x="241" y="157"/>
      <point x="208" y="188"/>
      <point x="208" y="236" type="curve" smooth="yes"/>
      <point x="208" y="283"/>
      <point x="240" y="313"/>
      <point x="291" y="313" type="curve" smooth="yes"/>
      <point x="343" y="313"/>
      <point x="376" y="282"/>
    </contour>
  </outline>
</glyph>
<glyph name="divide" format="1">
  <advance width="515"/>
  <unicode hex="00F7"/>
  <outline>
    <contour>
      <point x="163.433" y="508.277" type="curve" smooth="yes"/>
      <point x="163.433" y="458.074"/>
      <point x="198.822" y="422.685"/>
      <point x="249.025" y="422.685" type="curve" smooth="yes"/>
      <point x="299.228" y="422.685"/>
      <point x="334.617" y="458.074"/>
      <point x="334.617" y="508.277" type="curve" smooth="yes"/>
      <point x="334.617" y="558.48"/>
      <point x="299.228" y="593.869"/>
      <point x="249.025" y="593.869" type="curve" smooth="yes"/>
      <point x="198.822" y="593.869"/>
      <point x="163.433" y="558.48"/>
    </contour>
    <contour>
      <point x="31" y="391" type="line"/>
      <point x="31" y="265" type="line"/>
      <point x="484" y="265" type="line"/>
      <point x="484" y="391" type="line"/>
    </contour>
    <contour>
      <point x="163.433" y="149.277" type="curve" smooth="yes"/>
      <point x="163.433" y="99.074"/>
      <point x="198.822" y="63.685"/>
      <point x="249.025" y="63.685" type="curve" smooth="yes"/>
      <point x="299.228" y="63.685"/>
      <point x="334.617" y="99.074"/>
      <point x="334.617" y="149.277" type="curve" smooth="yes"/>
      <point x="334.617" y="199.48"/>
      <point x="299.228" y="234.869"/>
      <point x="249.025" y="234.869" type="curve" smooth="yes"/>
      <point x="198.822" y="234.869"/>
      <point x="163.433" y="199.48"/>
    </contour>
  </outline>
</glyph>
<glyph name="oslash" format="1">
  <advance width="643"/>
  <unicode hex="00F8"/>
  <outline>
    <contour>
      <point x="322" y="544" type="move" name="abvm"/>
    </contour>
    <contour>
      <point x="210.0" y="270.0" type="curve" smooth="yes"/>
      <point x="210" y="353"/>
      <point x="255" y="407"/>
      <point x="322" y="407" type="curve" smooth="yes"/>
      <point x="326.71659" y="406.89963" type="line"/>
      <point x="246.92168" y="162.71521" type="line"/>
      <point x="223.577909542" y="186.769412286"/>
      <point x="210.0" y="223.858736296"/>
    </contour>
    <contour>
      <point x="322" y="132" type="curve" smooth="yes"/>
      <point x="316.92024" y="132.1093" type="line"/>
      <point x="396.92231" y="376.92767" type="line"/>
      <point x="420.508887421" y="353.027202735"/>
      <point x="434.0" y="315.959536195"/>
      <point x="434.0" y="270.0" type="curve" smooth="yes"/>
      <point x="434" y="186"/>
      <point x="390" y="132"/>
    </contour>
    <contour>
      <point x="321.0" y="-7.0" type="curve" smooth="yes"/>
      <point x="504" y="-7"/>
      <point x="624" y="104"/>
      <point x="624" y="272" type="curve" smooth="yes"/>
      <point x="624.0" y="398.142488248"/>
      <point x="557.145503275" y="491.414848939"/>
      <point x="447.13927" y="530.59913" type="curve"/>
      <point x="494.0" y="674" type="line"/>
      <point x="414.0" y="674" type="line"/>
      <point x="372.79078" y="547.8936" type="line"/>
      <point x="356.164258588" y="549.949567626"/>
      <point x="338.882934928" y="551.0"/>
      <point x="321.0" y="551.0" type="curve" smooth="yes"/>
      <point x="138" y="551"/>
      <point x="19" y="441"/>
      <point x="19" y="272" type="curve" smooth="yes"/>
      <point x="19.0" y="145.530465547"/>
      <point x="86.4373098858" y="51.3628358299"/>
      <point x="197.84844" y="12.54373" type="curve"/>
      <point x="148" y="-140" type="line"/>
      <point x="228.0" y="-140" type="line"/>
      <point x="272.36457" y="-4.23775" type="line"/>
      <point x="288.011195929" y="-6.06863636518"/>
      <point x="304.237096736" y="-7.0"/>
    </contour>
  </outline>
</glyph>
<glyph name="thorn" format="1">
  <advance width="687"/>
  <unicode hex="00FE"/>
  <outline>
    <contour>
      <point x="168" y="0" type="move" name="blwm"/>
    </contour>
    <contour>
      <point x="168" y="742" type="move" name="abvm"/>
    </contour>
    <contour>
      <point x="305" y="544" type="move" name="topright"/>
    </contour>
    <contour>
      <point x="465" y="274" type="curve" smooth="yes"/>
      <point x="465" y="202"/>
      <point x="425" y="153"/>
      <point x="366" y="153" type="curve" smooth="yes"/>
      <point x="307" y="153"/>
      <point x="268" y="202"/>
      <point x="268" y="274" type="curve" smooth="yes"/>
      <point x="268" y="346"/>
      <point x="307" y="395"/>
      <point x="366" y="395" type="curve" smooth="yes"/>
      <point x="425" y="395"/>
      <point x="465" y="346"/>
    </contour>
    <contour>
      <point x="268" y="-194.0" type="line"/>
      <point x="268" y="62.73145" type="line"/>
      <point x="305.403794882" y="17.9807669762"/>
      <point x="358.034964192" y="-7.0"/>
      <point x="422.0" y="-7.0" type="curve" smooth="yes"/>
      <point x="571" y="-7"/>
      <point x="668" y="102"/>
      <point x="668" y="269" type="curve" smooth="yes"/>
      <point x="668" y="439"/>
      <point x="568" y="551"/>
      <point x="417" y="551" type="curve" smooth="yes"/>
      <point x="355.31557276" y="551.0"/>
      <point x="304.438156826" y="526.233932424"/>
      <point x="268" y="481.91585" type="curve"/>
      <point x="268" y="742.0" type="line"/>
      <point x="66" y="742.0" type="line"/>
      <point x="66" y="-194.0" type="line"/>
    </contour>
  </outline>
</glyph>
<glyph name="Aogonek" format="1">
  <advance width="786"/>
  <unicode hex="0104"/>
  <outline>
    <contour>
      <point x="291" y="701" type="line"/>
      <point x="-7" y="0" type="line"/>
      <point x="207" y="0" type="line"/>
      <point x="249" y="112" type="line"/>
      <point x="531" y="112" type="line"/>
      <point x="573" y="0" type="line"/>
      <point x="638" y="0" type="line"/>
      <point x="613" y="-39"/>
      <point x="594" y="-78"/>
      <point x="594" y="-118" type="curve" smooth="yes"/>
      <point x="594" y="-184"/>
      <point x="645" y="-203"/>
      <point x="686" y="-203" type="curve" smooth="yes"/>
      <point x="732" y="-203"/>
      <point x="774" y="-179"/>
      <point x="801" y="-132" type="curve"/>
      <point x="750" y="-73" type="line"/>
      <point x="738" y="-92"/>
      <point x="725" y="-104"/>
      <point x="711" y="-104" type="curve" smooth="yes"/>
      <point x="701" y="-104"/>
      <point x="693" y="-97"/>
      <point x="693" y="-85" type="curve" smooth="yes"/>
      <point x="693" y="-67"/>
      <point x="709" y="-36"/>
      <point x="734" y="0" type="curve"/>
      <point x="794" y="0" type="line"/>
      <point x="505" y="701" type="line"/>
    </contour>
    <contour>
      <point x="476" y="264" type="line"/>
      <point x="305" y="264" type="line"/>
      <point x="392" y="493" type="line"/>
    </contour>
  </outline>
</glyph>
<glyph name="aogonek" format="1">
  <advance width="612"/>
  <unicode hex="0105"/>
  <outline>
    <contour>
      <point x="55" y="496" type="curve"/>
      <point x="104" y="362" type="line"/>
      <point x="165" y="388"/>
      <point x="227" y="401"/>
      <point x="271" y="401" type="curve" smooth="yes"/>
      <point x="332" y="401"/>
      <point x="364" y="375"/>
      <point x="366" y="331" type="curve"/>
      <point x="366" y="327" type="line"/>
      <point x="231" y="327" type="line" smooth="yes"/>
      <point x="94" y="325"/>
      <point x="20" y="267"/>
      <point x="20" y="162" type="curve" smooth="yes"/>
      <point x="20" y="60"/>
      <point x="89" y="-10"/>
      <point x="205" y="-10" type="curve" smooth="yes"/>
      <point x="278" y="-10"/>
      <point x="332" y="15"/>
      <point x="366" y="61" type="curve"/>
      <point x="366" y="0" type="line"/>
      <point x="425" y="0" type="line"/>
      <point x="399" y="-38"/>
      <point x="380" y="-78"/>
      <point x="380" y="-118" type="curve" smooth="yes"/>
      <point x="380" y="-184"/>
      <point x="431" y="-203"/>
      <point x="472" y="-203" type="curve" smooth="yes"/>
      <point x="519" y="-203"/>
      <point x="560" y="-179"/>
      <point x="587" y="-132" type="curve"/>
      <point x="537" y="-73" type="line"/>
      <point x="525" y="-92"/>
      <point x="511" y="-104"/>
      <point x="497" y="-104" type="curve" smooth="yes"/>
      <point x="487" y="-104"/>
      <point x="480" y="-97"/>
      <point x="480" y="-85" type="curve" smooth="yes"/>
      <point x="480" y="-67"/>
      <point x="496" y="-36"/>
      <point x="521" y="0" type="curve"/>
      <point x="565" y="0" type="line"/>
      <point x="565" y="353" type="line" smooth="yes"/>
      <point x="564" y="479"/>
      <point x="473" y="552"/>
      <point x="318" y="552" type="curve" smooth="yes"/>
      <point x="233" y="552"/>
      <point x="145" y="532"/>
    </contour>
    <contour>
      <point x="367" y="178" type="line"/>
      <point x="351" y="145"/>
      <point x="313" y="123"/>
      <point x="273" y="123" type="curve" smooth="yes"/>
      <point x="233" y="123"/>
      <point x="210" y="143"/>
      <point x="210" y="177" type="curve" smooth="yes"/>
      <point x="210" y="211"/>
      <point x="231" y="228"/>
      <point x="273" y="228" type="curve" smooth="yes"/>
      <point x="367" y="228" type="line"/>
    </contour>
  </outline>
</glyph>
<glyph name="Eogonek" format="1">
  <advance width="685"/>
  <unicode hex="0118"/>
  <outline>
    <contour>
      <point x="59" y="701" type="line"/>
      <point x="59" y="0" type="line"/>
      <point x="475" y="0" type="line"/>
      <point x="449" y="-39"/>
      <point x="430" y="-78"/>
      <point x="430" y="-118" type="curve" smooth="yes"/>
      <point x="430" y="-184"/>
      <point x="481" y="-203"/>
      <point x="522" y="-203" type="curve" smooth="yes"/>
      <point x="569" y="-203"/>
      <point x="610" y="-179"/>
      <point x="637" y="-132" type="curve"/>
      <point x="587" y="-73" type="line"/>
      <point x="575" y="-92"/>
      <point x="561" y="-104"/>
      <point x="547" y="-104" type="curve" smooth="yes"/>
      <point x="537" y="-104"/>
      <point x="530" y="-97"/>
      <point x="530" y="-85" type="curve" smooth="yes"/>
      <point x="530" y="-67"/>
      <point x="545" y="-37"/>
      <point x="570" y="0" type="curve"/>
      <point x="644" y="0" type="line"/>
      <point x="644" y="158" type="line"/>
      <point x="267" y="158" type="line"/>
      <point x="267" y="273" type="line"/>
      <point x="600" y="273" type="line"/>
      <point x="600" y="431" type="line"/>
      <point x="267" y="431" type="line"/>
      <point x="267" y="542" type="line"/>
      <point x="634" y="542" type="line"/>
      <point x="634" y="701" type="line"/>
    </contour>
  </outline>
</glyph>
<glyph name="eogonek" format="1">
  <advance width="609"/>
  <unicode hex="0119"/>
  <outline>
    <contour>
      <point x="19" y="270" type="curve" smooth="yes"/>
      <point x="19" y="103"/>
      <point x="130" y="-7"/>
      <point x="311" y="-7" type="curve" smooth="yes"/>
      <point x="339" y="-7"/>
      <point x="367" y="-1"/>
      <point x="393" y="10" type="curve"/>
      <point x="363" y="-31"/>
      <point x="342" y="-75"/>
      <point x="342" y="-117" type="curve" smooth="yes"/>
      <point x="342" y="-184"/>
      <point x="393" y="-203"/>
      <point x="434" y="-203" type="curve" smooth="yes"/>
      <point x="481" y="-203"/>
      <point x="521" y="-179"/>
      <point x="548" y="-132" type="curve"/>
      <point x="498" y="-73" type="line"/>
      <point x="486" y="-92"/>
      <point x="473" y="-104"/>
      <point x="459" y="-104" type="curve" smooth="yes"/>
      <point x="449" y="-104"/>
      <point x="442" y="-97"/>
      <point x="442" y="-84" type="curve" smooth="yes"/>
      <point x="442" y="-38"/>
      <point x="514" y="46"/>
      <point x="554" y="91" type="curve"/>
      <point x="448" y="194" type="line"/>
      <point x="413" y="161"/>
      <point x="371" y="142"/>
      <point x="329" y="142" type="curve" smooth="yes"/>
      <point x="276" y="142"/>
      <point x="239" y="171"/>
      <point x="223" y="223" type="curve"/>
      <point x="589" y="223" type="line"/>
      <point x="601" y="424"/>
      <point x="494" y="552"/>
      <point x="306" y="551" type="curve" smooth="yes"/>
      <point x="131" y="550"/>
      <point x="19" y="438"/>
    </contour>
    <contour>
      <point x="390" y="322" type="curve"/>
      <point x="219" y="322" type="line"/>
      <point x="228" y="376"/>
      <point x="261" y="414"/>
      <point x="309" y="414" type="curve" smooth="yes"/>
      <point x="358" y="414"/>
      <point x="392" y="376"/>
    </contour>
  </outline>
</glyph>
<glyph name="gcommaaccent" format="1">
  <advance width="651"/>
  <unicode hex="0123"/>
  <outline>
    <contour>
      <point x="319" y="581" type="curve" smooth="yes"/>
      <point x="374" y="581"/>
      <point x="413" y="619"/>
      <point x="413" y="674" type="curve" smooth="yes"/>
      <point x="413.0" y="702.734136191"/>
      <point x="401.702266436" y="729.025519178"/>
      <point x="377.41953" y="746.28578" type="curve"/>
      <point x="426.0" y="864.0" type="line"/>
      <point x="331" y="864.0" type="line"/>
      <point x="251.0" y="747.0" type="line" smooth="yes"/>
      <point x="236" y="726"/>
      <point x="226" y="702"/>
      <point x="226" y="673" type="curve" smooth="yes"/>
      <point x="226" y="613"/>
      <point x="270" y="581"/>
    </contour>
    <contour>
      <point x="301.0" y="176.0" type="curve" smooth="yes"/>
      <point x="245" y="176"/>
      <point x="208" y="221"/>
      <point x="208" y="288" type="curve" smooth="yes"/>
      <point x="208" y="356"/>
      <point x="245" y="402"/>
      <point x="301" y="402" type="curve" smooth="yes"/>
      <point x="350.736339455" y="402.0"/>
      <point x="385.753121117" y="365.201105518"/>
      <point x="392.0" y="307.08625" type="curve"/>
      <point x="392.0" y="269.46723" type="line"/>
      <point x="385.753121117" y="212.798894482"/>
      <point x="350.736339455" y="176.0"/>
    </contour>
    <contour>
      <point x="293" y="-203" type="curve" smooth="yes"/>
      <point x="471" y="-203"/>
      <point x="593" y="-106"/>
      <point x="593" y="47" type="curve" smooth="yes"/>
      <point x="593" y="544" type="line"/>
      <point x="392.0" y="544" type="line"/>
      <point x="392.0" y="485.74194" type="line"/>
      <point x="356.641252757" y="527.580350369"/>
      <point x="306.081324795" y="551.0"/>
      <point x="243.0" y="551.0" type="curve" smooth="yes"/>
      <point x="112" y="551"/>
      <point x="19" y="449"/>
      <point x="19" y="294" type="curve" smooth="yes"/>
      <point x="19" y="135"/>
      <point x="115" y="31"/>
      <point x="247" y="31" type="curve" smooth="yes"/>
      <point x="308.565736683" y="31.0"/>
      <point x="357.571767079" y="53.8766078818"/>
      <point x="392.0" y="94.97982" type="curve"/>
      <point x="392.0" y="41" type="line" smooth="yes"/>
      <point x="392" y="-12"/>
      <point x="350" y="-46"/>
      <point x="276" y="-46" type="curve" smooth="yes"/>
      <point x="221" y="-46"/>
      <point x="158" y="-28"/>
      <point x="109" y="4" type="curve"/>
      <point x="43" y="-132" type="line"/>
      <point x="102" y="-171"/>
      <point x="193" y="-203"/>
    </contour>
  </outline>
</glyph>
<glyph name="Hbar" format="1">
  <advance width="875"/>
  <unicode hex="0126"/>
  <outline>
    <contour>
      <point x="313" y="422.0" type="line"/>
      <point x="313" y="510.0" type="line"/>
      <point x="562" y="510.0" type="line"/>
      <point x="562" y="422.0" type="line"/>
    </contour>
    <contour>
      <point x="313" y="261" type="line"/>
      <point x="562" y="261" type="line"/>
      <point x="562" y="0" type="line"/>
      <point x="770.0" y="0" type="line"/>
      <point x="770.0" y="510.0" type="line"/>
      <point x="853.0" y="510.0" type="line"/>
      <point x="853.0" y="621" type="line"/>
      <point x="770.0" y="621" type="line"/>
      <point x="770.0" y="701.0" type="line"/>
      <point x="562" y="701.0" type="line"/>
      <point x="562" y="621" type="line"/>
      <point x="313" y="621" type="line"/>
      <point x="313" y="701.0" type="line"/>
      <point x="105.0" y="701.0" type="line"/>
      <point x="105.0" y="621" type="line"/>
      <point x="23.0" y="621" type="line"/>
      <point x="23.0" y="510.0" type="line"/>
      <point x="105.0" y="510.0" type="line"/>
      <point x="105.0" y="0" type="line"/>
      <point x="313" y="0" type="line"/>
    </contour>
  </outline>
</glyph>
<glyph name="hbar" format="1">
  <advance width="706"/>
  <unicode hex="0127"/>
  <outline>
    <contour>
      <point x="268" y="269" type="line"/>
      <point x="268" y="331"/>
      <point x="302" y="374"/>
      <point x="357" y="375" type="curve" smooth="yes"/>
      <point x="405" y="375"/>
      <point x="435" y="341"/>
      <point x="435" y="287" type="curve" smooth="yes"/>
      <point x="435.0" y="0" type="line"/>
      <point x="637" y="0" type="line"/>
      <point x="637" y="345" type="line" smooth="yes"/>
      <point x="637" y="471"/>
      <point x="558" y="552"/>
      <point x="441" y="552" type="curve" smooth="yes"/>
      <point x="364.738498503" y="552.0"/>
      <point x="305.519456039" y="519.774259284"/>
      <point x="268" y="460.29969" type="curve"/>
      <point x="268" y="569" type="line"/>
      <point x="374.0" y="569" type="line"/>
      <point x="374.0" y="677" type="line"/>
      <point x="268" y="677" type="line"/>
      <point x="268" y="742.0" type="line"/>
      <point x="66" y="742.0" type="line"/>
      <point x="66" y="677" type="line"/>
      <point x="-12.0" y="677" type="line"/>
      <point x="-12.0" y="569" type="line"/>
      <point x="66" y="569" type="line"/>
      <point x="66" y="0" type="line"/>
      <point x="268" y="0" type="line"/>
    </contour>
  </outline>
</glyph>
<glyph name="Iogonek" format="1">
  <advance width="326"/>
  <unicode hex="012E"/>
  <outline>
    <contour>
      <point x="238" y="-73" type="line"/>
      <point x="226" y="-92"/>
      <point x="213" y="-104"/>
      <point x="199" y="-104" type="curve" smooth="yes"/>
      <point x="189" y="-104"/>
      <point x="181" y="-97"/>
      <point x="181" y="-85" type="curve" smooth="yes"/>
      <point x="181" y="-67"/>
      <point x="197" y="-36"/>
      <point x="222" y="0" type="curve"/>
      <point x="267" y="0" type="line"/>
      <point x="267" y="701" type="line"/>
      <point x="59" y="701" type="line"/>
      <point x="59" y="0" type="line"/>
      <point x="126" y="0" type="line"/>
      <point x="101" y="-39"/>
      <point x="82" y="-78"/>
      <point x="82" y="-118" type="curve" smooth="yes"/>
      <point x="82" y="-184"/>
      <point x="133" y="-203"/>
      <point x="174" y="-203" type="curve" smooth="yes"/>
      <point x="220" y="-203"/>
      <point x="262" y="-179"/>
      <point x="289" y="-132" type="curve"/>
    </contour>
  </outline>
</glyph>
<glyph name="iogonek" format="1">
  <advance width="302"/>
  <unicode hex="012F"/>
  <outline>
    <contour>
      <point x="47" y="699" type="curve" smooth="yes"/>
      <point x="47" y="638"/>
      <point x="90" y="595"/>
      <point x="151" y="595" type="curve" smooth="yes"/>
      <point x="212" y="595"/>
      <point x="255" y="638"/>
      <point x="255" y="699" type="curve" smooth="yes"/>
      <point x="255" y="760"/>
      <point x="212" y="803"/>
      <point x="151" y="803" type="curve" smooth="yes"/>
      <point x="90" y="803"/>
      <point x="47" y="760"/>
    </contour>
    <contour>
      <point x="50" y="544" type="line"/>
      <point x="50" y="0" type="line"/>
      <point x="107" y="0" type="line"/>
      <point x="81" y="-39"/>
      <point x="62" y="-78"/>
      <point x="62" y="-118" type="curve" smooth="yes"/>
      <point x="62" y="-184"/>
      <point x="113" y="-203"/>
      <point x="155" y="-203" type="curve" smooth="yes"/>
      <point x="201" y="-203"/>
      <point x="243" y="-179"/>
      <point x="270" y="-132" type="curve"/>
      <point x="219" y="-73" type="line"/>
      <point x="207" y="-92"/>
      <point x="194" y="-104"/>
      <point x="180" y="-104" type="curve" smooth="yes"/>
      <point x="170" y="-104"/>
      <point x="162" y="-97"/>
      <point x="162" y="-85" type="curve" smooth="yes"/>
      <point x="162" y="-67"/>
      <point x="178" y="-36"/>
      <point x="203" y="0" type="curve"/>
      <point x="252" y="0" type="line"/>
      <point x="252" y="544" type="line"/>
    </contour>
  </outline>
</glyph>
<glyph name="idotless" format="1">
  <advance width="324"/>
  <unicode hex="0131"/>
  <outline>
    <contour>
      <point x="282" y="10" type="move" name="ogonek"/>
    </contour>
    <contour>
      <point x="163" y="544" type="move" name="abvm"/>
    </contour>
    <contour>
      <point x="61" y="544" type="line"/>
      <point x="61" y="0" type="line"/>
      <point x="263" y="0" type="line"/>
      <point x="263" y="544" type="line"/>
    </contour>
  </outline>
</glyph>
<glyph name="kgreenlandic" format="1">
  <advance width="642"/>
  <unicode hex="0138"/>
  <outline>
    <contour>
      <point x="317" y="0" type="move" name="blwm"/>
    </contour>
    <contour>
      <point x="282" y="10" type="move" name="ogonek"/>
    </contour>
    <contour>
      <point x="163" y="544" type="move" name="abvm"/>
    </contour>
    <contour>
      <point x="401.0" y="0" type="line"/>
      <point x="641" y="0" type="line"/>
      <point x="441.01575" y="334.24598" type="line"/>
      <point x="640" y="544" type="line"/>
      <point x="411.0" y="544" type="line"/>
      <point x="263" y="382.03774" type="line"/>
      <point x="263" y="544" type="line"/>
      <point x="61.0" y="544" type="line"/>
      <point x="61.0" y="0" type="line"/>
      <point x="263" y="0" type="line"/>
      <point x="263" y="146.59536" type="line"/>
      <point x="302.73316" y="188.47902" type="line"/>
    </contour>
  </outline>
</glyph>
<glyph name="ldot" format="1">
  <advance width="430"/>
  <unicode hex="0140"/>
  <outline>
    <contour>
      <point x="66" y="742" type="line"/>
      <point x="66" y="0" type="line"/>
      <point x="268" y="0" type="line"/>
      <point x="268" y="742" type="line"/>
    </contour>
    <contour>
      <point x="286" y="313" type="curve" smooth="yes"/>
      <point x="286" y="258"/>
      <point x="325" y="220"/>
      <point x="380" y="220" type="curve" smooth="yes"/>
      <point x="435" y="220"/>
      <point x="474" y="258"/>
      <point x="474" y="313" type="curve" smooth="yes"/>
      <point x="474" y="369"/>
      <point x="435" y="407"/>
      <point x="380" y="407" type="curve" smooth="yes"/>
      <point x="325" y="407"/>
      <point x="286" y="369"/>
    </contour>
  </outline>
</glyph>
<glyph name="Lslash" format="1">
  <advance width="595"/>
  <unicode hex="0141"/>
  <outline>
    <contour>
      <point x="582" y="0" type="line"/>
      <point x="582" y="174.0" type="line"/>
      <point x="288" y="174.0" type="line"/>
      <point x="288" y="372.65101" type="line"/>
      <point x="459.0" y="422.0" type="line"/>
      <point x="424.0" y="544" type="line"/>
      <point x="288" y="504.35874" type="line"/>
      <point x="288" y="701.0" type="line"/>
      <point x="80" y="701.0" type="line"/>
      <point x="80" y="443.73094" type="line"/>
      <point x="-22.0" y="414.0" type="line"/>
      <point x="12.0" y="293" type="line"/>
      <point x="80" y="312.62416" type="line"/>
      <point x="80" y="0" type="line"/>
    </contour>
  </outline>
</glyph>
<glyph name="lslash" format="1">
  <advance width="370"/>
  <unicode hex="0142"/>
  <outline>
    <contour>
      <point x="295" y="0" type="line"/>
      <point x="295" y="390.09091" type="line"/>
      <point x="406.0" y="422.0" type="line"/>
      <point x="371.0" y="544" type="line"/>
      <point x="295" y="521.91133" type="line"/>
      <point x="295" y="742.0" type="line"/>
      <point x="93.0" y="742.0" type="line"/>
      <point x="93.0" y="463.20197" type="line"/>
      <point x="-35" y="426.0" type="line"/>
      <point x="-1" y="305" type="line"/>
      <point x="93.0" y="332.02211" type="line"/>
      <point x="93.0" y="0" type="line"/>
    </contour>
  </outline>
</glyph>
<glyph name="Eng" format="1">
  <advance width="783"/>
  <unicode hex="014A"/>
  <outline>
    <contour>
      <point x="392" y="0" type="move" name="blwm"/>
    </contour>
    <contour>
      <point x="392" y="701" type="move" name="abvm"/>
    </contour>
    <contour>
      <point x="470" y="-220" type="curve" smooth="yes"/>
      <point x="618" y="-220"/>
      <point x="717" y="-139"/>
      <point x="724" y="0" type="curve"/>
      <point x="725.0" y="0" type="line"/>
      <point x="725.0" y="701.0" type="line"/>
      <point x="534" y="701.0" type="line"/>
      <point x="534" y="309" type="line"/>
      <point x="237.0" y="701.0" type="line"/>
      <point x="59.0" y="701.0" type="line"/>
      <point x="59.0" y="0" type="line"/>
      <point x="250.0" y="0" type="line"/>
      <point x="250.0" y="390.0" type="line"/>
      <point x="535.27553" y="15.39577" type="line"/>
      <point x="531.141690993" y="-24.9603800553"/>
      <point x="509.289070671" y="-45.0"/>
      <point x="469.0" y="-45.0" type="curve" smooth="yes"/>
      <point x="442" y="-45"/>
      <point x="406" y="-35"/>
      <point x="366" y="-16" type="curve"/>
      <point x="295" y="-172" type="line"/>
      <point x="345" y="-203"/>
      <point x="402" y="-220"/>
    </contour>
  </outline>
</glyph>
<glyph name="eng" format="1">
  <advance width="678"/>
  <unicode hex="014B"/>
  <outline>
    <contour>
      <point x="345" y="0" type="move" name="blwm"/>
    </contour>
    <contour>
      <point x="357" y="544" type="move" name="abvm"/>
    </contour>
    <contour>
      <point x="424" y="-202" type="curve" smooth="yes"/>
      <point x="547" y="-203"/>
      <point x="632" y="-134"/>
      <point x="632" y="-21" type="curve" smooth="yes"/>
      <point x="632" y="345" type="line" smooth="yes"/>
      <point x="632" y="471"/>
      <point x="553" y="552"/>
      <point x="436" y="552" type="curve" smooth="yes"/>
      <point x="359.738498503" y="552.0"/>
      <point x="300.519456039" y="519.774259284"/>
      <point x="263" y="460.29969" type="curve"/>
      <point x="263" y="544" type="line"/>
      <point x="61.0" y="544" type="line"/>
      <point x="61.0" y="0" type="line"/>
      <point x="263" y="0" type="line"/>
      <point x="263" y="269" type="line"/>
      <point x="263" y="331"/>
      <point x="297" y="374"/>
      <point x="352" y="375" type="curve" smooth="yes"/>
      <point x="400" y="375"/>
      <point x="430" y="341"/>
      <point x="430" y="287" type="curve" smooth="yes"/>
      <point x="430.0" y="7.0" type="line" smooth="yes"/>
      <point x="430" y="-28"/>
      <point x="412" y="-45"/>
      <point x="382" y="-45" type="curve"/>
      <point x="363" y="-45"/>
      <point x="344" y="-39"/>
      <point x="324" y="-28" type="curve"/>
      <point x="277" y="-168" type="line"/>
      <point x="317" y="-190"/>
      <point x="369" y="-202"/>
    </contour>
  </outline>
</glyph>
<glyph name="OE" format="1">
  <advance width="1121"/>
  <unicode hex="0152"/>
  <outline>
    <contour>
      <point x="785" y="0" type="move" name="blwm"/>
    </contour>
    <contour>
      <point x="1073" y="10" type="move" name="ogonek"/>
    </contour>
    <contour>
      <point x="556" y="701" type="move" name="abvm"/>
    </contour>
    <contour>
      <point x="400.0" y="166" type="line"/>
      <point x="304" y="166"/>
      <point x="232" y="243"/>
      <point x="232" y="348" type="curve" smooth="yes"/>
      <point x="232" y="454"/>
      <point x="304" y="532"/>
      <point x="400" y="532" type="curve"/>
      <point x="497.0" y="532" type="line"/>
      <point x="497.0" y="166.60248" type="line"/>
    </contour>
    <contour>
      <point x="400" y="0" type="curve"/>
      <point x="1080" y="0" type="line"/>
      <point x="1080" y="160" type="line"/>
      <point x="705.0" y="160" type="line"/>
      <point x="705.0" y="271" type="line"/>
      <point x="1036" y="271" type="line"/>
      <point x="1036" y="431.0" type="line"/>
      <point x="705.0" y="431.0" type="line"/>
      <point x="705.0" y="541" type="line"/>
      <point x="1071" y="541" type="line"/>
      <point x="1071" y="701.0" type="line"/>
      <point x="400.0" y="701.0" type="line"/>
      <point x="180" y="701"/>
      <point x="19" y="550"/>
      <point x="19" y="349" type="curve" smooth="yes"/>
      <point x="19" y="147"/>
      <point x="182" y="0"/>
    </contour>
  </outline>
</glyph>
<glyph name="oe" format="1">
  <advance width="1009"/>
  <unicode hex="0153"/>
  <outline>
    <contour>
      <point x="509" y="544" type="move" name="abvm"/>
    </contour>
    <contour>
      <point x="703.0" y="415.0" type="curve" smooth="yes"/>
      <point x="752" y="415"/>
      <point x="788" y="376"/>
      <point x="786" y="322" type="curve"/>
      <point x="610.73335" y="322" type="line"/>
      <point x="621.247998357" y="376.957253727"/>
      <point x="653.597176738" y="415.0"/>
    </contour>
    <contour>
      <point x="421" y="270" type="curve" smooth="yes"/>
      <point x="421" y="197"/>
      <point x="381" y="149"/>
      <point x="322" y="149" type="curve" smooth="yes"/>
      <point x="262" y="149"/>
      <point x="223" y="197"/>
      <point x="223" y="270" type="curve" smooth="yes"/>
      <point x="223" y="342"/>
      <point x="262" y="391"/>
      <point x="322" y="391" type="curve" smooth="yes"/>
      <point x="381" y="391"/>
      <point x="421" y="342"/>
    </contour>
    <contour>
      <point x="950" y="91" type="curve"/>
      <point x="845.0" y="194.0" type="line"/>
      <point x="809" y="161"/>
      <point x="767" y="142"/>
      <point x="724" y="142" type="curve" smooth="yes"/>
      <point x="669.888074135" y="142.0"/>
      <point x="629.520293573" y="172.476148277"/>
      <point x="613.9832" y="227.0" type="curve"/>
      <point x="988.0" y="227.0" type="line"/>
      <point x="999" y="423"/>
      <point x="887" y="551"/>
      <point x="701" y="551" type="curve" smooth="yes"/>
      <point x="620.381517979" y="551.0"/>
      <point x="558.247778574" y="522.101317881"/>
      <point x="516.72424" y="471.19118" type="curve"/>
      <point x="472.957801339" y="522.115560535"/>
      <point x="407.088454482" y="551.0"/>
      <point x="321.0" y="551.0" type="curve" smooth="yes"/>
      <point x="138" y="551"/>
      <point x="19" y="441"/>
      <point x="19" y="272" type="curve" smooth="yes"/>
      <point x="19" y="104"/>
      <point x="138" y="-7"/>
      <point x="321" y="-7" type="curve" smooth="yes"/>
      <point x="406.432538623" y="-7.0"/>
      <point x="471.952898375" y="21.7045695427"/>
      <point x="515.72001" y="72.03148" type="curve"/>
      <point x="557.323096301" y="21.6948093763"/>
      <point x="620.705348207" y="-7.0"/>
      <point x="706.0" y="-7.0" type="curve" smooth="yes"/>
      <point x="810" y="-7"/>
      <point x="892" y="28"/>
    </contour>
  </outline>
</glyph>
<glyph name="tbar" format="1">
  <advance width="449"/>
  <unicode hex="0167"/>
  <outline>
    <contour>
      <point x="266" y="0" type="move" name="blwm"/>
    </contour>
    <contour>
      <point x="224" y="272" type="move" name="center"/>
    </contour>
    <contour>
      <point x="282" y="-9" type="curve"/>
      <point x="337" y="-9"/>
      <point x="396" y="4"/>
      <point x="433" y="26" type="curve"/>
      <point x="397.0" y="165" type="line"/>
      <point x="374" y="156"/>
      <point x="351" y="149"/>
      <point x="336" y="149" type="curve"/>
      <point x="307" y="149"/>
      <point x="289" y="166"/>
      <point x="289" y="201" type="curve"/>
      <point x="289" y="236.0" type="line"/>
      <point x="423.0" y="236.0" type="line"/>
      <point x="423.0" y="345" type="line"/>
      <point x="289" y="345" type="line"/>
      <point x="289" y="406.0" type="line"/>
      <point x="423.0" y="406.0" type="line"/>
      <point x="423.0" y="516" type="line"/>
      <point x="289" y="516" type="line"/>
      <point x="289" y="667" type="line"/>
      <point x="88.0" y="667" type="line"/>
      <point x="88.0" y="516" type="line"/>
      <point x="13.0" y="516" type="line"/>
      <point x="13.0" y="406.0" type="line"/>
      <point x="88.0" y="406.0" type="line"/>
      <point x="88.0" y="345" type="line"/>
      <point x="13.0" y="345" type="line"/>
      <point x="13.0" y="236.0" type="line"/>
      <point x="88.0" y="236.0" type="line"/>
      <point x="88.0" y="170" type="line"/>
      <point x="88" y="57"/>
      <point x="166" y="-10"/>
    </contour>
  </outline>
</glyph>
<glyph name="Uogonek" format="1">
  <advance width="756"/>
  <unicode hex="0172"/>
  <outline>
    <contour>
      <point x="459" y="-203" type="curve" smooth="yes"/>
      <point x="506" y="-203"/>
      <point x="547" y="-179"/>
      <point x="574" y="-132" type="curve"/>
      <point x="524" y="-73" type="line"/>
      <point x="512" y="-92"/>
      <point x="498" y="-104"/>
      <point x="484" y="-104" type="curve" smooth="yes"/>
      <point x="474" y="-104"/>
      <point x="467" y="-97"/>
      <point x="467" y="-85" type="curve" smooth="yes"/>
      <point x="467.0" y="-65.4103249903"/>
      <point x="487.014452246" y="-29.2869720379"/>
      <point x="516.49057" y="12.80509" type="curve"/>
      <point x="636.3450682" y="55.1762509757"/>
      <point x="708.0" y="156.834686306"/>
      <point x="708.0" y="296.0" type="curve" smooth="yes"/>
      <point x="708.0" y="701.0" type="line"/>
      <point x="499.0" y="701.0" type="line"/>
      <point x="499.0" y="296" type="line" smooth="yes"/>
      <point x="499" y="214"/>
      <point x="450" y="165"/>
      <point x="381" y="165" type="curve" smooth="yes"/>
      <point x="311" y="165"/>
      <point x="256" y="215"/>
      <point x="256" y="296" type="curve" smooth="yes"/>
      <point x="256" y="701.0" type="line"/>
      <point x="48.0" y="701.0" type="line"/>
      <point x="48.0" y="296" type="line" smooth="yes"/>
      <point x="48" y="110"/>
      <point x="179" y="-9"/>
      <point x="380" y="-9" type="curve" smooth="yes"/>
      <point x="388.901867125" y="-9.0"/>
      <point x="397.661096422" y="-8.764251366"/>
      <point x="406.27275" y="-8.29004" type="curve"/>
      <point x="383.813444863" y="-43.6089704288"/>
      <point x="367.0" y="-80.8044852144"/>
      <point x="367.0" y="-118.0" type="curve" smooth="yes"/>
      <point x="367" y="-184"/>
      <point x="418" y="-203"/>
    </contour>
  </outline>
</glyph>
<glyph name="uogonek" format="1">
  <advance width="665"/>
  <unicode hex="0173"/>
  <outline>
    <contour>
      <point x="413" y="544" type="line"/>
      <point x="413" y="270" type="line" smooth="yes"/>
      <point x="411" y="210"/>
      <point x="378" y="170"/>
      <point x="325" y="169" type="curve" smooth="yes"/>
      <point x="278" y="169"/>
      <point x="248" y="203"/>
      <point x="248" y="256" type="curve" smooth="yes"/>
      <point x="248" y="544" type="line"/>
      <point x="46" y="544" type="line"/>
      <point x="46" y="199" type="line" smooth="yes"/>
      <point x="46" y="72"/>
      <point x="125" y="-9"/>
      <point x="242" y="-9" type="curve" smooth="yes"/>
      <point x="317" y="-9"/>
      <point x="375" y="23"/>
      <point x="413" y="83" type="curve"/>
      <point x="413" y="0" type="line"/>
      <point x="468" y="0" type="line"/>
      <point x="442" y="-39"/>
      <point x="423" y="-78"/>
      <point x="423" y="-118" type="curve" smooth="yes"/>
      <point x="423" y="-184"/>
      <point x="474" y="-203"/>
      <point x="515" y="-203" type="curve" smooth="yes"/>
      <point x="562" y="-203"/>
      <point x="603" y="-179"/>
      <point x="630" y="-132" type="curve"/>
      <point x="580" y="-73" type="line"/>
      <point x="568" y="-92"/>
      <point x="554" y="-104"/>
      <point x="540" y="-104" type="curve" smooth="yes"/>
      <point x="530" y="-104"/>
      <point x="523" y="-97"/>
      <point x="523" y="-85" type="curve" smooth="yes"/>
      <point x="523" y="-67"/>
      <point x="538" y="-36"/>
      <point x="563" y="0" type="curve"/>
      <point x="614" y="0" type="line"/>
      <point x="614" y="544" type="line"/>
    </contour>
  </outline>
</glyph>
<glyph name="florin" format="1">
  <advance width="429"/>
  <unicode hex="0192"/>
  <note>
    florin
  </note>
  <outline>
    <contour>
      <point x="437" y="575" type="curve"/>
      <point x="504" y="713" type="line"/>
      <point x="465" y="737"/>
      <point x="404" y="752"/>
      <point x="346" y="752" type="curve" smooth="yes"/>
      <point x="222" y="753"/>
      <point x="132" y="681"/>
      <point x="118" y="570" type="curve" smooth="yes"/>
      <point x="105" y="466" type="line"/>
      <point x="31" y="466" type="line"/>
      <point x="15" y="338" type="line"/>
      <point x="89" y="338" type="line"/>
      <point x="49" y="10" type="line" smooth="yes"/>
      <point x="44" y="-25"/>
      <point x="25" y="-47"/>
      <point x="-5" y="-46" type="curve" smooth="yes"/>
      <point x="-22" y="-46"/>
      <point x="-44" y="-39"/>
      <point x="-60" y="-26" type="curve"/>
      <point x="-110" y="-164" type="line"/>
      <point x="-79" y="-188"/>
      <point x="-27" y="-203"/>
      <point x="19" y="-203" type="curve" smooth="yes"/>
      <point x="145" y="-204"/>
      <point x="232" y="-132"/>
      <point x="246" y="-21" type="curve" smooth="yes"/>
      <point x="290" y="338" type="line"/>
      <point x="403" y="338" type="line"/>
      <point x="419" y="466" type="line"/>
      <point x="306" y="466" type="line"/>
      <point x="315" y="540" type="line" smooth="yes"/>
      <point x="319" y="575"/>
      <point x="344" y="596"/>
      <point x="380" y="595" type="curve" smooth="yes"/>
      <point x="397" y="595"/>
      <point x="420" y="588"/>
    </contour>
  </outline>
</glyph>
<glyph name="jdotless" format="1">
  <advance width="324"/>
  <unicode hex="0237"/>
  <outline>
    <contour>
      <point x="158" y="544" type="move" name="abvm"/>
    </contour>
    <contour>
      <point x="65" y="544" type="line"/>
      <point x="65" y="12" type="line"/>
      <point x="65" y="-27"/>
      <point x="47" y="-46"/>
      <point x="15" y="-45" type="curve"/>
      <point x="-5" y="-45"/>
      <point x="-24" y="-40"/>
      <point x="-44" y="-29" type="curve"/>
      <point x="-90" y="-168" type="line"/>
      <point x="-48" y="-190"/>
      <point x="4" y="-202"/>
      <point x="61" y="-202" type="curve"/>
      <point x="187" y="-203"/>
      <point x="267" y="-133"/>
      <point x="267" y="-18" type="curve"/>
      <point x="267" y="544" type="line"/>
    </contour>
  </outline>
</glyph>
<glyph name="circumflex" format="1">
  <advance width="350"/>
  <unicode hex="02C6"/>
  <outline>
    <contour>
      <point x="175" y="544" type="move" name="_abvm"/>
    </contour>
    <contour>
      <point x="98" y="766" type="line"/>
      <point x="-19" y="609" type="line"/>
      <point x="119" y="609" type="line"/>
      <point x="175" y="692" type="line"/>
      <point x="232" y="609" type="line"/>
      <point x="370" y="609" type="line"/>
      <point x="253" y="766" type="line"/>
    </contour>
  </outline>
</glyph>
<glyph name="caron" format="1">
  <advance width="350"/>
  <unicode hex="02C7"/>
  <outline>
    <contour>
      <point x="180" y="544" type="move" name="_abvm"/>
    </contour>
    <contour>
      <point x="259" y="594" type="line"/>
      <point x="387" y="766" type="line"/>
      <point x="235" y="766" type="line"/>
      <point x="175" y="675" type="line"/>
      <point x="114" y="766" type="line"/>
      <point x="-38" y="766" type="line"/>
      <point x="90" y="594" type="line"/>
    </contour>
  </outline>
</glyph>
<glyph name="breve" format="1">
  <advance width="350"/>
  <unicode hex="02D8"/>
  <outline>
    <contour>
      <point x="175" y="544" type="move" name="_abvm"/>
    </contour>
    <contour>
      <point x="227" y="765" type="line"/>
      <point x="224" y="733"/>
      <point x="204" y="711"/>
      <point x="175" y="711" type="curve" smooth="yes"/>
      <point x="146" y="711"/>
      <point x="126" y="733"/>
      <point x="123" y="765" type="curve"/>
      <point x="0" y="765" type="line"/>
      <point x="5" y="663"/>
      <point x="74" y="598"/>
      <point x="175" y="598" type="curve" smooth="yes"/>
      <point x="276" y="598"/>
      <point x="345" y="663"/>
      <point x="350" y="765" type="curve"/>
    </contour>
  </outline>
</glyph>
<glyph name="dotaccent" format="1">
  <advance width="350"/>
  <unicode hex="02D9"/>
  <outline>
    <contour>
      <point x="175" y="544" type="move" name="_abvm"/>
    </contour>
    <contour>
      <point x="71" y="699" type="curve" smooth="yes"/>
      <point x="71" y="638"/>
      <point x="114" y="595"/>
      <point x="175" y="595" type="curve" smooth="yes"/>
      <point x="236" y="595"/>
      <point x="279" y="638"/>
      <point x="279" y="699" type="curve" smooth="yes"/>
      <point x="279" y="760"/>
      <point x="236" y="803"/>
      <point x="175" y="803" type="curve" smooth="yes"/>
      <point x="114" y="803"/>
      <point x="71" y="760"/>
    </contour>
  </outline>
</glyph>
<glyph name="ring" format="1">
  <advance width="350"/>
  <unicode hex="02DA"/>
  <outline>
    <contour>
      <point x="175" y="544" type="move" name="_abvm"/>
    </contour>
    <contour>
      <point x="52" y="699" type="curve" smooth="yes"/>
      <point x="52" y="631"/>
      <point x="107" y="577"/>
      <point x="175" y="577" type="curve" smooth="yes"/>
      <point x="243" y="577"/>
      <point x="297" y="631"/>
      <point x="297" y="699" type="curve" smooth="yes"/>
      <point x="297" y="767"/>
      <point x="243" y="821"/>
      <point x="175" y="821" type="curve" smooth="yes"/>
      <point x="107" y="821"/>
      <point x="52" y="767"/>
    </contour>
    <contour>
      <point x="220" y="699" type="curve" smooth="yes"/>
      <point x="220" y="674"/>
      <point x="200" y="654"/>
      <point x="175" y="654" type="curve" smooth="yes"/>
      <point x="150" y="654"/>
      <point x="130" y="674"/>
      <point x="130" y="699" type="curve" smooth="yes"/>
      <point x="130" y="724"/>
      <point x="150" y="744"/>
      <point x="175" y="744" type="curve" smooth="yes"/>
      <point x="200" y="744"/>
      <point x="220" y="724"/>
    </contour>
  </outline>
</glyph>
<glyph name="ogonek" format="1">
  <advance width="350"/>
  <unicode hex="02DB"/>
  <outline>
    <contour>
      <point x="280" y="10" type="move" name="_ogonek"/>
    </contour>
    <contour>
      <point x="133" y="21" type="line"/>
      <point x="101" y="-22"/>
      <point x="73" y="-70"/>
      <point x="73" y="-118" type="curve" smooth="yes"/>
      <point x="73" y="-184"/>
      <point x="124" y="-203"/>
      <point x="165" y="-203" type="curve" smooth="yes"/>
      <point x="212" y="-203"/>
      <point x="253" y="-179"/>
      <point x="280" y="-132" type="curve"/>
      <point x="230" y="-73" type="line"/>
      <point x="218" y="-92"/>
      <point x="204" y="-104"/>
      <point x="190" y="-104" type="curve" smooth="yes"/>
      <point x="180" y="-104"/>
      <point x="173" y="-97"/>
      <point x="173" y="-85" type="curve" smooth="yes"/>
      <point x="173" y="-64"/>
      <point x="195" y="-24"/>
      <point x="228" y="21" type="curve"/>
    </contour>
  </outline>
</glyph>
<glyph name="tilde" format="1">
  <advance width="350"/>
  <unicode hex="02DC"/>
  <outline>
    <contour>
      <point x="175" y="544" type="move" name="_abvm"/>
    </contour>
    <contour>
      <point x="-12" y="617" type="curve"/>
      <point x="111" y="617" type="line"/>
      <point x="111" y="644"/>
      <point x="119" y="657"/>
      <point x="137" y="657" type="curve"/>
      <point x="163" y="657"/>
      <point x="189" y="614"/>
      <point x="251" y="614" type="curve"/>
      <point x="326" y="614"/>
      <point x="362" y="669"/>
      <point x="362" y="785" type="curve"/>
      <point x="240" y="785" type="line"/>
      <point x="240" y="758"/>
      <point x="232" y="745"/>
      <point x="213" y="745" type="curve"/>
      <point x="188" y="745"/>
      <point x="160" y="788"/>
      <point x="100" y="788" type="curve"/>
      <point x="25" y="788"/>
      <point x="-12" y="733"/>
    </contour>
  </outline>
</glyph>
<glyph name="hungarumlaut" format="1">
  <advance width="350"/>
  <unicode hex="02DD"/>
  <outline>
    <contour>
      <point x="142" y="544" type="move" name="_abvm"/>
    </contour>
    <contour>
      <point x="-47" y="595" type="line"/>
      <point x="98" y="595" type="line"/>
      <point x="188" y="725" type="line"/>
      <point x="39" y="776" type="line"/>
    </contour>
    <contour>
      <point x="162" y="595" type="line"/>
      <point x="307" y="595" type="line"/>
      <point x="397" y="725" type="line"/>
      <point x="248" y="776" type="line"/>
    </contour>
  </outline>
</glyph>
<glyph name="commaaccentcomb" format="1">
  <advance width="254"/>
  <unicode hex="0326"/>
  <outline>
    <contour>
      <point x="122" y="0" type="move" name="_blwm"/>
    </contour>
    <contour>
      <point x="117.0" y="-320" type="line"/>
      <point x="197.0" y="-203.0" type="line" smooth="yes"/>
      <point x="212" y="-182"/>
      <point x="222" y="-158"/>
      <point x="222" y="-129" type="curve" smooth="yes"/>
      <point x="222" y="-69"/>
      <point x="178" y="-37"/>
      <point x="129" y="-37" type="curve" smooth="yes"/>
      <point x="74" y="-37"/>
      <point x="35" y="-75"/>
      <point x="35" y="-130" type="curve" smooth="yes"/>
      <point x="35.0" y="-158.734136191"/>
      <point x="46.297733564" y="-185.025519178"/>
      <point x="70.58047" y="-202.28578" type="curve"/>
      <point x="22.0" y="-320" type="line"/>
    </contour>
  </outline>
</glyph>
<glyph name="Delta" format="1">
  <advance width="786"/>
  <unicode hex="0394"/>
  <outline>
    <contour>
      <point x="392.0" y="493.0" type="line"/>
      <point x="517.92901" y="150" type="line"/>
      <point x="262.59229" y="150" type="line"/>
    </contour>
    <contour>
      <point x="-7.0" y="0" type="line"/>
      <point x="793.995" y="0" type="line"/>
      <point x="505.0" y="701.0" type="line"/>
      <point x="291" y="701.0" type="line"/>
    </contour>
  </outline>
</glyph>
<glyph name="Omega" format="1">
  <advance width="844"/>
  <unicode hex="03A9"/>
  <outline>
    <contour>
      <point x="20" y="701" type="move" name="topleft"/>
    </contour>
    <contour>
      <point x="62" y="387" type="curve" smooth="yes"/>
      <point x="62" y="309"/>
      <point x="105" y="215"/>
      <point x="165" y="162" type="curve"/>
      <point x="6" y="162" type="line"/>
      <point x="6" y="0" type="line"/>
      <point x="364" y="0" type="line"/>
      <point x="364" y="149" type="line"/>
      <point x="296" y="199"/>
      <point x="246" y="292"/>
      <point x="246" y="369" type="curve" smooth="yes"/>
      <point x="246" y="469"/>
      <point x="320" y="541"/>
      <point x="421" y="541" type="curve" smooth="yes"/>
      <point x="523" y="541"/>
      <point x="598" y="469"/>
      <point x="598" y="369" type="curve" smooth="yes"/>
      <point x="598" y="292"/>
      <point x="548" y="199"/>
      <point x="480" y="150" type="curve"/>
      <point x="480" y="0" type="line"/>
      <point x="838" y="0" type="line"/>
      <point x="838" y="162" type="line"/>
      <point x="680" y="162" type="line"/>
      <point x="739" y="216"/>
      <point x="782" y="310"/>
      <point x="782" y="387" type="curve" smooth="yes"/>
      <point x="782" y="574"/>
      <point x="630" y="711"/>
      <point x="421" y="711" type="curve" smooth="yes"/>
      <point x="214" y="711"/>
      <point x="62" y="574"/>
    </contour>
  </outline>
</glyph>
<glyph name="pi" format="1">
  <advance width="731"/>
  <unicode hex="03C0"/>
  <outline>
    <contour>
      <point x="336" y="0" type="line"/>
      <point x="378.31981" y="403.0" type="line"/>
      <point x="438.0" y="403.0" type="line"/>
      <point x="438.0" y="0" type="line"/>
      <point x="604" y="0" type="line"/>
      <point x="604" y="403.0" type="line"/>
      <point x="718.0" y="403.0" type="line"/>
      <point x="718.0" y="544" type="line"/>
      <point x="163" y="544" type="line"/>
      <point x="56" y="544"/>
      <point x="-21" y="477"/>
      <point x="-20" y="386" type="curve"/>
      <point x="-20" y="341"/>
      <point x="-4" y="284"/>
      <point x="18" y="240" type="curve"/>
      <point x="156" y="287" type="line"/>
      <point x="145" y="309"/>
      <point x="137" y="335"/>
      <point x="137" y="352" type="curve"/>
      <point x="136" y="382"/>
      <point x="158" y="403"/>
      <point x="190" y="403" type="curve"/>
      <point x="212.31981" y="403.0" type="line"/>
      <point x="170" y="0" type="line"/>
    </contour>
  </outline>
</glyph>
<glyph name="uni0964" format="1">
  <advance width="346"/>
  <unicode hex="0964"/>
  <outline>
    <contour>
      <point x="314" y="-51" type="line"/>
      <point x="314" y="680" type="line"/>
      <point x="123" y="680" type="line"/>
      <point x="123" y="-51" type="line"/>
    </contour>
  </outline>
</glyph>
<glyph name="uni0A01" format="1">
  <advance width="0"/>
  <unicode hex="0A01"/>
  <outline>
    <contour>
      <point x="0" y="692" type="move" name="_abvm_candra"/>
    </contour>
    <contour>
      <point x="0" y="940" type="move" name="abvm_bindu"/>
    </contour>
    <contour>
      <point x="69" y="928" type="curve" smooth="yes"/>
      <point x="69" y="969"/>
      <point x="41" y="996"/>
      <point x="-1" y="996" type="curve" smooth="yes"/>
      <point x="-42" y="996"/>
      <point x="-70" y="969"/>
      <point x="-70" y="928" type="curve" smooth="yes"/>
      <point x="-70" y="888"/>
      <point x="-42" y="860"/>
      <point x="-1" y="860" type="curve" smooth="yes"/>
      <point x="41" y="860"/>
      <point x="69" y="888"/>
    </contour>
    <contour>
      <point x="216" y="926" type="curve"/>
      <point x="108" y="948" type="line"/>
      <point x="99" y="886"/>
      <point x="81" y="830"/>
      <point x="-2" y="830" type="curve" smooth="yes"/>
      <point x="-84" y="830"/>
      <point x="-100" y="886"/>
      <point x="-109" y="946" type="curve"/>
      <point x="-217" y="926" type="line"/>
      <point x="-212" y="816"/>
      <point x="-127" y="722"/>
      <point x="2" y="722" type="curve" smooth="yes"/>
      <point x="131" y="722"/>
      <point x="212" y="816"/>
    </contour>
  </outline>
</glyph>
<glyph name="uni0A03" format="1">
  <advance width="518"/>
  <unicode hex="0A03"/>
  <outline>
    <contour>
      <point x="418" y="518" type="curve" smooth="yes"/>
      <point x="418" y="602"/>
      <point x="345" y="674"/>
      <point x="260" y="674" type="curve" smooth="yes"/>
      <point x="173" y="674"/>
      <point x="100" y="602"/>
      <point x="100" y="518" type="curve" smooth="yes"/>
      <point x="100" y="434"/>
      <point x="173" y="361"/>
      <point x="260" y="361" type="curve" smooth="yes"/>
      <point x="345" y="361"/>
      <point x="418" y="434"/>
    </contour>
    <contour>
      <point x="217" y="518" type="curve" smooth="yes"/>
      <point x="217" y="542"/>
      <point x="236" y="560"/>
      <point x="259" y="560" type="curve" smooth="yes"/>
      <point x="281" y="560"/>
      <point x="300" y="542"/>
      <point x="300" y="518" type="curve" smooth="yes"/>
      <point x="300" y="493"/>
      <point x="281" y="474"/>
      <point x="259" y="474" type="curve" smooth="yes"/>
      <point x="236" y="474"/>
      <point x="217" y="493"/>
    </contour>
    <contour>
      <point x="418" y="164" type="curve" smooth="yes"/>
      <point x="418" y="247"/>
      <point x="345" y="319"/>
      <point x="260" y="319" type="curve" smooth="yes"/>
      <point x="173" y="319"/>
      <point x="100" y="247"/>
      <point x="100" y="164" type="curve" smooth="yes"/>
      <point x="100" y="79"/>
      <point x="173" y="6"/>
      <point x="260" y="6" type="curve" smooth="yes"/>
      <point x="345" y="6"/>
      <point x="418" y="79"/>
    </contour>
    <contour>
      <point x="217" y="164" type="curve" smooth="yes"/>
      <point x="217" y="187"/>
      <point x="236" y="206"/>
      <point x="259" y="206" type="curve" smooth="yes"/>
      <point x="281" y="206"/>
      <point x="300" y="187"/>
      <point x="300" y="164" type="curve" smooth="yes"/>
      <point x="300" y="138"/>
      <point x="281" y="120"/>
      <point x="259" y="120" type="curve" smooth="yes"/>
      <point x="236" y="120"/>
      <point x="217" y="138"/>
    </contour>
  </outline>
</glyph>
<glyph name="uni0A05" format="1">
  <advance width="907"/>
  <unicode hex="0A05"/>
  <outline>
    <contour>
      <point x="718" y="693" type="move" name="abvm_bindu"/>
    </contour>
    <contour>
      <point x="718" y="703" type="move" name="abvm_candra"/>
    </contour>
    <contour>
      <point x="718" y="683" type="move" name="abvm"/>
    </contour>
    <contour>
      <point x="846.0" y="0" type="line"/>
      <point x="846.0" y="541" type="line"/>
      <point x="907.0" y="541" type="line"/>
      <point x="907.0" y="693" type="line"/>
      <point x="647" y="693" type="line"/>
      <point x="647" y="442.0" type="line"/>
      <point x="586.8789" y="442.0" type="line"/>
      <point x="557.9135409" y="575.168831353"/>
      <point x="455.745922469" y="636.0"/>
      <point x="350.0" y="636.0" type="curve" smooth="yes"/>
      <point x="306.640827853" y="636.0"/>
      <point x="263.95093937" y="625.960745056"/>
      <point x="225.76311" y="604.22251" type="curve"/>
      <point x="169.1808144" y="663.407588285"/>
      <point x="85.107966775" y="693.0"/>
      <point x="-2.0" y="693.0" type="curve" smooth="yes"/>
      <point x="-23.0" y="693" type="line"/>
      <point x="-23.0" y="541" type="line"/>
      <point x="12.0" y="541" type="line" smooth="yes"/>
      <point x="56.9989111963" y="541.0"/>
      <point x="109.361102425" y="528.281607217"/>
      <point x="123.0824" y="487.4067" type="curve"/>
      <point x="78.6187287139" y="418.263685748"/>
      <point x="44.4633908126" y="329.005597461"/>
      <point x="49.0" y="192.0" type="curve"/>
      <point x="210.0" y="154" type="line"/>
      <point x="264.642065884" y="246.891512003"/>
      <point x="293.573460577" y="316.560482285"/>
      <point x="296.03887" y="395.00375" type="curve"/>
      <point x="303.91224787" y="441.625771571"/>
      <point x="329.661888629" y="472.0"/>
      <point x="369.0" y="472.0" type="curve" smooth="yes"/>
      <point x="395.183525261" y="472.0"/>
      <point x="426.69931604" y="459.050212315"/>
      <point x="434.29418" y="408.23027" type="curve"/>
      <point x="357.302898851" y="327.32128958"/>
      <point x="328.0" y="217.265033887"/>
      <point x="328.0" y="134.0" type="curve" smooth="yes"/>
      <point x="328" y="113"/>
      <point x="330" y="94"/>
      <point x="333" y="77" type="curve"/>
      <point x="494.0" y="57.0" type="line"/>
      <point x="546.209966843" y="148.74037031"/>
      <point x="576.724149018" y="219.897560294"/>
      <point x="588.86192" y="290" type="curve"/>
      <point x="647" y="290" type="line"/>
      <point x="647" y="0" type="line"/>
    </contour>
  </outline>
</glyph>
<glyph name="uni0A06" format="1">
  <advance width="1234"/>
  <unicode hex="0A06"/>
  <outline>
    <contour>
      <point x="1044" y="693" type="move" name="abvm_bindu"/>
    </contour>
    <contour>
      <point x="1044" y="703" type="move" name="abvm_candra"/>
    </contour>
    <contour>
      <point x="1044" y="683" type="move" name="abvm"/>
    </contour>
    <component base="uni0A05"/>
    <component base="uni0A3E" xOffset="907"/>
  </outline>
</glyph>
<glyph name="uni0A07" format="1">
  <advance width="987"/>
  <unicode hex="0A07"/>
  <outline>
    <contour>
      <point x="802" y="680" type="move" name="abvm_bindu"/>
    </contour>
    <contour>
      <point x="802" y="690" type="move" name="abvm_candra"/>
    </contour>
    <contour>
      <point x="802" y="670" type="move" name="abvm"/>
    </contour>
    <component base="uni0A3F"/>
    <component base="uni0A72" xOffset="339"/>
  </outline>
</glyph>
<glyph name="uni0A08" format="1">
  <advance width="956"/>
  <unicode hex="0A08"/>
  <outline>
    <contour>
      <point x="1023" y="680" type="move" name="abvm_bindu"/>
    </contour>
    <contour>
      <point x="1135" y="690" type="move" name="abvm_candra"/>
    </contour>
    <contour>
      <point x="1023" y="670" type="move" name="abvm"/>
    </contour>
    <component base="uni0A72"/>
    <component base="uni0A40" xOffset="648"/>
  </outline>
</glyph>
<glyph name="uni0A0F" format="1">
  <advance width="648"/>
  <unicode hex="0A0F"/>
  <outline>
    <contour>
      <point x="457" y="670" type="move" name="_abvm"/>
    </contour>
    <contour>
      <point x="649" y="680" type="move" name="abvm_bindu"/>
    </contour>
    <contour>
      <point x="403" y="2" type="move" name="blwm"/>
    </contour>
    <contour>
      <point x="762" y="690" type="move" name="abvm_candra"/>
    </contour>
    <contour>
      <point x="405" y="30" type="move" name="blwm_caret_1"/>
    </contour>
    <contour>
      <point x="110" y="-59" type="move" name="blwm_nukta"/>
    </contour>
    <contour>
      <point x="441" y="670" type="move" name="abvm"/>
    </contour>
    <contour>
      <point x="388.0" y="427.2296" type="line"/>
      <point x="295.894083149" y="430.73314959"/>
      <point x="244.964876103" y="478.720681528"/>
      <point x="232.1289" y="541" type="curve"/>
      <point x="388.0" y="541" type="line"/>
    </contour>
    <contour>
      <point x="608" y="28" type="curve"/>
      <point x="569" y="171" type="line"/>
      <point x="507" y="150"/>
      <point x="448" y="138"/>
      <point x="380" y="138" type="curve" smooth="yes"/>
      <point x="320.483372152" y="138.0"/>
      <point x="255.014668706" y="146.928113397"/>
      <point x="215.03977" y="192.3825" type="curve"/>
      <point x="267.19577434" y="247.199274565"/>
      <point x="364.763949307" y="280.0"/>
      <point x="517.0" y="280.0" type="curve" smooth="yes"/>
      <point x="587" y="280" type="line"/>
      <point x="587" y="541" type="line"/>
      <point x="648" y="541" type="line"/>
      <point x="648" y="693" type="line"/>
      <point x="528.06777" y="693" type="line"/>
      <point x="506.021093196" y="860.062964257"/>
      <point x="392.088131322" y="960.0"/>
      <point x="207.0" y="960.0" type="curve" smooth="yes"/>
      <point x="161" y="960"/>
      <point x="115" y="953"/>
      <point x="73" y="938" type="curve"/>
      <point x="111.0" y="796.0" type="line"/>
      <point x="154" y="805"/>
      <point x="193" y="810"/>
      <point x="228" y="810" type="curve" smooth="yes"/>
      <point x="320.543113089" y="810.0"/>
      <point x="360.367064711" y="772.437597456"/>
      <point x="377.42937" y="693" type="curve"/>
      <point x="-23.0" y="693" type="line"/>
      <point x="-23.0" y="541" type="line"/>
      <point x="33.29904" y="541" type="line"/>
      <point x="46.3135190789" y="473.939921677"/>
      <point x="97.2317266262" y="412.006257444"/>
      <point x="175.32236" y="371.01668" type="curve"/>
      <point x="110.88281567" y="334.251676474"/>
      <point x="55.0662841738" y="288.352740469"/>
      <point x="20.0" y="234.0" type="curve"/>
      <point x="72" y="55"/>
      <point x="254" y="-17"/>
      <point x="404" y="-17" type="curve" smooth="yes"/>
      <point x="475" y="-17"/>
      <point x="546" y="-1"/>
    </contour>
  </outline>
</glyph>
<glyph name="uni0A13" format="1">
  <advance width="686"/>
  <unicode hex="0A13"/>
  <outline>
    <contour>
      <point x="668" y="680" type="move" name="abvm_bindu"/>
    </contour>
    <contour>
      <point x="413" y="2" type="move" name="blwm"/>
    </contour>
    <contour>
      <point x="785" y="650" type="move" name="abvm_candra"/>
    </contour>
    <contour>
      <point x="414" y="30" type="move" name="blwm_caret_1"/>
    </contour>
    <contour>
      <point x="92" y="-22" type="move" name="blwm_nukta"/>
    </contour>
    <contour>
      <point x="530" y="670" type="move" name="abvm"/>
    </contour>
    <contour>
      <point x="226.0" y="530.0" type="curve" smooth="yes"/>
      <point x="226.0" y="533.687383435"/>
      <point x="226.009364185" y="537.385691752"/>
      <point x="226.03097" y="541" type="curve"/>
      <point x="459.52554" y="541" type="line"/>
      <point x="445.167698449" y="466.257011136"/>
      <point x="398.254001124" y="421.0"/>
      <point x="270.0" y="421.0" type="curve" smooth="yes"/>
      <point x="230.37309" y="421.0" type="line"/>
      <point x="227.32518398" y="458.98705607"/>
      <point x="226.216657501" y="496.41808741"/>
    </contour>
    <contour>
      <point x="650" y="158" type="curve" smooth="yes"/>
      <point x="650.0" y="218.381535184"/>
      <point x="611.443459988" y="284.020780369"/>
      <point x="532.99085" y="328.55878" type="curve"/>
      <point x="618.162582806" y="384.350055599"/>
      <point x="648.935260125" y="454.900077052"/>
      <point x="655.55123" y="541" type="curve"/>
      <point x="709.0" y="541" type="line"/>
      <point x="709.0" y="693" type="line"/>
      <point x="242.46961" y="693" type="line"/>
      <point x="261.971711893" y="759.454640439"/>
      <point x="304.045678629" y="808.0"/>
      <point x="394.0" y="808.0" type="curve" smooth="yes"/>
      <point x="418" y="808"/>
      <point x="461" y="805"/>
      <point x="502" y="795" type="curve"/>
      <point x="540" y="936.0" type="line"/>
      <point x="489" y="951"/>
      <point x="432" y="958"/>
      <point x="379" y="958" type="curve" smooth="yes"/>
      <point x="167.128842114" y="958.0"/>
      <point x="80.1375859145" y="844.736833354"/>
      <point x="50.74023" y="693" type="curve"/>
      <point x="-23.0" y="693" type="line"/>
      <point x="-23.0" y="541" type="line"/>
      <point x="38.00265" y="541" type="line"/>
      <point x="38" y="274"/>
      <point x="139" y="-17"/>
      <point x="416" y="-17" type="curve" smooth="yes"/>
      <point x="565" y="-17"/>
      <point x="650" y="68"/>
    </contour>
    <contour>
      <point x="389" y="138" type="curve" smooth="yes"/>
      <point x="314.395011625" y="138.0"/>
      <point x="273.465897255" y="203.419525731"/>
      <point x="251.27523" y="288" type="curve"/>
      <point x="332" y="288" type="line" smooth="yes"/>
      <point x="407" y="288"/>
      <point x="455" y="236"/>
      <point x="455" y="192" type="curve" smooth="yes"/>
      <point x="455" y="165"/>
      <point x="437" y="138"/>
    </contour>
  </outline>
</glyph>
<glyph name="uni0A15" format="1">
  <advance width="736"/>
  <unicode hex="0A15"/>
  <outline>
    <contour>
      <point x="574" y="682" type="move" name="abvm_bindu"/>
    </contour>
    <contour>
      <point x="599" y="0" type="move" name="blwm"/>
    </contour>
    <contour>
      <point x="574" y="692" type="move" name="abvm_candra"/>
    </contour>
    <contour>
      <point x="371" y="-3" type="move" name="blwm_caret_1"/>
    </contour>
    <contour>
      <point x="119" y="-44" type="move" name="blwm_nukta"/>
    </contour>
    <contour>
      <point x="578" y="672" type="move" name="abvm"/>
    </contour>
    <contour>
      <point x="696.0" y="0" type="line"/>
      <point x="696.0" y="7.0" type="line" smooth="yes"/>
      <point x="696.0" y="81.519647992"/>
      <point x="666.980634965" y="180.22210018"/>
      <point x="610.38937" y="271.25642" type="curve"/>
      <point x="654.459740153" y="364.076977767"/>
      <point x="674.794235225" y="465.246568368"/>
      <point x="675.00534" y="541" type="curve"/>
      <point x="736.0" y="541" type="line"/>
      <point x="736.0" y="693" type="line"/>
      <point x="0" y="693" type="line"/>
      <point x="0" y="541" type="line"/>
      <point x="486.93684" y="541" type="line"/>
      <point x="486.321990757" y="504.459283379"/>
      <point x="481.16182142" y="464.292038434"/>
      <point x="469.0" y="425.0" type="curve"/>
      <point x="415" y="469"/>
      <point x="342" y="496"/>
      <point x="259" y="496" type="curve" smooth="yes"/>
      <point x="91" y="496"/>
      <point x="21" y="386"/>
      <point x="21" y="287" type="curve" smooth="yes"/>
      <point x="21" y="165"/>
      <point x="127" y="45"/>
      <point x="303" y="45" type="curve" smooth="yes"/>
      <point x="386.135106569" y="45.0"/>
      <point x="442.826164462" y="72.1786055834"/>
      <point x="488.18265" y="110.80645" type="curve"/>
      <point x="495.636818316" y="74.4310616767"/>
      <point x="498.0" y="39.6707583125"/>
      <point x="498.0" y="12.0" type="curve" smooth="yes"/>
      <point x="498.0" y="0" type="line"/>
    </contour>
    <contour>
      <point x="302.0" y="199.0" type="curve" smooth="yes"/>
      <point x="247" y="199"/>
      <point x="222" y="234"/>
      <point x="222" y="270" type="curve" smooth="yes"/>
      <point x="222" y="306"/>
      <point x="248" y="342"/>
      <point x="303" y="342" type="curve" smooth="yes"/>
      <point x="348.27759416" y="342.0"/>
      <point x="390.286596909" y="318.466141842"/>
      <point x="423.21296" y="277.1836" type="curve"/>
      <point x="393.589689287" y="227.91565294"/>
      <point x="352.614120134" y="199.0"/>
    </contour>
  </outline>
</glyph>
<glyph name="uni0A16" format="1">
  <advance width="720"/>
  <unicode hex="0A16"/>
  <outline>
    <contour>
      <point x="531" y="680" type="move" name="abvm_bindu"/>
    </contour>
    <contour>
      <point x="561" y="0" type="move" name="blwm"/>
    </contour>
    <contour>
      <point x="531" y="690" type="move" name="abvm_candra"/>
    </contour>
    <contour>
      <point x="340" y="30" type="move" name="blwm_caret_1"/>
    </contour>
    <contour>
      <point x="89" y="-8" type="move" name="blwm_nukta"/>
    </contour>
    <contour>
      <point x="531" y="670" type="move" name="abvm"/>
    </contour>
    <contour>
      <point x="659" y="0" type="line"/>
      <point x="659" y="541" type="line"/>
      <point x="720.0" y="541" type="line"/>
      <point x="720.0" y="693" type="line"/>
      <point x="460.0" y="693" type="line"/>
      <point x="460.0" y="499.0" type="line"/>
      <point x="314.23333" y="499.0" type="line"/>
      <point x="286.674148156" y="602.810708908"/>
      <point x="186.743150013" y="693.0"/>
      <point x="30.0" y="693.0" type="curve" smooth="yes"/>
      <point x="0" y="693" type="line"/>
      <point x="0" y="541" type="line"/>
      <point x="38" y="541" type="line" smooth="yes"/>
      <point x="100" y="541"/>
      <point x="129" y="508"/>
      <point x="129" y="465" type="curve" smooth="yes"/>
      <point x="129" y="419"/>
      <point x="96" y="363"/>
      <point x="36" y="324" type="curve"/>
      <point x="63" y="154"/>
      <point x="205" y="75"/>
      <point x="343" y="75" type="curve" smooth="yes"/>
      <point x="383.407708792" y="75.0"/>
      <point x="423.376615398" y="82.0208349574"/>
      <point x="460.0" y="95.49059" type="curve"/>
      <point x="460.0" y="0" type="line"/>
    </contour>
    <contour>
      <point x="320.0" y="228.0" type="curve" smooth="yes"/>
      <point x="269.367851958" y="228.0"/>
      <point x="243.112784427" y="243.581226718"/>
      <point x="229.26633" y="262.20047" type="curve"/>
      <point x="262.001182507" y="286.001678499"/>
      <point x="285.743760774" y="315.158784648"/>
      <point x="301.00657" y="347" type="curve"/>
      <point x="460.0" y="347" type="line"/>
      <point x="460.0" y="308.85737" type="line"/>
      <point x="421.83334923" y="245.754430322"/>
      <point x="360.425420334" y="228.0"/>
    </contour>
  </outline>
</glyph>
<glyph name="uni0A17" format="1">
  <advance width="902"/>
  <unicode hex="0A17"/>
  <outline>
    <contour>
      <point x="713" y="682" type="move" name="abvm_bindu"/>
    </contour>
    <contour>
      <point x="743" y="0" type="move" name="blwm"/>
    </contour>
    <contour>
      <point x="713" y="690" type="move" name="abvm_candra"/>
    </contour>
    <contour>
      <point x="468" y="30" type="move" name="blwm_caret_1"/>
    </contour>
    <contour>
      <point x="56" y="-34" type="move" name="blwm_nukta"/>
    </contour>
    <contour>
      <point x="743" y="672" type="move" name="abvm"/>
    </contour>
    <contour>
      <point x="561" y="172" type="curve" smooth="yes"/>
      <point x="561" y="541" type="line"/>
      <point x="642" y="541" type="line"/>
      <point x="642" y="0" type="line"/>
      <point x="841.0" y="0" type="line"/>
      <point x="841.0" y="541" type="line"/>
      <point x="902.0" y="541" type="line"/>
      <point x="902.0" y="693" type="line"/>
      <point x="0" y="693" type="line"/>
      <point x="0" y="541" type="line"/>
      <point x="362.0" y="541" type="line"/>
      <point x="362.0" y="451.0" type="line"/>
      <point x="236.0" y="451.0" type="line" smooth="yes"/>
      <point x="103" y="451"/>
      <point x="20" y="381"/>
      <point x="20" y="264" type="curve" smooth="yes"/>
      <point x="20" y="109"/>
      <point x="197" y="-17"/>
      <point x="343" y="-17" type="curve" smooth="yes"/>
      <point x="461" y="-17"/>
      <point x="561" y="44"/>
    </contour>
    <contour>
      <point x="317" y="137" type="curve" smooth="yes"/>
      <point x="261" y="137"/>
      <point x="221" y="188"/>
      <point x="221" y="241" type="curve" smooth="yes"/>
      <point x="221" y="275"/>
      <point x="239" y="299"/>
      <point x="278" y="299" type="curve" smooth="yes"/>
      <point x="363.20455" y="299" type="line"/>
      <point x="364.0" y="194.0" type="line" smooth="yes"/>
      <point x="364" y="163"/>
      <point x="358" y="137"/>
    </contour>
  </outline>
</glyph>
